<?xml version="1.0" encoding="UTF-8"?>
<svg version="1.1" xmlns="http://www.w3.org/2000/svg" width="513" height="336">
<path d="M0 0 C0.78342773 0.16628906 1.56685547 0.33257812 2.37402344 0.50390625 C46.35536098 10.17013428 85.06450633 38.29069676 109.5390625 75.82421875 C113.57738404 82.24126601 117.0525492 88.90856693 120.3125 95.75 C120.82647339 96.82254028 120.82647339 96.82254028 121.35083008 97.91674805 C123.25911789 102.02153732 124.48048306 105.88673573 125.5 110.3125 C126.25501616 112.96014554 126.25501616 112.96014554 128 115 C132.50249907 116.87060348 137.02886265 117.66697446 141.80664062 118.54003906 C158.46476513 122.03335012 174.61445716 131.61386695 187 143 C187.7748877 143.70334473 187.7748877 143.70334473 188.56542969 144.42089844 C208.7869721 162.9623127 222.31514615 188.59289058 224.22094727 216.20068359 C225.35740267 248.26754618 217.62469726 273.8983992 195.98828125 298.265625 C182.85907889 312.14714764 165.09125995 322.14777283 147 328 C146.34 328 145.68 328 145 328 C145 316.12 145 304.24 145 292 C152.425 288.04 152.425 288.04 160 284 C175.49149325 272.45731875 185.96532696 258.02821905 189.52734375 238.7890625 C192.14480152 217.80613654 187.9326582 198.33524184 175.83203125 180.87109375 C162.62123594 164.0594799 144.42983778 152.39845795 123 149.75 C120.33617735 149.45784299 117.67092686 149.21694785 115 149 C114.31679688 148.94360352 113.63359375 148.88720703 112.9296875 148.82910156 C108.95550683 148.50988268 104.97991579 148.2363075 101 148 C100.70867187 146.741875 100.41734375 145.48375 100.1171875 144.1875 C90.96153582 105.5492834 71.52212052 73.30284819 37.5 51.75 C4.40303797 32.18726008 -32.44200571 25.7254787 -69.9609375 35.21875 C-104.66331731 44.59394897 -133.34385342 66.19526382 -151.90429688 97.02294922 C-153.09570682 99.17269024 -154.12390594 101.36022378 -155.140625 103.59765625 C-160.48286667 115.20659546 -160.48286667 115.20659546 -164.63671875 117.37890625 C-167.78092922 117.85504181 -170.82146131 117.92017369 -174 118 C-176.78266301 118.43014982 -179.51065682 119.03955667 -182.25 119.6875 C-182.96961914 119.85717285 -183.68923828 120.0268457 -184.43066406 120.20166016 C-208.10481884 126.11756488 -228.32119309 141.18381052 -241 162 C-254.2041721 184.81334379 -258.12570036 209.22899249 -251.78125 234.83129883 C-248.23870626 248.02880122 -242.0053665 259.06666648 -234 270 C-233.15501953 271.15628906 -233.15501953 271.15628906 -232.29296875 272.3359375 C-226.90380289 279.02123186 -218.69702491 286.15148755 -211 290 C-211 302.54 -211 315.08 -211 328 C-216.09832991 326.3005567 -220.14710571 324.48194898 -224.75 321.875 C-225.45592285 321.47539062 -226.1618457 321.07578125 -226.88916016 320.6640625 C-232.73104551 317.28536514 -237.93633592 313.46844633 -243 309 C-243.82886719 308.29101562 -244.65773437 307.58203125 -245.51171875 306.8515625 C-270.04724978 285.43463649 -285.57588982 255.37595152 -288.75390625 222.875 C-289.99583082 203.31961636 -287.93092034 184.41909466 -281 166 C-280.75266113 165.3404834 -280.50532227 164.6809668 -280.25048828 164.00146484 C-268.80256481 134.25698571 -244.91893041 108.53211914 -216 95 C-207.69809332 91.45301663 -199.48697075 88.23378211 -190.5 87.125 C-185.43761139 85.99141924 -183.56853678 83.57888342 -180.82397461 79.43530273 C-178.94319747 76.38611888 -177.13055498 73.30008583 -175.328125 70.20410156 C-153.77639089 34.43773106 -114.62821273 11.03680504 -75 1 C-50.71062498 -4.60999563 -24.40724142 -5.27387437 0 0 Z " fill="#3448C5" transform="translate(289,3)"/>
<path d="M0 0 C3.59713311 1.52687559 5.91758134 3.65865067 8.67675781 6.40209961 C10.05773651 7.76878029 10.05773651 7.76878029 11.46661377 9.16307068 C12.46244724 10.1591655 13.45794305 11.155598 14.453125 12.15234375 C15.47851959 13.17385048 16.50413727 14.19513331 17.52996826 15.21620178 C19.67509265 17.35387485 21.81631331 19.49536918 23.95507812 21.6394043 C26.69958251 24.38971856 29.4553182 27.12846613 32.21428299 29.86426449 C34.33326454 31.96853885 36.44530487 34.07967292 38.55538177 36.192873 C39.56896255 37.20593959 40.58491637 38.21663758 41.6032486 39.2249279 C43.02290803 40.63229234 44.43213476 42.05015733 45.84082031 43.46850586 C46.64594055 44.27299667 47.45106079 45.07748749 48.28057861 45.90635681 C50 48 50 48 50 51 C45.38 51.33 40.76 51.66 36 52 C35.93043945 66.20402154 35.87715779 80.40800244 35.84456348 94.61215973 C35.82891858 101.20797245 35.80770139 107.80366849 35.77368164 114.39941406 C35.74104685 120.76660812 35.72313814 127.13369005 35.71536827 133.5009613 C35.70983221 135.92819483 35.69902166 138.35542233 35.68280983 140.78260803 C35.66098132 144.18658635 35.65803542 147.59010339 35.65942383 150.99414062 C35.648638 151.99395966 35.63785217 152.99377869 35.6267395 154.02389526 C35.66044012 161.67726903 37.01037679 168.0212614 41.875 174.1875 C42.390625 174.84492188 42.90625 175.50234375 43.4375 176.1796875 C44.848319 177.82329163 46.30507205 179.32285246 47.875 180.8125 C50 183 50 183 50 186 C41.82823491 186.1163836 33.65682206 186.20496056 25.48443031 186.25906086 C21.68870171 186.28504016 17.89354442 186.32022007 14.09814453 186.37719727 C10.4281804 186.43194008 6.75876211 186.46150804 3.08842087 186.47438622 C1.69547316 186.48355116 0.30255183 186.50144661 -1.09016037 186.52865028 C-10.64995795 186.70777739 -18.62459849 185.95628678 -25.90438843 179.24409485 C-32.61207333 172.16021506 -33.4451951 165.03159372 -33.43237305 155.64868164 C-33.4425647 154.52599884 -33.45275635 153.40331604 -33.46325684 152.24661255 C-33.49335111 148.55107611 -33.50264765 144.85579906 -33.51171875 141.16015625 C-33.52856801 138.59182374 -33.54671859 136.02349946 -33.56611633 133.45518494 C-33.60874748 127.39575765 -33.6382942 121.33639714 -33.66143972 115.27686828 C-33.68853866 108.37470244 -33.73244711 101.47267503 -33.77772844 94.57060826 C-33.87044886 80.38048109 -33.94159088 66.19030714 -34 52 C-40.93 51.505 -40.93 51.505 -48 51 C-46.88043666 46.52174663 -45.78244291 45.41618337 -42.57202148 42.23144531 C-41.88417572 41.54294243 -41.88417572 41.54294243 -41.18243408 40.8405304 C-39.66899112 39.329173 -38.14520986 37.82871211 -36.62109375 36.328125 C-35.56811838 35.2807464 -34.51580457 34.23270231 -33.46412659 33.184021 C-30.69730031 30.42863705 -27.9215829 27.68238176 -25.1439209 24.93792725 C-22.30992589 22.13464618 -19.48442747 19.32283007 -16.65820312 16.51171875 C-11.11375205 10.99942104 -5.55988091 5.49673895 0 0 Z " fill="#3448C5" transform="translate(150,150)"/>
<path d="M0 0 C3.12353453 1.28438982 4.90151752 2.91782051 7.30041504 5.29833984 C8.68612198 6.66029228 8.68612198 6.66029228 10.099823 8.04975891 C11.09386811 9.0476445 12.08731322 10.04612809 13.0802002 11.04516602 C14.10626959 12.06599993 15.13285814 13.08631228 16.15994263 14.10612488 C18.30658404 16.24237005 20.44558859 18.38591963 22.57971191 20.53466797 C25.3186358 23.29081843 28.0774451 26.02604165 30.84248924 28.7559557 C32.96510515 30.85664635 35.07594258 32.96886401 37.18346024 35.084692 C38.19637564 36.09842883 39.21316068 37.10831414 40.23380661 38.11426735 C41.65598918 39.51908907 43.06070358 40.94152931 44.46447754 42.36474609 C45.26880219 43.1700325 46.07312683 43.97531891 46.90182495 44.80500793 C47.69008163 45.90421822 47.69008163 45.90421822 48.4942627 47.02563477 C48.1642627 48.34563477 47.8342627 49.66563477 47.4942627 51.02563477 C43.2042627 51.35563477 38.9142627 51.68563477 34.4942627 52.02563477 C34.42453412 62.28358817 34.37133581 72.54148453 34.33882618 82.7996273 C34.3232176 87.56368804 34.30206782 92.32758578 34.26794434 97.09155273 C34.23517856 101.69515189 34.21737358 106.29859495 34.20963097 110.90230179 C34.20411821 112.65244628 34.19335366 114.40258292 34.17707253 116.15266037 C33.59635328 132.47026863 33.59635328 132.47026863 40.9317627 146.40063477 C41.5402002 147.04258789 42.1486377 147.68454102 42.7755127 148.34594727 C44.13910416 149.67854801 45.53077048 150.98241118 46.9317627 152.27563477 C48.4942627 154.02563477 48.4942627 154.02563477 48.4942627 158.02563477 C40.3224976 158.14201837 32.15108476 158.23059533 23.97869301 158.28469563 C20.18296441 158.31067492 16.38780712 158.34585484 12.59240723 158.40283203 C8.92244309 158.45757485 5.25302481 158.48714281 1.58268356 158.50002098 C0.18973586 158.50918592 -1.20318548 158.52708138 -2.59589767 158.55428505 C-12.17561375 158.73378538 -20.07422843 157.95009663 -27.41012573 151.29902649 C-33.49973419 144.99977219 -34.96240166 137.57741306 -34.84631348 129.13110352 C-34.84675156 128.28137466 -34.84718964 127.43164581 -34.84764099 126.5561676 C-34.84556732 123.77491486 -34.8223041 120.99428092 -34.79870605 118.21313477 C-34.79310503 116.27401051 -34.78883733 114.33488199 -34.7858429 112.39575195 C-34.77443398 107.31252145 -34.74500103 102.22955149 -34.71173096 97.14642334 C-34.68094458 91.95124841 -34.6673193 86.75603104 -34.65222168 81.56079102 C-34.62012738 71.38229165 -34.56897914 61.20398495 -34.5057373 51.02563477 C-39.1257373 51.02563477 -43.7457373 51.02563477 -48.5057373 51.02563477 C-48.8357373 49.70563477 -49.1657373 48.38563477 -49.5057373 47.02563477 C-47.87533569 44.75358582 -47.87533569 44.75358582 -45.38415527 42.24121094 C-44.70879478 41.55029861 -44.70879478 41.55029861 -44.01979065 40.84542847 C-42.52502098 39.32351202 -41.01252347 37.82076949 -39.4979248 36.31860352 C-38.45405913 35.26883203 -37.41086494 34.21839244 -36.36831665 33.16731262 C-34.17884422 30.96594568 -31.9803052 28.77415174 -29.77526855 26.58837891 C-26.94839414 23.78438304 -24.14709026 20.95632637 -21.35232353 18.12037182 C-19.20279762 15.94528602 -17.03939426 13.78443969 -14.87161636 11.62755775 C-13.83283826 10.59026831 -12.79864804 9.5483635 -11.76916122 8.50185204 C-10.32795456 7.04071073 -8.86896229 5.60003397 -7.40368652 4.16308594 C-6.57682343 3.33798019 -5.74996033 2.51287445 -4.89804077 1.6627655 C-2.5057373 0.02563477 -2.5057373 0.02563477 0 0 Z " fill="#3448C5" transform="translate(255.5057373046875,177.974365234375)"/>
<path d="M0 0 C2.75060493 1.42390477 4.58577218 3.26293228 6.76855469 5.46331787 C7.45705757 6.15116364 7.45705757 6.15116364 8.1594696 6.85290527 C9.670827 8.36634824 11.17128789 9.89012949 12.671875 11.41424561 C13.7192536 12.46722098 14.76729769 13.51953479 15.815979 14.57121277 C18.57136295 17.33803905 21.31761824 20.11375645 24.06207275 22.89141846 C26.86535382 25.72541347 29.67716993 28.55091188 32.48828125 31.37713623 C38.00057896 36.92158731 43.50326105 42.47545845 49 48.03533936 C48.67 49.02533936 48.34 50.01533936 48 51.03533936 C43.38 51.03533936 38.76 51.03533936 34 51.03533936 C34.01781298 58.42528143 34.05687267 65.81440404 34.13209057 73.20400047 C34.16620457 76.63631085 34.19144588 80.06818355 34.19555664 83.50067139 C34.20070198 87.45793601 34.2459738 91.41427991 34.29296875 95.37127686 C34.2890361 96.5883432 34.28510345 97.80540955 34.28105164 99.05935669 C34.43716163 108.28181174 36.52090018 114.86484449 42.45703125 121.98065186 C43.23433594 122.69994873 44.01164062 123.41924561 44.8125 124.16033936 C45.60269531 124.90541748 46.39289063 125.65049561 47.20703125 126.41815186 C47.79871094 126.95182373 48.39039063 127.48549561 49 128.03533936 C48.67 129.02533936 48.34 130.01533936 48 131.03533936 C39.92401914 131.10507439 31.84816562 131.15826916 23.7719574 131.19077587 C20.02120268 131.20638323 16.27065508 131.22753028 12.52001953 131.26165771 C8.89548731 131.29442859 5.2711534 131.31222938 1.64648438 131.31997108 C0.26868573 131.325483 -1.10910296 131.33624596 -2.48681641 131.35252953 C-11.9974379 131.46039302 -20.16778562 131.33795069 -27.6171875 124.62127686 C-33.19691431 118.22192916 -35.13171625 111.49309669 -35.11352539 103.14349365 C-35.11344986 101.98266769 -35.11337433 100.82184174 -35.11329651 99.62583923 C-35.10813522 98.38296646 -35.10297394 97.14009369 -35.09765625 95.85955811 C-35.0962413 94.57926224 -35.09482635 93.29896637 -35.09336853 91.97987366 C-35.08956397 88.58836896 -35.07975143 85.19690759 -35.06866455 81.80541992 C-35.05840597 78.33974799 -35.05386141 74.874069 -35.04882812 71.40838623 C-35.03780755 64.61734945 -35.02054722 57.82635372 -35 51.03533936 C-39.62 51.03533936 -44.24 51.03533936 -49 51.03533936 C-49 46.11784006 -48.11564764 45.64289963 -44.74902344 42.25091553 C-44.07103447 41.5600032 -44.07103447 41.5600032 -43.37934875 40.85513306 C-41.88275437 39.33583925 -40.37188097 37.83175047 -38.859375 36.32830811 C-37.81469045 35.27839043 -36.77052819 34.22795283 -35.72686768 33.17701721 C-33.53757657 30.97731506 -31.3409522 28.78527026 -29.13916016 26.5980835 C-26.31461494 23.79074312 -23.51094642 20.9635446 -20.71264267 18.13007641 C-18.56134017 15.95684531 -16.39850374 13.79539368 -14.23206329 11.63726234 C-13.19320669 10.59922744 -12.15820458 9.55732039 -11.1271286 8.51155663 C-9.68593319 7.05299545 -8.2297846 5.61124157 -6.76855469 4.17279053 C-5.94248718 3.34768478 -5.11641968 2.52257904 -4.26531982 1.67247009 C-2 0.03533936 -2 0.03533936 0 0 Z " fill="#3448C5" transform="translate(360,204.96466064453125)"/>
</svg>
