<?xml version="1.0" encoding="UTF-8"?>
<svg version="1.1" xmlns="http://www.w3.org/2000/svg" width="920" height="920">
<path d="M0 0 C1.15987427 0.00343414 2.31974854 0.00686829 3.51477051 0.01040649 C37.33590483 0.12761881 70.78586774 2.71672176 103.625 11.25 C104.96093848 11.55267614 106.29824029 11.84938646 107.63671875 12.140625 C118.72887388 14.57147843 129.45764227 17.90885356 140.23730469 21.46435547 C142.20939821 22.11325086 144.18614639 22.74798157 146.1640625 23.37890625 C152.92792984 25.55756433 159.51340164 28.12991471 166.08984375 30.8125 C168.9867584 31.99047192 171.89456045 33.12591414 174.8125 34.25 C179.54306465 36.14222586 184.06202111 38.39059716 188.59765625 40.70703125 C190.47056591 41.66161101 192.35197597 42.59994522 194.24609375 43.51171875 C210.29428312 51.26795541 225.82350553 60.32936644 240.625 70.25 C241.615 70.91 242.605 71.57 243.625 72.25 C243.625 72.91 243.625 73.57 243.625 74.25 C244.44097656 74.44980469 245.25695312 74.64960937 246.09765625 74.85546875 C250.74456358 76.69261816 254.17699367 79.46714969 258.0625 82.5625 C259.5187154 83.70546729 260.97573768 84.84740737 262.43359375 85.98828125 C263.13210449 86.5395166 263.83061523 87.09075195 264.55029297 87.65869141 C266.5460261 89.1894267 268.58605291 90.62109917 270.66015625 92.04296875 C271.63855469 92.77128906 272.61695313 93.49960938 273.625 94.25 C273.625 94.91 273.625 95.57 273.625 96.25 C274.18703125 96.5078125 274.7490625 96.765625 275.328125 97.03125 C277.89204579 98.39169777 280.07726365 99.97788962 282.375 101.75 C283.17421875 102.3584375 283.9734375 102.966875 284.796875 103.59375 C285.40015625 104.1403125 286.0034375 104.686875 286.625 105.25 C286.625 105.91 286.625 106.57 286.625 107.25 C287.16898438 107.47558594 287.71296875 107.70117188 288.2734375 107.93359375 C291.33220094 109.64589156 293.72123618 111.91989725 296.25 114.3125 C297.31848267 115.31046117 298.38750132 116.30784877 299.45703125 117.3046875 C299.98893066 117.80194336 300.52083008 118.29919922 301.06884766 118.81152344 C303.32228913 120.89456033 305.63274522 122.91157467 307.9375 124.9375 C312.20518194 128.76817131 315.96567113 132.84258173 319.625 137.25 C320.6642406 138.48121855 321.70582578 139.71046278 322.75 140.9375 C323.23210938 141.5046875 323.71421875 142.071875 324.2109375 142.65625 C325.53217388 144.1453783 326.95122615 145.54608464 328.375 146.9375 C330.42706799 149.04656988 331.33892793 150.67785586 332.625 153.25 C333.615 153.58 334.605 153.91 335.625 154.25 C337.4921875 156.578125 337.4921875 156.578125 339.5 159.5 C342.30191369 163.47278638 345.13932354 166.85605187 348.625 170.25 C350.73294137 172.83847511 352.67046666 175.54469097 354.625 178.25 C355.48158486 179.41289743 356.3383716 180.57564616 357.1953125 181.73828125 C358.10998937 182.99173941 359.02404886 184.24564831 359.9375 185.5 C360.38246826 186.10255615 360.82743652 186.7051123 361.28588867 187.32592773 C363.43517351 190.30323275 364.7733447 192.70846312 365.625 196.25 C366.615 196.58 367.605 196.91 368.625 197.25 C370.16796875 199.515625 370.16796875 199.515625 371.8125 202.5 C372.72322266 204.11841797 372.72322266 204.11841797 373.65234375 205.76953125 C373.97187012 206.33881348 374.29139648 206.9080957 374.62060547 207.49462891 C376.30290486 210.43476809 378.08838084 213.30995846 379.875 216.1875 C381.12649271 218.20740924 382.37661925 220.22816596 383.625 222.25 C384.19734375 223.13816406 384.7696875 224.02632812 385.359375 224.94140625 C386.625 227.25 386.625 227.25 386.625 230.25 C387.285 230.25 387.945 230.25 388.625 230.25 C402.07465841 256.78139304 413.57248428 283.89432575 422.625 312.25 C422.83769531 312.91225586 423.05039062 313.57451172 423.26953125 314.25683594 C430.5275076 337.30676407 435.02047353 362.24326045 437.625 386.25 C437.72651367 387.12543457 437.82802734 388.00086914 437.93261719 388.90283203 C443.5114626 439.15643799 441.39273206 493.18622616 428.625 542.25 C428.30534151 543.69040309 427.99054362 545.13189039 427.6796875 546.57421875 C419.86907637 582.12207951 404.98170501 615.9189545 388.625 648.25 C387.965 648.25 387.305 648.25 386.625 648.25 C386.51542969 648.98992188 386.40585937 649.72984375 386.29296875 650.4921875 C385.59109056 653.39000038 384.67322288 654.97870017 382.9375 657.375 C380.59573491 660.73954077 378.5471485 664.1288548 376.625 667.75 C371.1736452 677.9210804 371.1736452 677.9210804 367.625 682.25 C366.965 682.25 366.305 682.25 365.625 682.25 C365.356875 683.219375 365.08875 684.18875 364.8125 685.1875 C364.2246875 686.7034375 364.2246875 686.7034375 363.625 688.25 C362.635 688.58 361.645 688.91 360.625 689.25 C360.26337971 690.57594105 359.93473583 691.9109882 359.625 693.25 C358.2421875 695.2578125 358.2421875 695.2578125 356.5 697.375 C353.84980082 700.66602603 351.37751045 704.00672806 349 707.5 C346.48047935 711.14741297 343.80484296 714.15169147 340.625 717.25 C339.02492985 719.36352549 337.47799266 721.50469913 335.95703125 723.67578125 C335.51746094 724.19527344 335.07789063 724.71476563 334.625 725.25 C333.965 725.25 333.305 725.25 332.625 725.25 C332.398125 725.806875 332.17125 726.36375 331.9375 726.9375 C330.25973829 729.89355635 328.04222933 731.86059489 325.625 734.25 C324.03374652 735.99280143 322.45095983 737.74335688 320.875 739.5 C316.03690668 744.82865428 311.01975295 749.96692528 305.9375 755.0625 C304.8870752 756.11969238 304.8870752 756.11969238 303.81542969 757.19824219 C291.27996636 769.69834455 291.27996636 769.69834455 286.625 771.25 C286.295 772.24 285.965 773.23 285.625 774.25 C283.41015625 776.29296875 283.41015625 776.29296875 280.6875 778.4375 C279.34365234 779.51064453 279.34365234 779.51064453 277.97265625 780.60546875 C275.625 782.25 275.625 782.25 273.625 782.25 C273.625 782.91 273.625 783.57 273.625 784.25 C272.18920898 785.52270508 272.18920898 785.52270508 270.18359375 786.95703125 C269.44995605 787.48893066 268.71631836 788.02083008 267.96044922 788.56884766 C267.18975098 789.12362793 266.41905273 789.6784082 265.625 790.25 C264.17631246 791.33447594 262.72970321 792.42173355 261.28515625 793.51171875 C251.57467273 800.7662066 241.71924319 807.63617025 231.45996094 814.09082031 C229.80102916 815.13879903 228.15368416 816.20506467 226.5078125 817.2734375 C216.61541963 823.69088217 206.22479158 829.01896814 195.66796875 834.23828125 C193.11482668 835.50182296 190.57618727 836.78740568 188.05078125 838.10546875 C181.29921535 841.59287964 174.5416252 844.57432492 167.39257812 847.12158203 C163.97234867 848.34245833 160.65759438 849.66535333 157.35546875 851.1796875 C152.10549464 853.54701569 146.71546638 855.38455075 141.25 857.1875 C140.19780273 857.53522461 139.14560547 857.88294922 138.06152344 858.24121094 C122.87229222 863.19392121 107.58003542 866.82441055 91.89550781 869.80908203 C88.67151325 870.43516097 85.46270287 871.13112456 82.25 871.8125 C28.25916062 882.4830848 -32.4408416 882.46459076 -86.24707031 870.7109375 C-88.7529862 870.16812323 -91.26312062 869.6470763 -93.7734375 869.125 C-118.66646717 863.89794236 -142.68315233 856.50828515 -166.375 847.25 C-167.39464844 846.85296875 -168.41429687 846.4559375 -169.46484375 846.046875 C-177.34309536 842.87442469 -184.87206879 839.08293874 -192.43164062 835.22900391 C-194.18875478 834.34382454 -195.96080389 833.48844534 -197.734375 832.63671875 C-219.26558699 822.25743833 -238.98726384 808.88635459 -258.23339844 794.81445312 C-260.21677394 793.36558511 -262.20569974 791.92465641 -264.1953125 790.484375 C-265.29739112 789.67778806 -266.39899154 788.87054711 -267.5 788.0625 C-268.45132813 787.36769531 -269.40265625 786.67289063 -270.3828125 785.95703125 C-271.04023438 785.39371094 -271.69765625 784.83039062 -272.375 784.25 C-272.375 783.59 -272.375 782.93 -272.375 782.25 C-273.035 782.064375 -273.695 781.87875 -274.375 781.6875 C-278.64405268 779.64191226 -282.11663706 776.67815357 -285.375 773.25 C-285.375 772.59 -285.375 771.93 -285.375 771.25 C-285.93316406 771.00894531 -286.49132812 770.76789062 -287.06640625 770.51953125 C-296.5482945 765.3052949 -304.60851928 755.11380819 -312.1875 747.5625 C-313.08267334 746.67199951 -313.97784668 745.78149902 -314.90014648 744.86401367 C-328.74809296 730.98250893 -328.74809296 730.98250893 -331.375 725.25 C-332.035 725.25 -332.695 725.25 -333.375 725.25 C-334.91174364 723.36318735 -336.34161069 721.47910917 -337.75 719.5 C-340.43559632 715.78148202 -343.09579632 712.4492231 -346.375 709.25 C-348.79193919 706.31435697 -351.06988678 703.27391196 -353.375 700.25 C-353.96410156 699.50492188 -354.55320312 698.75984375 -355.16015625 697.9921875 C-355.70542969 697.29351563 -356.25070312 696.59484375 -356.8125 695.875 C-357.55306641 694.93527344 -357.55306641 694.93527344 -358.30859375 693.9765625 C-359.375 692.25 -359.375 692.25 -359.375 689.25 C-360.365 688.92 -361.355 688.59 -362.375 688.25 C-363.5625 685.1875 -363.5625 685.1875 -364.375 682.25 C-365.035 682.25 -365.695 682.25 -366.375 682.25 C-367.99054414 679.92593745 -369.47800679 677.60771085 -370.9375 675.1875 C-371.37497559 674.47247314 -371.81245117 673.75744629 -372.26318359 673.02075195 C-373.17853216 671.52166708 -374.0905751 670.02055939 -374.99951172 668.51757812 C-376.33182055 666.32118402 -377.6810921 664.13615659 -379.03515625 661.953125 C-379.85739727 660.61496805 -380.67903712 659.27644147 -381.5 657.9375 C-381.89002197 657.31029053 -382.28004395 656.68308105 -382.68188477 656.03686523 C-385.375 651.5935612 -385.375 651.5935612 -385.375 648.25 C-386.035 648.25 -386.695 648.25 -387.375 648.25 C-397.97220862 627.345476 -407.71723649 606.11380351 -415.375 583.9375 C-415.89827881 582.42627563 -415.89827881 582.42627563 -416.43212891 580.88452148 C-424.12995227 558.53060385 -429.45911978 535.5635316 -433.375 512.25 C-433.56425049 511.1360083 -433.56425049 511.1360083 -433.75732422 509.99951172 C-443.15072896 453.44169403 -441.14316948 391.94337408 -427.375 336.25 C-427.07406188 334.89282165 -426.77725821 333.53472063 -426.484375 332.17578125 C-422.96574314 316.06275651 -417.54858467 300.513897 -412.1875 284.9375 C-411.70651855 283.53346924 -411.70651855 283.53346924 -411.21582031 282.10107422 C-409.20802167 276.34186232 -406.94478365 270.7800465 -404.375 265.25 C-404.03509033 264.51064209 -403.69518066 263.77128418 -403.3449707 263.00952148 C-398.67644553 252.91015198 -393.80390993 242.95365864 -388.44482422 233.20263672 C-387.28728752 231.0899077 -386.1457597 228.96889871 -385.00390625 226.84765625 C-380.18109803 217.95720251 -375.03447265 209.43245378 -369.30859375 201.09375 C-367.42176786 198.45444851 -367.42176786 198.45444851 -366.375 196.25 C-365.715 196.25 -365.055 196.25 -364.375 196.25 C-364.106875 195.280625 -363.83875 194.31125 -363.5625 193.3125 C-363.170625 192.301875 -362.77875 191.29125 -362.375 190.25 C-361.385 189.92 -360.395 189.59 -359.375 189.25 C-359.01337971 187.92405895 -358.68473583 186.5890118 -358.375 185.25 C-356.9921875 183.2421875 -356.9921875 183.2421875 -355.25 181.125 C-352.59980082 177.83397397 -350.12751045 174.49327194 -347.75 171 C-345.23047935 167.35258703 -342.55484296 164.34830853 -339.375 161.25 C-337.77492985 159.13647451 -336.22799266 156.99530087 -334.70703125 154.82421875 C-334.26746094 154.30472656 -333.82789063 153.78523437 -333.375 153.25 C-332.715 153.25 -332.055 153.25 -331.375 153.25 C-331.15070313 152.70730469 -330.92640625 152.16460937 -330.6953125 151.60546875 C-328.96669827 148.52158006 -326.66365363 146.1123984 -324.25 143.5625 C-323.25059838 142.49284455 -322.25190536 141.42252662 -321.25390625 140.3515625 C-320.76293457 139.82594727 -320.27196289 139.30033203 -319.76611328 138.75878906 C-317.86013275 136.69157957 -316.02598506 134.56473321 -314.1875 132.4375 C-310.54541265 128.32068028 -306.58021334 124.77747993 -302.375 121.25 C-298.68221724 118.07105529 -295.03321931 114.92317884 -291.625 111.4375 C-289.55119733 109.42130296 -287.9081396 108.5165698 -285.375 107.25 C-285.045 106.26 -284.715 105.27 -284.375 104.25 C-282.01171875 102.34765625 -282.01171875 102.34765625 -279.0625 100.3125 C-275.48825023 97.83581692 -272.40821886 95.35765368 -269.375 92.25 C-266.43935697 89.83306081 -263.39891196 87.55511322 -260.375 85.25 C-259.62992188 84.66089844 -258.88484375 84.07179688 -258.1171875 83.46484375 C-257.06917969 82.64693359 -257.06917969 82.64693359 -256 81.8125 C-255.37351563 81.31878906 -254.74703125 80.82507813 -254.1015625 80.31640625 C-252.375 79.25 -252.375 79.25 -249.375 79.25 C-249.045 78.26 -248.715 77.27 -248.375 76.25 C-246.375 75.58333333 -244.375 74.91666667 -242.375 74.25 C-242.045 73.26 -241.715 72.27 -241.375 71.25 C-239.7617339 70.2580309 -238.13838632 69.27895966 -236.46972656 68.38330078 C-234.24167072 67.17786544 -232.08853551 65.8837857 -229.9296875 64.55859375 C-229.16269531 64.08873047 -228.39570313 63.61886719 -227.60546875 63.13476562 C-226.82816406 62.65716797 -226.05085937 62.17957031 -225.25 61.6875 C-222.95140767 60.27777219 -220.65268058 58.8683578 -218.35058594 57.46435547 C-216.72470466 56.46495687 -215.1140356 55.44085254 -213.5078125 54.41015625 C-211.375 53.25 -211.375 53.25 -208.375 53.25 C-208.375 52.59 -208.375 51.93 -208.375 51.25 C-194.2489692 44.08903831 -179.99163496 37.35522836 -165.375 31.25 C-164.57320313 30.91484375 -163.77140625 30.5796875 -162.9453125 30.234375 C-160.43308939 29.208623 -157.90683676 28.22641878 -155.375 27.25 C-154.77252441 27.01200684 -154.17004883 26.77401367 -153.54931641 26.52880859 C-133.19385223 18.5227504 -112.0878461 12.4748319 -90.55224609 8.64257812 C-88.4739124 8.26783484 -86.40300691 7.866404 -84.33203125 7.453125 C-56.39169138 1.96034003 -28.45378591 -0.13890542 0 0 Z " fill="#818181" transform="translate(459.375,20.75)"/>
<path d="M0 0 C1.33251801 0.00081573 1.33251801 0.00081573 2.69195557 0.00164795 C15.67400001 0.03823688 27.94140873 0.56617051 40.4375 4.375 C41.57421143 4.69645996 41.57421143 4.69645996 42.73388672 5.02441406 C58.22608351 9.43607798 71.79915025 16.3111289 84.4375 26.375 C84.95022461 26.78089355 85.46294922 27.18678711 85.99121094 27.60498047 C123.31918288 57.38889081 140.57193237 101.90279937 145.89453125 148.34375 C146.07667744 150.02070811 146.25748065 151.69781224 146.4375 153.375 C146.7675 156.345 147.0975 159.315 147.4375 162.375 C147.4375 169.305 147.4375 176.235 147.4375 183.375 C66.5875 183.375 -14.2625 183.375 -97.5625 183.375 C-93.8755017 219.01598354 -90.37233902 247.52855842 -62.75 271.8515625 C-55.02919839 277.9568703 -46.53440373 282.41355943 -37.5625 286.375 C-36.41265625 286.88289063 -35.2628125 287.39078125 -34.078125 287.9140625 C-22.84244811 291.95606585 -10.973994 292.87493036 0.86474609 292.76611328 C2.93784288 292.74999733 5.00899168 292.76610168 7.08203125 292.78515625 C32.3842018 292.82540716 55.34230282 284.35559002 73.4375 266.375 C81.22889198 257.59913611 85.25723723 246.50591971 88.4375 235.375 C105.9275 235.375 123.4175 235.375 141.4375 235.375 C137.59482525 266.11639797 121.47723462 292.32506499 97.57421875 311.6953125 C95.2424605 313.35394756 92.87814791 314.88237235 90.4375 316.375 C89.06658203 317.27605469 89.06658203 317.27605469 87.66796875 318.1953125 C75.78130803 325.96798531 63.34237012 331.10603128 49.6875 335 C49.02250488 335.19392334 48.35750977 335.38784668 47.67236328 335.58764648 C32.76320042 339.69122931 18.27709371 340.91922926 2.875 340.8125 C1.95640198 340.80979095 1.03780396 340.80708191 0.09136963 340.80429077 C-14.4463473 340.73939166 -28.40293684 339.9442188 -42.5625 336.375 C-43.29919922 336.19308105 -44.03589844 336.01116211 -44.79492188 335.82373047 C-66.96943329 330.12738559 -87.1123782 319.2148306 -103.5625 303.375 C-104.76269868 302.38587921 -105.97007479 301.40533917 -107.1875 300.4375 C-139.73969212 272.60189628 -150.40132942 223.47823693 -153.96484375 183.05078125 C-156.5928807 147.44628068 -150.43905953 111.65635408 -133.47949219 80.09130859 C-132.64371653 78.5270107 -131.83960795 76.94589802 -131.0390625 75.36328125 C-114.32349816 42.99419119 -82.85640779 17.70905049 -48.36523438 6.671875 C-46.06263394 5.96398759 -43.75390207 5.2862677 -41.4375 4.625 C-40.40036865 4.32674316 -40.40036865 4.32674316 -39.34228516 4.02246094 C-26.30968031 0.4893251 -13.41196385 -0.0308321 0 0 Z " fill="#FEFEFE" transform="translate(292.5625,289.625)"/>
<path d="M0 0 C9.10879611 -0.56024813 18.21155135 -0.98438414 27.33390808 -1.24349213 C31.57260475 -1.3679925 35.79941042 -1.53600906 40.03125 -1.81054688 C67.24307256 -3.52987548 67.24307256 -3.52987548 75.04003906 2.25585938 C80.11305546 7.81432263 83.3625011 14.06507733 86.44441223 20.87870789 C89.01227796 26.03113915 92.50705138 30.44843004 96 35 C97.28814322 36.88411476 98.56339703 38.77727929 99.8125 40.6875 C102.93172356 45.40898098 106.10226662 50.09023793 109.3125 54.75 C109.78051025 55.4294165 110.24852051 56.10883301 110.73071289 56.80883789 C111.68497165 58.19336875 112.63948082 59.57772705 113.59423828 60.96191406 C120.25744497 70.62229083 126.89245697 80.30145665 133.5 90 C138.11746707 96.77600091 142.73674436 103.55070563 147.375 110.3125 C147.83326172 110.98216797 148.29152344 111.65183594 148.76367188 112.34179688 C150.71219563 115.30681847 150.71219563 115.30681847 153 118 C154.07314453 116.47246094 154.07314453 116.47246094 155.16796875 114.9140625 C160.56606076 107.24231761 165.99559398 99.59589735 171.5 92 C176.21197427 85.49729328 180.86635199 78.95728197 185.48486328 72.38793945 C189.07395681 67.29095671 192.71423156 62.23318566 196.375 57.1875 C201.58172579 50.00796205 206.68294305 42.75969734 211.75366211 35.48364258 C216.26082365 29.02750618 220.84316583 22.62921801 225.47460938 16.26171875 C225.96638672 15.58496094 226.45816406 14.90820312 226.96484375 14.2109375 C227.44033661 13.58112976 227.91582947 12.95132202 228.4057312 12.3024292 C230.06342324 10.02480948 230.06342324 10.02480948 231.28067017 7.43560791 C232.92596805 4.41469071 234.421286 2.29362258 237 0 C242.18680015 -1.39878991 247.2446281 -1.16937524 252.55859375 -0.9765625 C254.07311821 -0.95788896 255.58770348 -0.94366484 257.10231018 -0.9336853 C261.07088795 -0.89567169 265.03574998 -0.79761246 269.00286865 -0.68664551 C273.05804167 -0.58396746 277.11382104 -0.53859688 281.16992188 -0.48828125 C289.11497839 -0.38133469 297.05702585 -0.21089192 305 0 C304.06261343 1.41906757 303.12346306 2.8369701 302.18359375 4.25439453 C301.66079834 5.04411652 301.13800293 5.8338385 300.59936523 6.64749146 C298.20624797 10.16753097 295.61476553 13.51823401 293 16.875 C288.31527324 22.94306803 283.71569354 29.06430217 279.1875 35.25 C274.19909673 42.05808117 269.12994571 48.79796421 264 55.5 C258.25499837 63.00727207 252.59719356 70.57141132 247.00341797 78.19189453 C240.14202589 87.53909997 233.20153615 96.82470919 226.15234375 106.03125 C219.20610013 115.10483298 212.33524717 124.21246302 205.68115234 133.50292969 C200.24014456 141.0919289 194.63171426 148.55193106 189 156 C190.27242652 158.66148909 191.65600662 161.07233827 193.36328125 163.4765625 C193.83121094 164.13785156 194.29914063 164.79914063 194.78125 165.48046875 C195.2865625 166.18816406 195.791875 166.89585937 196.3125 167.625 C196.84230469 168.37136719 197.37210938 169.11773437 197.91796875 169.88671875 C202.29228791 176.0374633 206.71359452 182.15413894 211.1418457 188.26611328 C214.79843214 193.31835587 218.41262851 198.39842059 222 203.5 C228.25432876 212.39076572 234.6211553 221.19833001 241 230 C247.88325617 239.49766801 254.73384082 249.01432033 261.48291016 258.60791016 C266.70684801 266.02347058 272.02374589 273.37093182 277.34570312 280.71630859 C285.19442626 291.55116045 293.02083548 302.40136913 300.78515625 313.296875 C302.48671244 315.68233641 304.19263958 318.06466159 305.89819336 320.44726562 C307.55107366 322.75835598 309.19979767 325.07239369 310.84814453 327.38671875 C311.9556968 328.93794922 313.06951816 330.48469784 314.18359375 332.03125 C314.82425781 332.9284375 315.46492188 333.825625 316.125 334.75 C316.68445313 335.52859375 317.24390625 336.3071875 317.8203125 337.109375 C319 339 319 339 319 341 C309.89880828 341.2789193 300.79910171 341.4916819 291.69455814 341.62174606 C287.46597192 341.68419711 283.24032299 341.76876991 279.01342773 341.90527344 C274.92826834 342.03636321 270.84591884 342.10754407 266.75881767 342.13852692 C265.20558865 342.16058085 263.65250174 342.2036569 262.10048103 342.26876068 C250.0209578 342.75498249 250.0209578 342.75498249 245.19145203 338.56108093 C242.84480779 335.48228431 240.90095448 332.36935471 239 329 C237.96982824 327.46500827 236.92903376 325.93704698 235.8737793 324.41918945 C234.93669434 322.98642868 234.0035467 321.55108555 233.07421875 320.11328125 C232.30365898 318.93405342 232.30365898 318.93405342 231.51753235 317.73100281 C229.90367677 315.26064956 228.29502208 312.78697838 226.6875 310.3125 C220.06736038 300.13055304 213.38316166 290.03013594 206.33097839 280.14125061 C201.35257026 273.14002809 196.66182562 265.96432255 192 258.75 C190.7683025 256.84593828 189.53554529 254.94260271 188.29956055 253.0413208 C187.1996703 251.3492479 186.10360106 249.65469297 185.0078125 247.95996094 C183.12574725 245.18537934 181.09769921 242.61216658 179 240 C178.07408585 238.34658187 177.14897947 236.69269858 176.23046875 235.03515625 C174.80618122 232.67942989 173.20941744 230.51874789 171.5625 228.3125 C167.50653655 222.81732371 163.7364035 217.15406027 160 211.4375 C159.1174353 210.09715698 159.1174353 210.09715698 158.21704102 208.72973633 C157.67104248 207.88950928 157.12504395 207.04928223 156.5625 206.18359375 C156.06878906 205.42618896 155.57507813 204.66878418 155.06640625 203.88842773 C154 202 154 202 154 200 C153.34 200 152.68 200 152 200 C151.78214844 200.66 151.56429687 201.32 151.33984375 202 C149.54500258 206.01876974 147.09831713 209.41613329 144.5625 213 C143.58326064 214.39486921 142.60536198 215.79068074 141.62890625 217.1875 C141.17016113 217.84105469 140.71141602 218.49460937 140.23876953 219.16796875 C139.18060434 220.73290206 138.21804763 222.3617674 137.27734375 224 C136.85582031 224.66 136.43429687 225.32 136 226 C135.34 226 134.68 226 134 226 C133.73018311 226.72727295 133.46036621 227.4545459 133.18237305 228.20385742 C132.02355477 230.94429636 130.70021606 233.24549601 129.08203125 235.73828125 C128.46021973 236.69814941 127.8384082 237.65801758 127.19775391 238.64697266 C126.46554464 239.76489438 125.7329309 240.88255126 125 242 C124.58393494 242.63726013 124.16786987 243.27452026 123.73919678 243.93109131 C120.90285409 248.27434204 118.04898422 252.60562679 115.18237305 256.92895508 C114.17399814 258.45246909 113.16852661 259.97790822 112.16577148 261.50512695 C110.70430908 263.73048733 109.2340855 265.94981283 107.76171875 268.16796875 C107.31277756 268.85529587 106.86383636 269.54262299 106.40129089 270.2507782 C105.31952748 271.86983069 104.16637069 273.44079428 103 275 C102.34 275 101.68 275 101 275 C100.7215625 276.175625 100.7215625 276.175625 100.4375 277.375 C99.2018041 280.49110271 98.11036573 282.40640176 96.1796875 285.0625 C92.7210562 289.9226304 89.4154897 294.86950188 86.13671875 299.8515625 C85.07495332 301.45969057 84.01310313 303.06776268 82.95117188 304.67578125 C81.30417807 307.17116636 79.65938432 309.66789195 78.02026367 312.16845703 C76.41950086 314.60868168 74.81018607 317.04306672 73.19921875 319.4765625 C72.70653 320.23264801 72.21384125 320.98873352 71.70622253 321.76773071 C70.5228548 323.54754015 69.26819905 325.27960702 68 327 C67.34 327 66.68 327 66 327 C65.79375 327.825 65.5875 328.65 65.375 329.5 C63.54898827 334.14802985 62.04534883 337.89162168 58 341 C52.9248032 342.1366795 47.92006137 341.93283203 42.7578125 341.78125 C41.26426227 341.76631493 39.77067265 341.75493387 38.27706909 341.74694824 C34.36004997 341.71651098 30.44543275 341.63802975 26.52935791 341.54931641 C22.52771498 341.46723767 18.52568092 341.43089036 14.5234375 341.390625 C6.6811936 341.30501936 -1.15910382 341.16862348 -9 341 C-8.31235902 338.02260773 -7.52481507 336.01294217 -5.734375 333.5234375 C-5.26322266 332.86214844 -4.79207031 332.20085937 -4.30664062 331.51953125 C-3.79294922 330.81183594 -3.27925781 330.10414063 -2.75 329.375 C-2.21568359 328.62863281 -1.68136719 327.88226562 -1.13085938 327.11328125 C0.57277414 324.73731739 2.28537758 322.36804308 4 320 C5.08866189 318.4922743 6.17720557 316.98446324 7.265625 315.4765625 C8.88959968 313.22801992 10.51441254 310.98010453 12.14160156 308.73388672 C15.79857312 303.68186437 19.41271927 298.60170003 23 293.5 C27.12391276 287.63512143 31.29325447 281.80574605 35.5 276 C41.74043252 267.38473364 47.88201356 258.70248236 54 250 C60.65545171 240.53300433 67.35420672 231.10172956 74.14428711 221.73071289 C77.79987757 216.67940109 81.41351425 211.60056944 85 206.5 C89.1239122 200.63512223 93.29319549 194.805703 97.5 189 C101.93352427 182.88044059 106.33085687 176.73706112 110.6875 170.5625 C111.1928125 169.84642578 111.698125 169.13035156 112.21875 168.39257812 C114.17631903 165.61261439 116.11377759 162.82933362 118 160 C117.34 160 116.68 160 116 160 C114.80175781 158.64916992 114.80175781 158.64916992 113.453125 156.73046875 C112.94531494 156.01640869 112.43750488 155.30234863 111.91430664 154.56665039 C111.36508545 153.78153076 110.81586426 152.99641113 110.25 152.1875 C109.06730977 150.52279522 107.88368598 148.85875337 106.69921875 147.1953125 C106.08739746 146.33325195 105.47557617 145.47119141 104.84521484 144.58300781 C101.96030278 140.54458897 99.01361737 136.55266701 96.0625 132.5625 C95.48209961 131.77641357 94.90169922 130.99032715 94.30371094 130.18041992 C93.12481147 128.58376301 91.94561228 126.98732735 90.76611328 125.39111328 C87.26122523 120.6458999 83.76391854 115.89509547 80.265625 111.14501953 C77.26532825 107.07186386 74.26209416 103.00092586 71.25390625 98.93359375 C60.98922236 85.04568396 60.98922236 85.04568396 57.375 79.8125 C53.99240811 74.91619823 50.40137026 70.18499617 46.81713867 65.43579102 C43.04122038 60.42001896 39.34754741 55.35078177 35.6875 50.25 C31.05294178 43.79733871 26.33967089 37.4102814 21.5625 31.0625 C10.92291126 16.91059853 10.92291126 16.91059853 6.0625 10.375 C5.452854 9.56297119 4.84320801 8.75094238 4.21508789 7.91430664 C3.66071045 7.16656982 3.10633301 6.41883301 2.53515625 5.6484375 C2.044104 4.99020996 1.55305176 4.33198242 1.04711914 3.65380859 C0 2 0 2 0 0 Z " fill="#FEFEFE" transform="translate(462,290)"/>
<path d="M0 0 C0.9178125 0.44085938 1.835625 0.88171875 2.78125 1.3359375 C9.97338406 4.9926124 15.98669021 9.64887016 22 15 C22.78375 15.68835938 23.5675 16.37671875 24.375 17.0859375 C41.24377186 32.841839 49.52485436 55.67482196 53 78 C53 79.65 53 81.3 53 83 C-8.71 83 -70.42 83 -134 83 C-134 69.50264999 -131.82683565 58.12739778 -126 46 C-125.47277344 44.845 -124.94554687 43.69 -124.40234375 42.5 C-120.81156505 34.8066606 -116.5916202 28.37336128 -111 22 C-110.40832031 21.25363281 -109.81664062 20.50726563 -109.20703125 19.73828125 C-83.86566676 -11.22249029 -34.71618459 -17.46019872 0 0 Z " fill="#828282" transform="translate(330,346)"/>
<path d="M0 0 C1.15376122 3.36260673 0.88849553 5.07081085 -0.5 8.3125 C-0.87640625 9.19292969 -1.2528125 10.07335937 -1.640625 10.98046875 C-6.81149008 22.46632711 -12.31401076 33.76094076 -18 45 C-18.66 45 -19.32 45 -20 45 C-20.10957031 45.73992188 -20.21914063 46.47984375 -20.33203125 47.2421875 C-21.03390944 50.14000038 -21.95177712 51.72870017 -23.6875 54.125 C-26.02926509 57.48954077 -28.0778515 60.8788548 -30 64.5 C-35.4513548 74.6710804 -35.4513548 74.6710804 -39 79 C-39.66 79 -40.32 79 -41 79 C-41.268125 79.969375 -41.53625 80.93875 -41.8125 81.9375 C-42.204375 82.948125 -42.59625 83.95875 -43 85 C-43.99 85.33 -44.98 85.66 -46 86 C-46.36162029 87.32594105 -46.69026417 88.6609882 -47 90 C-48.3828125 92.0078125 -48.3828125 92.0078125 -50.125 94.125 C-52.77519918 97.41602603 -55.24748955 100.75672806 -57.625 104.25 C-60.14452065 107.89741297 -62.82015704 110.90169147 -66 114 C-67.60007015 116.11352549 -69.14700734 118.25469913 -70.66796875 120.42578125 C-71.10753906 120.94527344 -71.54710937 121.46476563 -72 122 C-72.66 122 -73.32 122 -74 122 C-74.3403125 122.8353125 -74.3403125 122.8353125 -74.6875 123.6875 C-76.36526171 126.64355635 -78.58277067 128.61059489 -81 131 C-82.59125348 132.74280143 -84.17404017 134.49335688 -85.75 136.25 C-90.58809332 141.57865428 -95.60524705 146.71692528 -100.6875 151.8125 C-101.3877832 152.51729492 -102.08806641 153.22208984 -102.80957031 153.94824219 C-115.34503364 166.44834455 -115.34503364 166.44834455 -120 168 C-120.33 168.99 -120.66 169.98 -121 171 C-123.21484375 173.04296875 -123.21484375 173.04296875 -125.9375 175.1875 C-126.83339844 175.90292969 -127.72929688 176.61835937 -128.65234375 177.35546875 C-131 179 -131 179 -133 179 C-133 179.66 -133 180.32 -133 181 C-134.43579102 182.27270508 -134.43579102 182.27270508 -136.44140625 183.70703125 C-137.17504395 184.23893066 -137.90868164 184.77083008 -138.66455078 185.31884766 C-139.43524902 185.87362793 -140.20594727 186.4284082 -141 187 C-142.44868754 188.08447594 -143.89529679 189.17173355 -145.33984375 190.26171875 C-155.05032727 197.5162066 -164.90575681 204.38617025 -175.16503906 210.84082031 C-176.82397084 211.88879903 -178.47131584 212.95506467 -180.1171875 214.0234375 C-190.00958037 220.44088217 -200.40020842 225.76896814 -210.95703125 230.98828125 C-213.51017332 232.25182296 -216.04881273 233.53740568 -218.57421875 234.85546875 C-226.55453875 238.97757247 -234.62321868 242.28861165 -243.06542969 245.30273438 C-246.38980651 246.50091966 -249.69343629 247.75362344 -253 249 C-253.33 248.34 -253.66 247.68 -254 247 C-245.96768125 243.27141747 -237.76009316 239.55980076 -229 238 C-229 237.34 -229 236.68 -229 236 C-227.9790625 235.5978125 -227.9790625 235.5978125 -226.9375 235.1875 C-213.98556803 229.95161261 -201.70813749 223.58340717 -189.6953125 216.46875 C-187 215 -187 215 -185 215 C-185 214.34 -185 213.68 -185 213 C-184.45980225 212.71084717 -183.91960449 212.42169434 -183.36303711 212.1237793 C-177.55896614 208.96523268 -172.0410254 205.5028639 -166.5625 201.8125 C-165.36077148 201.01295898 -165.36077148 201.01295898 -164.13476562 200.19726562 C-159.85323835 197.36485614 -159.85323835 197.36485614 -156 194 C-155.01 194 -154.02 194 -153 194 C-152.67 193.01 -152.34 192.02 -152 191 C-150.68312879 190.30137818 -149.3448223 189.64317588 -148 189 C-145.83753826 187.40810864 -143.72467402 185.79563304 -141.625 184.125 C-140.71113525 183.40231934 -140.71113525 183.40231934 -139.77880859 182.66503906 C-133.03171884 177.29020942 -126.49980778 171.66939508 -120 166 C-119.37440186 165.45762695 -118.74880371 164.91525391 -118.10424805 164.35644531 C-113.17738074 160.07179259 -108.34341764 155.69674352 -103.5625 151.25 C-102.84384766 150.59128906 -102.12519531 149.93257812 -101.38476562 149.25390625 C-100.70220703 148.61839844 -100.01964844 147.98289062 -99.31640625 147.328125 C-98.70224854 146.7599707 -98.08809082 146.19181641 -97.45532227 145.60644531 C-95.7603917 143.95213557 -95.7603917 143.95213557 -95 141 C-94.0409375 140.7834375 -94.0409375 140.7834375 -93.0625 140.5625 C-92.381875 140.376875 -91.70125 140.19125 -91 140 C-90.72027344 139.4225 -90.44054687 138.845 -90.15234375 138.25 C-88.69850064 135.41130972 -86.79722122 133.64148984 -84.5 131.4375 C-81.97190847 129.0038015 -79.95327066 126.92990599 -78 124 C-77.34 124 -76.68 124 -76 124 C-75.72671875 123.41355713 -75.4534375 122.82711426 -75.171875 122.22290039 C-74.03080769 120.05843834 -72.79268526 118.32644161 -71.25 116.43359375 C-70.7240625 115.78326172 -70.198125 115.13292969 -69.65625 114.46289062 C-69.1096875 113.79451172 -68.563125 113.12613281 -68 112.4375 C-66.91559607 111.10373431 -65.83222225 109.76913028 -64.75 108.43359375 C-64.27046875 107.84634521 -63.7909375 107.25909668 -63.296875 106.65405273 C-62.12383084 105.1579356 -61.05457233 103.58185849 -60 102 C-59.34 102 -58.68 102 -58 102 C-57.731875 101.236875 -57.46375 100.47375 -57.1875 99.6875 C-56.01474509 97.03337046 -55.04318638 95.96145892 -53 94 C-51.99567214 92.33593771 -50.99656571 90.66872244 -50 89 C-48.59828524 86.92730938 -47.18036495 84.86552382 -45.75 82.8125 C-45.15892456 81.96147705 -45.15892456 81.96147705 -44.5559082 81.09326172 C-42.71478938 78.44523509 -40.86243956 75.80612827 -38.99609375 73.17578125 C-36.14040066 69.14820547 -33.39227473 65.1557377 -31.01953125 60.82421875 C-29.78390324 58.61334411 -28.45219032 56.46961294 -27.125 54.3125 C-24.35848445 49.72700048 -21.98596822 45.0126121 -19.63671875 40.203125 C-17.85983242 36.72568635 -15.91491761 33.36511961 -13.9375 30 C-10.35969659 23.87227505 -7.60290812 17.5909352 -5 11 C-3.40209051 7.30213512 -1.8018135 3.60362699 0 0 Z " fill="#6C6C6C" transform="translate(866,624)"/>
<path d="M0 0 C3.63289368 1.21096456 4.03535608 2.55088617 5.78515625 5.79296875 C12.05392156 17.18156167 20.1215201 27.36544157 28.109375 37.57421875 C30.90903101 41.16633937 33.6789096 44.78127055 36.44897461 48.39624023 C37.62901425 49.93362414 38.81441826 51.46688593 40 53 C40.98419922 54.27617188 40.98419922 54.27617188 41.98828125 55.578125 C44.18556475 58.22339834 46.55049094 60.58667276 49 63 C51.12729271 65.20782544 53.2221394 67.44474373 55.3125 69.6875 C56.13717773 70.55858398 56.13717773 70.55858398 56.97851562 71.44726562 C61 75.76848797 61 75.76848797 61 78 C61.99 78.33 62.98 78.66 64 79 C64 79.66 64 80.32 64 81 C64.66 81 65.32 81 66 81 C67.625 82.375 67.625 82.375 69 84 C69 84.66 69 85.32 69 86 C69.639375 86.268125 70.27875 86.53625 70.9375 86.8125 C73 88 73 88 74 91 C75.3169356 91.69850043 76.65268688 92.36205832 78 93 C79.60546875 94.48046875 79.60546875 94.48046875 81.1875 96.1875 C84.59806657 99.73152352 88.30901645 102.62444105 92.27734375 105.51953125 C92.84582031 106.00808594 93.41429687 106.49664063 94 107 C94 107.66 94 108.32 94 109 C94.52464844 109.22558594 95.04929687 109.45117188 95.58984375 109.68359375 C98.85369386 111.46628012 101.66727725 113.74852858 104.5625 116.0625 C105.18600342 116.55492187 105.80950684 117.04734375 106.4519043 117.5546875 C110.1312269 120.47064367 113.73199073 123.46315702 117.3125 126.5 C123.8163785 131.86065613 130.90889685 136.27999484 138.03173828 140.76025391 C140.67808168 142.42710231 143.30632957 144.12183304 145.9375 145.8125 C150.90714089 148.96343195 155.93622218 152.00322708 161 155 C161.90105469 155.54398438 162.80210937 156.08796875 163.73046875 156.6484375 C175.29365898 163.54577904 187.27735767 169.44454079 199.71875 174.578125 C202.17963747 175.64450957 204.52314429 176.76314294 206.90234375 177.98828125 C210.85511903 179.9887424 214.87279269 181.512724 219.0625 182.9375 C219.80145508 183.19273437 220.54041016 183.44796875 221.30175781 183.7109375 C222.81432336 184.23175236 224.32782799 184.74984831 225.84228516 185.26513672 C227.79718417 185.93092604 229.74842725 186.60742615 231.69921875 187.28515625 C240.09208814 190.15664402 248.55671168 192.63393766 257.12011719 194.9453125 C257.98411133 195.18378906 258.84810547 195.42226563 259.73828125 195.66796875 C260.51212158 195.87703857 261.28596191 196.0861084 262.08325195 196.30151367 C264 197 264 197 266 199 C259.23143137 198.53927483 253.08682184 197.41962243 246.625 195.375 C245.77357422 195.11211182 244.92214844 194.84922363 244.04492188 194.57836914 C228.37424286 189.67912622 212.58369331 184.53042399 197.97705078 176.95556641 C195.75956016 175.84182414 195.75956016 175.84182414 192.3359375 174.67578125 C187.63560889 172.93860911 183.28545742 170.67813777 178.875 168.3125 C178.03880127 167.86680664 177.20260254 167.42111328 176.34106445 166.96191406 C173.88956454 165.64937392 171.44356399 164.32724653 169 163 C168.37818848 162.66339355 167.75637695 162.32678711 167.11572266 161.97998047 C149.61813346 152.43997735 132.96328079 141.34833039 116.98046875 129.46777344 C115.06915076 128.0512493 113.14611048 126.65239839 111.21875 125.2578125 C110.10377642 124.44324223 108.98916598 123.62817455 107.875 122.8125 C106.92367187 122.11769531 105.97234375 121.42289063 104.9921875 120.70703125 C104.33476562 120.14371094 103.67734375 119.58039063 103 119 C103 118.34 103 117.68 103 117 C102.01 116.7215625 102.01 116.7215625 101 116.4375 C96.73094732 114.39191226 93.25836294 111.42815357 90 108 C90 107.34 90 106.68 90 106 C89.44183594 105.75894531 88.88367188 105.51789063 88.30859375 105.26953125 C78.8267055 100.0552949 70.76648072 89.86380819 63.1875 82.3125 C62.29232666 81.42199951 61.39715332 80.53149902 60.47485352 79.61401367 C46.62690704 65.73250893 46.62690704 65.73250893 44 60 C43.34 60 42.68 60 42 60 C40.46325636 58.11318735 39.03338931 56.22910917 37.625 54.25 C34.93940368 50.53148202 32.27920368 47.1992231 29 44 C26.58306081 41.06435697 24.30511322 38.02391196 22 35 C21.41089844 34.25492188 20.82179688 33.50984375 20.21484375 32.7421875 C19.66957031 32.04351563 19.12429687 31.34484375 18.5625 30.625 C18.06878906 29.99851562 17.57507813 29.37203125 17.06640625 28.7265625 C16 27 16 27 16 24 C15.01 23.67 14.02 23.34 13 23 C11.8125 19.9375 11.8125 19.9375 11 17 C10.34 17 9.68 17 9 17 C7.3595846 14.75849376 5.85337913 12.5321169 4.375 10.1875 C3.95476562 9.54490234 3.53453125 8.90230469 3.1015625 8.24023438 C0 3.38145546 0 3.38145546 0 0 Z " fill="#6D6D6D" transform="translate(84,686)"/>
<path d="M0 0 C-18.01658127 9.92750397 -39.71772253 13.75096235 -59.72949219 17.55908203 C-62.95348675 18.18516097 -66.16229713 18.88112456 -69.375 19.5625 C-124.44877316 30.44711253 -185.14232808 29.66482091 -240 18 C-243.6441696 17.26246482 -247.29087571 16.53778658 -250.9375 15.8125 C-252.67582332 15.46505415 -254.41410823 15.11741605 -256.15234375 14.76953125 C-257.42207031 14.51558594 -258.69179688 14.26164063 -260 14 C-260 13.34 -260 12.68 -260 12 C-257.49912855 12.28529359 -254.99949567 12.5780741 -252.5 12.875 C-251.80390625 12.95363281 -251.1078125 13.03226563 -250.390625 13.11328125 C-246.23772476 13.61316739 -242.31366219 14.40401489 -238.26025391 15.46923828 C-217.36096679 20.37689114 -195.26489543 21.66164757 -173.875 22.625 C-172.99497314 22.66520264 -172.11494629 22.70540527 -171.20825195 22.74682617 C-154.58450015 23.38786793 -137.9828488 23.01918616 -121.3737793 22.20043945 C-118.51182784 22.0600137 -115.64954513 21.92897189 -112.78710938 21.79882812 C-110.94268258 21.71147962 -109.0982804 21.62360935 -107.25390625 21.53515625 C-106.4101796 21.49656998 -105.56645294 21.4579837 -104.69715881 21.41822815 C-100.38977786 21.20104905 -96.24739964 20.79540855 -92 20 C-90.08524195 19.7069467 -88.1698518 19.41799887 -86.25390625 19.1328125 C-70.00437947 16.69252757 -54.07738726 14.01302449 -38.22412109 9.61083984 C-35.67015255 8.90940963 -33.11083639 8.2296542 -30.55078125 7.55078125 C-17.55277023 4.13527344 -17.55277023 4.13527344 -4.92578125 -0.43359375 C-3 -1 -3 -1 0 0 Z " fill="#6C6C6C" transform="translate(611,873)"/>
<path d="M0 0 C1.15987427 0.00343414 2.31974854 0.00686829 3.51477051 0.01040649 C37.31761042 0.12755541 70.80871289 2.67883656 103.625 11.25 C106.80884535 12.01575186 109.99810246 12.75776541 113.1875 13.5 C114.62639776 13.83813476 116.06520961 14.17663552 117.50390625 14.515625 C119.04884766 14.87914062 119.04884766 14.87914062 120.625 15.25 C120.295 15.91 119.965 16.57 119.625 17.25 C103.525 15.15 103.525 15.15 101.625 13.25 C98.38016385 12.79995862 95.13611899 12.43280726 91.87890625 12.08789062 C87.27181406 11.56222055 83.09151471 10.5424383 78.625 9.25 C64.65905038 6.29497051 50.75697571 4.68940611 36.50341797 4.33105469 C33.30415252 4.24096511 30.10784081 4.11144007 26.91015625 3.9765625 C6.73130607 3.1343124 -13.20750455 3.11464939 -33.375 4.25 C-34.95692139 4.33870361 -34.95692139 4.33870361 -36.57080078 4.42919922 C-54.4138161 5.4841571 -71.78052293 7.83235625 -89.21606445 11.77246094 C-92.69372498 12.54169129 -96.18775796 13.21479842 -99.6875 13.875 C-100.37650391 14.0090625 -101.06550781 14.143125 -101.77539062 14.28125 C-105.06570718 14.90314204 -108.00939232 15.25 -111.375 15.25 C-111.375 14.59 -111.375 13.93 -111.375 13.25 C-104.74464413 11.51430475 -98.13776985 9.94165976 -91.3828125 8.77734375 C-87.9122142 8.16886223 -84.45841981 7.4867172 -81 6.8125 C-54.1462007 1.74665572 -27.30611862 -0.13330274 0 0 Z " fill="#737373" transform="translate(459.375,20.75)"/>
<path d="M0 0 C4.2577632 0.48429534 6.67641212 3.16074232 9.625 6 C10.69344537 7.00711021 11.76246458 8.01361195 12.83203125 9.01953125 C13.36393066 9.52307129 13.89583008 10.02661133 14.44384766 10.54541016 C16.68868769 12.64374039 19.00295662 14.66090221 21.3125 16.6875 C25.58018194 20.51817131 29.34067113 24.59258173 33 29 C34.0392406 30.23121855 35.08082578 31.46046278 36.125 32.6875 C36.60710938 33.2546875 37.08921875 33.821875 37.5859375 34.40625 C38.90717388 35.8953783 40.32622615 37.29608464 41.75 38.6875 C43.80206799 40.79656988 44.71392793 42.42785586 46 45 C46.99 45.33 47.98 45.66 49 46 C50.8671875 48.328125 50.8671875 48.328125 52.875 51.25 C55.67691369 55.22278638 58.51432354 58.60605187 62 62 C64.10794137 64.58847511 66.04546666 67.29469097 68 70 C68.85658486 71.16289743 69.7133716 72.32564616 70.5703125 73.48828125 C71.48498937 74.74173941 72.39904886 75.99564831 73.3125 77.25 C73.75746826 77.85255615 74.20243652 78.4551123 74.66088867 79.07592773 C76.81017351 82.05323275 78.1483447 84.45846312 79 88 C80.485 88.495 80.485 88.495 82 89 C83.54296875 91.265625 83.54296875 91.265625 85.1875 94.25 C85.79464844 95.32894531 86.40179687 96.40789062 87.02734375 97.51953125 C87.34687012 98.08881348 87.66639648 98.6580957 87.99560547 99.24462891 C89.67790486 102.18476809 91.46338084 105.05995846 93.25 107.9375 C94.50149271 109.95740924 95.75161925 111.97816596 97 114 C97.57234375 114.88816406 98.1446875 115.77632813 98.734375 116.69140625 C100 119 100 119 100 122 C100.66 122 101.32 122 102 122 C104.33333333 126.66666667 106.66666667 131.33333333 109 136 C109.63808594 137.09054687 109.63808594 137.09054687 110.2890625 138.203125 C111.19843985 140.50155126 110.67068591 141.67455451 110 144 C109.71801758 143.46109131 109.43603516 142.92218262 109.14550781 142.36694336 C107.84835042 139.88975519 106.54918916 137.41362315 105.25 134.9375 C104.8065625 134.08994141 104.363125 133.24238281 103.90625 132.36914062 C100.43317522 125.75497615 96.79535048 119.27388799 92.9375 112.875 C92.45152344 112.06804687 91.96554687 111.26109375 91.46484375 110.4296875 C90.98144531 109.62789063 90.49804688 108.82609375 90 108 C89.4946875 107.1440625 88.989375 106.288125 88.46875 105.40625 C87.24155 103.39573084 85.96657497 101.51244504 84.5625 99.625 C82.573497 96.88498701 80.93761063 94.07025445 79.3125 91.09765625 C76.79646256 87.07648926 73.75882097 83.39669504 70.828125 79.671875 C69 77 69 77 69 74 C67.515 73.505 67.515 73.505 66 73 C65.33333333 71.33333333 64.66666667 69.66666667 64 68 C63.01 67.67 62.02 67.34 61 67 C60.67 66.01 60.34 65.02 60 64 C58.69194973 62.64185419 57.35516691 61.31113622 56 60 C54.76588214 58.52114147 53.55718363 57.02069435 52.375 55.5 C51.78460937 54.7471875 51.19421875 53.994375 50.5859375 53.21875 C49 51 49 51 47.9765625 48.78125 C47.06781944 46.64491512 47.06781944 46.64491512 44 46 C43.33333333 44.33333333 42.66666667 42.66666667 42 41 C41.01 40.67 40.02 40.34 39 40 C37.24609375 38.1875 37.24609375 38.1875 35.4375 36 C33.07789673 33.05040821 33.07789673 33.05040821 30 31 C29.67 30.01 29.34 29.02 29 28 C28.01 27.34 27.02 26.68 26 26 C26 25.34 26 24.68 26 24 C25.34 24 24.68 24 24 24 C24 23.34 24 22.68 24 22 C23.38125 21.7525 22.7625 21.505 22.125 21.25 C19.59641373 19.76259631 19.28160996 18.56321991 18 16 C16.68596724 15.29605388 15.3479743 14.63654342 14 14 C10.04012365 10.94759532 7.05872436 7.97634166 4 4 C2.68505488 2.64852862 1.35735142 1.30887458 0 0 Z " fill="#6D6D6D" transform="translate(746,129)"/>
<path d="M0 0 C-2.71465416 2.71465416 -5.96384991 4.08570789 -9.375 5.75 C-10.82560618 6.46467055 -12.27612618 7.17951603 -13.7265625 7.89453125 C-14.4474707 8.24854004 -15.16837891 8.60254883 -15.91113281 8.96728516 C-17.81002032 9.90607596 -19.69994254 10.85985022 -21.5859375 11.82421875 C-22.63007813 12.35660156 -23.67421875 12.88898438 -24.75 13.4375 C-25.67296875 13.91058594 -26.5959375 14.38367188 -27.546875 14.87109375 C-29.71464425 15.86868183 -31.66982828 16.5263436 -34 17 C-34 17.66 -34 18.32 -34 19 C-34.99966797 19.52787109 -34.99966797 19.52787109 -36.01953125 20.06640625 C-41.92415517 23.2293027 -47.63345528 26.57932846 -53.25390625 30.22265625 C-55.06312195 31.39362801 -56.88334037 32.54779813 -58.71484375 33.68359375 C-66.581192 38.57043563 -73.97399456 44.00746141 -81.22265625 49.765625 C-83 51 -83 51 -85 51 C-85 51.66 -85 52.32 -85 53 C-86.84227593 54.53625003 -88.69169565 55.96102509 -90.625 57.375 C-98.03518754 62.93187101 -105.03811804 68.89575672 -112 75 C-112.88558594 75.77214844 -113.77117187 76.54429687 -114.68359375 77.33984375 C-118.29576862 80.53589607 -121.80827915 83.77033326 -125.140625 87.2578125 C-125.67800293 87.81533203 -126.21538086 88.37285156 -126.76904297 88.94726562 C-127.82151867 90.04678114 -128.86274587 91.15720065 -129.89111328 92.27929688 C-131.3359375 93.7890625 -131.3359375 93.7890625 -134 96 C-136.16650391 95.63818359 -136.16650391 95.63818359 -138 95 C-135.44038523 92.58026226 -132.87679983 90.16477147 -130.3125 87.75 C-129.59126953 87.06808594 -128.87003906 86.38617188 -128.12695312 85.68359375 C-124.52284881 82.2934317 -120.89552259 79.05670568 -117 76 C-116.154375 75.13375 -115.30875 74.2675 -114.4375 73.375 C-112.25677004 71.25018619 -110.65010739 70.3250537 -108 69 C-107.505 67.515 -107.505 67.515 -107 66 C-104.63671875 64.09765625 -104.63671875 64.09765625 -101.6875 62.0625 C-98.11325023 59.58581692 -95.03321886 57.10765368 -92 54 C-89.06435697 51.58306081 -86.02391196 49.30511322 -83 47 C-82.25492188 46.41089844 -81.50984375 45.82179687 -80.7421875 45.21484375 C-80.04351562 44.66957031 -79.34484375 44.12429687 -78.625 43.5625 C-77.68527344 42.82193359 -77.68527344 42.82193359 -76.7265625 42.06640625 C-75 41 -75 41 -72 41 C-71.67 40.01 -71.34 39.02 -71 38 C-69 37.33333333 -67 36.66666667 -65 36 C-64.67 35.01 -64.34 34.02 -64 33 C-62.3867339 32.0080309 -60.76338632 31.02895966 -59.09472656 30.13330078 C-56.86667072 28.92786544 -54.71353551 27.6337857 -52.5546875 26.30859375 C-51.78769531 25.83873047 -51.02070313 25.36886719 -50.23046875 24.88476562 C-49.45316406 24.40716797 -48.67585938 23.92957031 -47.875 23.4375 C-45.57640767 22.02777219 -43.27768058 20.6183578 -40.97558594 19.21435547 C-39.34970466 18.21495687 -37.7390356 17.19085254 -36.1328125 16.16015625 C-34 15 -34 15 -31 15 C-31 14.34 -31 13.68 -31 13 C-30.12859375 12.56429687 -29.2571875 12.12859375 -28.359375 11.6796875 C-27.78888428 11.39424072 -27.21839355 11.10879395 -26.63061523 10.81469727 C-25.36775497 10.18367699 -24.10423525 9.55397493 -22.84008789 8.92553711 C-19.73427024 7.37944869 -16.64547412 5.81364147 -13.57421875 4.19921875 C-12.53910156 3.65910156 -11.50398438 3.11898437 -10.4375 2.5625 C-9.04337891 1.82193359 -9.04337891 1.82193359 -7.62109375 1.06640625 C-4.86021792 -0.0568711 -2.94890492 -0.2186349 0 0 Z " fill="#6F6F6F" transform="translate(282,59)"/>
<path d="M0 0 C0.33 0 0.66 0 1 0 C0.62100951 8.72675471 0.21282411 17.42854973 -0.7355957 26.11450195 C-4.06806538 56.96830935 -2.92794709 88.04738835 -2 119 C-3.94005198 116.08992204 -4.29676521 115.19380353 -4.62402344 111.90649414 C-4.70670471 111.08523544 -4.78938599 110.26397675 -4.87457275 109.41783142 C-4.9520575 108.52842361 -5.02954224 107.63901581 -5.109375 106.72265625 C-5.19346619 105.79099136 -5.27755737 104.85932648 -5.36419678 103.89942932 C-6.2368707 93.41414815 -6.3085104 82.95254515 -6.25 72.4375 C-6.24689819 71.43897003 -6.24379639 70.44044006 -6.24060059 69.41165161 C-6.15531636 45.9048342 -5.13177159 23.01823761 0 0 Z " fill="#707070" transform="translate(27,388)"/>
<path d="M0 0 C0.66 0 1.32 0 2 0 C2 0.66 2 1.32 2 2 C1.34 2 0.68 2 0 2 C-0.268125 2.5775 -0.53625 3.155 -0.8125 3.75 C-2.02929189 6.05550043 -3.30333879 8.02056192 -5 10 C-5.66 10 -6.32 10 -7 10 C-7.23460937 10.55429688 -7.46921875 11.10859375 -7.7109375 11.6796875 C-9.32454292 14.58417725 -11.34723795 16.70620005 -13.625 19.125 C-19.30629358 25.2742614 -24.86650699 31.54732899 -29.375 38.625 C-29.91125 39.40875 -30.4475 40.1925 -31 41 C-31.66 41 -32.32 41 -33 41 C-33.22816406 41.51046875 -33.45632812 42.0209375 -33.69140625 42.546875 C-35.51236654 45.96049608 -37.72878385 49.08078924 -39.9375 52.25 C-40.92195244 53.67182138 -41.90632494 55.09369812 -42.890625 56.515625 C-43.65342773 57.61487305 -43.65342773 57.61487305 -44.43164062 58.73632812 C-47.02777537 62.48342672 -49.60688237 66.24220641 -52.1875 70 C-53.11841023 71.35422122 -54.0493924 72.70839299 -54.98046875 74.0625 C-55.64691406 75.031875 -56.31335938 76.00125 -57 77 C-57.66 76.34 -58.32 75.68 -59 75 C-57.55008333 72.66103978 -56.09074592 70.32900732 -54.625 68 C-54.2125 67.33226562 -53.8 66.66453125 -53.375 65.9765625 C-52.30339045 64.28272806 -51.15669501 62.63691136 -50 61 C-49.34 61 -48.68 61 -48 61 C-47.731875 60.030625 -47.46375 59.06125 -47.1875 58.0625 C-46.795625 57.051875 -46.40375 56.04125 -46 55 C-44.515 54.505 -44.515 54.505 -43 54 C-42.63837971 52.67405895 -42.30973583 51.3390118 -42 50 C-40.6171875 47.9921875 -40.6171875 47.9921875 -38.875 45.875 C-36.22480082 42.58397397 -33.75251045 39.24327194 -31.375 35.75 C-28.85547935 32.10258703 -26.17984296 29.09830853 -23 26 C-21.39992985 23.88647451 -19.85299266 21.74530087 -18.33203125 19.57421875 C-17.89246094 19.05472656 -17.45289063 18.53523438 -17 18 C-16.34 18 -15.68 18 -15 18 C-14.7834375 17.46632812 -14.566875 16.93265625 -14.34375 16.3828125 C-12.51180423 13.13430401 -10.04026612 10.572802 -7.5 7.875 C-7.00113281 7.33746094 -6.50226563 6.79992187 -5.98828125 6.24609375 C-4.02214504 4.13236554 -2.04136111 2.04136111 0 0 Z " fill="#6A6A6A" transform="translate(143,156)"/>
<path d="M0 0 C9.01985099 3.29571478 17.47563998 7.61668867 26 12 C26.60972656 12.30921387 27.21945312 12.61842773 27.84765625 12.93701172 C38.81392532 18.50751488 49.22188124 24.93346482 59.61279297 31.50537109 C61.2002471 32.49927518 62.79836041 33.47635991 64.40673828 34.43603516 C65.14005371 34.87608887 65.87336914 35.31614258 66.62890625 35.76953125 C67.28060791 36.15343018 67.93230957 36.5373291 68.60375977 36.93286133 C69.06451904 37.28501709 69.52527832 37.63717285 70 38 C70 38.66 70 39.32 70 40 C70.94875 40.2475 71.8975 40.495 72.875 40.75 C76 42 76 42 77.375 44.125 C77.684375 45.053125 77.684375 45.053125 78 46 C74.9168649 44.80100302 71.93720508 43.52299523 69 42 C69 41.34 69 40.68 69 40 C68.01 40 67.02 40 66 40 C65.67 39.34 65.34 38.68 65 38 C62.98330173 36.86649466 62.98330173 36.86649466 61 36 C61 35.34 61 34.68 61 34 C60.29875 33.9175 59.5975 33.835 58.875 33.75 C56.06098956 33.01591032 54.27584525 31.9685571 51.92578125 30.3046875 C44.98997424 25.60578376 37.54278286 21.62633791 30 18 C30 17.34 30 16.68 30 16 C29.30132813 15.896875 28.60265625 15.79375 27.8828125 15.6875 C24.55652045 14.89423794 21.90485138 13.5794714 18.875 12 C15.90932064 10.4616925 13.17032944 9.05677648 10 8 C10 7.34 10 6.68 10 6 C8.9171875 5.8453125 8.9171875 5.8453125 7.8125 5.6875 C4.72206579 4.93206053 2.58256159 3.84468685 0 2 C0 1.34 0 0.68 0 0 Z " fill="#717171" transform="translate(633,55)"/>
<path d="M0 0 C4.4504451 1.35985822 8.74614933 2.7702817 12.875 4.9375 C16.85197216 7.01727386 20.95493631 8.50594378 25.19140625 9.97265625 C27.23283228 10.71938093 29.24621413 11.54418518 31.23828125 12.4140625 C35.61202884 14.3110739 40.10217345 15.81336324 44.625 17.3125 C45.52710205 17.61373779 46.4292041 17.91497559 47.35864258 18.2253418 C54.9811292 20.73718533 62.67116926 22.96684084 70.42236328 25.04614258 C71.67315674 25.38875122 71.67315674 25.38875122 72.94921875 25.73828125 C73.68487061 25.93462158 74.42052246 26.13096191 75.1784668 26.33325195 C77 27 77 27 79 29 C72.23143137 28.53927483 66.08682184 27.41962243 59.625 25.375 C58.77357422 25.11211182 57.92214844 24.84922363 57.04492188 24.57836914 C41.34795615 19.67090801 25.49925127 14.53026953 10.88671875 6.90234375 C8.81964856 5.91374496 6.72987759 5.17786084 4.5625 4.4375 C3.386875 3.963125 2.21125 3.48875 1 3 C0.67 2.01 0.34 1.02 0 0 Z " fill="#666666" transform="translate(271,856)"/>
<path d="M0 0 C9.2940094 -0.53164884 17.9640178 1.07092958 27 3 C27.93650391 3.19819336 28.87300781 3.39638672 29.83789062 3.60058594 C39.25863273 5.60104733 48.66880342 7.61218201 58 10 C57.67 10.66 57.34 11.32 57 12 C40.9 9.9 40.9 9.9 39 8 C35.75516385 7.54995862 32.51111899 7.18280726 29.25390625 6.83789062 C24.65138173 6.31274172 20.45619214 5.31648932 16 4 C13.19872977 3.39432899 10.383303 2.88083475 7.5625 2.375 C6.46518555 2.17390625 6.46518555 2.17390625 5.34570312 1.96875 C3.56436303 1.64275312 1.78225902 1.320935 0 1 C0 0.67 0 0.34 0 0 Z " fill="#6F6F6F" transform="translate(522,26)"/>
<path d="M0 0 C0.99 0.495 0.99 0.495 2 1 C2.59082031 3.07519531 2.59082031 3.07519531 3.078125 5.828125 C3.26673096 6.84624268 3.45533691 7.86436035 3.6496582 8.91333008 C3.847771 10.01443115 4.04588379 11.11553223 4.25 12.25 C6.05086999 21.82544162 8.26573619 31.13267471 11.12011719 40.44824219 C11.36536133 41.25551758 11.61060547 42.06279297 11.86328125 42.89453125 C12.08282471 43.59425049 12.30236816 44.29396973 12.52856445 45.01489258 C13 47 13 47 13 51 C12.34 51 11.68 51 11 51 C10.20624138 48.33394051 9.41494929 45.66718833 8.625 43 C8.40328125 42.25621094 8.1815625 41.51242187 7.953125 40.74609375 C5.52374967 32.52908895 3.57466225 24.27259052 1.875 15.875 C1.60236328 14.57369141 1.60236328 14.57369141 1.32421875 13.24609375 C0.41547233 8.75702309 -0.22662184 4.60797739 0 0 Z " fill="#6A6A6A" transform="translate(30,546)"/>
<path d="M0 0 C0.33 0 0.66 0 1 0 C1.5639259 6.77666892 -0.47435958 12.33606314 -2.6875 18.6875 C-3.05037109 19.75226562 -3.41324219 20.81703125 -3.78710938 21.9140625 C-6.251201 29.06561794 -8.85903163 36.11403089 -12 43 C-12.66 43 -13.32 43 -14 43 C-13.37577645 38.10517384 -11.91785982 33.75464882 -10.125 29.1875 C-9.57824534 27.763474 -9.03266234 26.33899756 -8.48828125 24.9140625 C-8.22869629 24.23633789 -7.96911133 23.55861328 -7.70166016 22.86035156 C-6.35056588 19.27811831 -5.1723913 15.64353943 -4 12 C-3.45989909 10.37447892 -2.91822592 8.74947942 -2.375 7.125 C-2.13523437 6.40570312 -1.89546875 5.68640625 -1.6484375 4.9453125 C-1.09895833 3.296875 -0.54947917 1.6484375 0 0 Z " fill="#6E6E6E" transform="translate(881,580)"/>
<path d="M0 0 C0 3.52762534 -0.86867291 4.94749825 -2.5625 8.015625 C-3.1088208 9.01335937 -3.6551416 10.01109375 -4.21801758 11.0390625 C-4.80607178 12.09867188 -5.39412598 13.15828125 -6 14.25 C-7.19178153 16.42166909 -8.38318789 18.59354412 -9.57421875 20.765625 C-10.15864746 21.82716797 -10.74307617 22.88871094 -11.34521484 23.98242188 C-13.53278225 27.97155336 -15.67968714 31.98139498 -17.8125 36 C-18.14314453 36.62165039 -18.47378906 37.24330078 -18.81445312 37.88378906 C-19.5437643 39.25543667 -20.2720327 40.62763869 -21 42 C-21.88548802 39.55608075 -22.12687769 38.3583493 -21.24658203 35.87207031 C-20.63339111 34.73656738 -20.63339111 34.73656738 -20.0078125 33.578125 C-19.55398193 32.72444336 -19.10015137 31.87076172 -18.63256836 30.99121094 C-18.1350708 30.08661133 -17.63757324 29.18201172 -17.125 28.25 C-16.62556885 27.32219727 -16.1261377 26.39439453 -15.61157227 25.43847656 C-14.08747965 22.61828804 -12.54540364 19.80855544 -11 17 C-10.5457666 16.1646875 -10.0915332 15.329375 -9.62353516 14.46875 C-8.40312621 12.22448946 -7.17342567 9.98574656 -5.9375 7.75 C-5.56834473 7.07743164 -5.19918945 6.40486328 -4.81884766 5.71191406 C-2.23618527 1.11809263 -2.23618527 1.11809263 0 0 Z " fill="#6C6C6C" transform="translate(83,235)"/>
<path d="M0 0 C2.50087145 0.28529359 5.00050433 0.5780741 7.5 0.875 C8.19609375 0.95363281 8.8921875 1.03226563 9.609375 1.11328125 C13.76560756 1.6135685 17.70739126 2.39043037 21.76367188 3.46044922 C26.45887478 4.59324381 31.23970939 5.32069558 36 6.125 C37.06089844 6.30675781 38.12179687 6.48851562 39.21484375 6.67578125 C41.80944537 7.11990225 44.40448725 7.56124083 47 8 C45 10 45 10 43.02319336 10.01513672 C42.22018799 9.90443848 41.41718262 9.79374023 40.58984375 9.6796875 C39.69007813 9.55835449 38.7903125 9.43702148 37.86328125 9.31201172 C36.89777344 9.16779785 35.93226563 9.02358398 34.9375 8.875 C33.95265625 8.73465332 32.9678125 8.59430664 31.953125 8.44970703 C24.37011161 7.32034815 16.95589055 5.76312082 9.53125 3.8671875 C6.36081176 3.08860643 3.22624551 2.48791985 0 2 C0 1.34 0 0.68 0 0 Z " fill="#656565" transform="translate(351,885)"/>
<path d="M0 0 C0.66 0 1.32 0 2 0 C3.21463545 8.15961701 2.76864321 15.93198438 2.0625 24.125 C1.96259766 25.36765625 1.86269531 26.6103125 1.75976562 27.890625 C1.51445314 30.92782715 1.26103113 33.96411535 1 37 C0.01 36.34 -0.98 35.68 -2 35 C-2.12369483 32.28948649 -2.06638369 29.83781361 -1.85546875 27.1484375 C-1.80683182 26.37440582 -1.75819489 25.60037415 -1.70808411 24.80288696 C-1.5490694 22.32571863 -1.36854542 19.85064631 -1.1875 17.375 C-1.07605653 15.69801026 -0.96601253 14.02092689 -0.85742188 12.34375 C-0.58785432 8.22790358 -0.29898526 4.11380983 0 0 Z " fill="#6E6E6E" transform="translate(896,476)"/>
<path d="M0 0 C0.33 0.66 0.66 1.32 1 2 C0.1796875 4.36328125 0.1796875 4.36328125 -1.125 7.3125 C-3.01314079 11.67817358 -4.81512981 16.05172806 -6.5 20.5 C-8.8702052 26.7227292 -11.40380304 32.86855613 -14 39 C-15.01234591 35.87754694 -14.98382635 34.08202133 -13.92578125 30.98828125 C-13.6723999 30.23466309 -13.41901855 29.48104492 -13.15795898 28.70458984 C-12.73945679 27.52050537 -12.73945679 27.52050537 -12.3125 26.3125 C-12.032854 25.50248535 -11.75320801 24.6924707 -11.46508789 23.85791016 C-8.46444754 15.27848065 -5.04282076 7.58489844 0 0 Z " fill="#6A6A6A" transform="translate(60,278)"/>
<path d="M0 0 C4.31288807 1.47230316 7.71781434 3.76576765 11.3125 6.5 C11.86228516 6.90347656 12.41207031 7.30695313 12.97851562 7.72265625 C14.36007451 8.76268691 15.68556298 9.87633454 17 11 C17 11.66 17 12.32 17 13 C17.57234375 13.26554687 18.1446875 13.53109375 18.734375 13.8046875 C21.1076012 15.05676891 23.12213286 16.4936352 25.25 18.125 C25.95640625 18.66382812 26.6628125 19.20265625 27.390625 19.7578125 C27.92171875 20.16773437 28.4528125 20.57765625 29 21 C28.67 21.99 28.34 22.98 28 24 C26.82780457 23.21654285 25.66236332 22.42297164 24.5 21.625 C23.8503125 21.18414062 23.200625 20.74328125 22.53125 20.2890625 C22.0259375 19.86367187 21.520625 19.43828125 21 19 C21 18.34 21 17.68 21 17 C20.41951904 16.72599365 19.83903809 16.4519873 19.2409668 16.16967773 C15.48108677 14.20719977 12.20249516 11.59670972 8.8125 9.0625 C8.07580078 8.52431641 7.33910156 7.98613281 6.58007812 7.43164062 C5.87947266 6.90892578 5.17886719 6.38621094 4.45703125 5.84765625 C3.81741455 5.37336182 3.17779785 4.89906738 2.51879883 4.41040039 C1 3 1 3 0 0 Z " fill="#6C6C6C" transform="translate(716,104)"/>
<path d="M0 0 C0.33 0 0.66 0 1 0 C1.85227905 3.76680138 2.67821222 7.53893935 3.5 11.3125 C3.73847656 12.36501953 3.97695313 13.41753906 4.22265625 14.50195312 C5.7171049 21.44046473 6.31801829 27.90730877 6 35 C3.89317245 31.83975868 3.41547108 29.88341745 2.7109375 26.1953125 C2.49179687 25.05449219 2.27265625 23.91367187 2.046875 22.73828125 C1.82515625 21.54589844 1.6034375 20.35351562 1.375 19.125 C1.14554688 17.94035156 0.91609375 16.75570313 0.6796875 15.53515625 C-1.25138533 5.33955146 -1.25138533 5.33955146 -1 1 C-0.67 0.67 -0.34 0.34 0 0 Z " fill="#6F6F6F" transform="translate(886,351)"/>
<path d="M0 0 C0.66 0 1.32 0 2 0 C0.71027212 10.09545618 -2.65641048 19.4423809 -6 29 C-6.33 29 -6.66 29 -7 29 C-7.52382822 22.33054426 -5.61559838 16.8398643 -3.5 10.5625 C-3.16613281 9.54478516 -2.83226562 8.52707031 -2.48828125 7.47851562 C-1.66799202 4.98249267 -0.83838507 2.48999091 0 0 Z " fill="#6B6B6B" transform="translate(43,318)"/>
<path d="M0 0 C2.42138965 2.18130853 3.68552122 4.12669889 4.9375 7.125 C6.29815123 10.34346348 7.70896034 13.5214966 9.1875 16.6875 C10.71742627 20.1073352 11.61483477 23.24463901 12 27 C11.34 27 10.68 27 10 27 C9.7326001 26.36908447 9.4652002 25.73816895 9.18969727 25.08813477 C7.98313 22.2451885 6.77286648 19.40383072 5.5625 16.5625 C5.14162109 15.56927734 4.72074219 14.57605469 4.28710938 13.55273438 C3.88427734 12.60849609 3.48144531 11.66425781 3.06640625 10.69140625 C2.69459229 9.81685791 2.32277832 8.94230957 1.93969727 8.04125977 C1.16626808 6.05072685 1.16626808 6.05072685 0 5 C-0.04063832 3.33382885 -0.042721 1.66611905 0 0 Z " fill="#6E6E6E" transform="translate(51,620)"/>
<path d="M0 0 C4.7488294 -0.26461851 8.10357301 0.53822768 12.5 2.3125 C14.12421875 2.95638672 14.12421875 2.95638672 15.78125 3.61328125 C18.91937551 4.96526493 21.96101479 6.43931633 25 8 C25 8.66 25 9.32 25 10 C16.02562658 8.55768999 8.1988288 4.76240733 0 1 C0 0.67 0 0.34 0 0 Z " fill="#707070" transform="translate(606,46)"/>
<path d="M0 0 C8.30877685 3.08228819 16.12771961 6.96176971 24 11 C23.34 11.66 22.68 12.32 22 13 C18.04 11.35 14.08 9.7 10 8 C10 7.34 10 6.68 10 6 C8.9171875 5.8453125 8.9171875 5.8453125 7.8125 5.6875 C4.72206579 4.93206053 2.58256159 3.84468685 0 2 C0 1.34 0 0.68 0 0 Z " fill="#696969" transform="translate(633,55)"/>
<path d="M0 0 C1.90030766 2.8504615 2.34945176 4.00405608 2.8515625 7.23828125 C2.98046875 8.05876953 3.109375 8.87925781 3.2421875 9.72460938 C3.36851563 10.57861328 3.49484375 11.43261719 3.625 12.3125 C3.7590625 13.15490234 3.893125 13.99730469 4.03125 14.86523438 C4.70870915 19.28600096 5.16104299 23.51275664 5 28 C4.34 28 3.68 28 3 28 C1.61597243 21.87494183 0.6225832 15.72322985 -0.1875 9.5 C-0.28337402 8.79359375 -0.37924805 8.0871875 -0.47802734 7.359375 C-1.11935175 2.23870351 -1.11935175 2.23870351 0 0 Z " fill="#6C6C6C" transform="translate(25,515)"/>
<path d="M0 0 C0 0.66 0 1.32 0 2 C-0.66 2 -1.32 2 -2 2 C-2.268125 2.5775 -2.53625 3.155 -2.8125 3.75 C-4.02929189 6.05550043 -5.30333879 8.02056192 -7 10 C-7.66 10 -8.32 10 -9 10 C-9.26554688 10.58265625 -9.53109375 11.1653125 -9.8046875 11.765625 C-11.03302996 14.06174228 -12.40314939 15.80356018 -14.125 17.75 C-14.93324219 18.67039063 -14.93324219 18.67039063 -15.7578125 19.609375 C-16.16773438 20.06828125 -16.57765625 20.5271875 -17 21 C-17.33 20.01 -17.66 19.02 -18 18 C-15.24569436 13.05053348 -11.07940228 8.87020217 -7 5 C-6.113125 4.071875 -5.22625 3.14375 -4.3125 2.1875 C-2 0 -2 0 0 0 Z " fill="#717171" transform="translate(145,156)"/>
<path d="M0 0 C2.30592263 2.12774712 3.79825935 4.17209077 5.26171875 6.94140625 C5.65810547 7.68970703 6.05449219 8.43800781 6.46289062 9.20898438 C6.86701172 9.98564453 7.27113281 10.76230469 7.6875 11.5625 C8.10322266 12.34302734 8.51894531 13.12355469 8.94726562 13.92773438 C12 19.73745382 12 19.73745382 12 22 C11.34 22 10.68 22 10 22 C10 21.34 10 20.68 10 20 C9.34 20 8.68 20 8 20 C6.87247351 17.77208002 5.74791861 15.54274113 4.625 13.3125 C4.14933594 12.37374023 4.14933594 12.37374023 3.6640625 11.41601562 C1.94527919 7.99635299 0.35530783 4.57992926 -1 1 C-0.67 0.67 -0.34 0.34 0 0 Z " fill="#6B6B6B" transform="translate(64,649)"/>
<path d="M0 0 C-5.58777294 5.58777294 -16.38842363 6.48396092 -24 7 C-24 6.34 -24 5.68 -24 5 C-21.31578673 4.1545785 -18.62843232 3.32352767 -15.9375 2.5 C-15.18533203 2.26152344 -14.43316406 2.02304687 -13.65820312 1.77734375 C-8.92167379 0.34203183 -4.94781834 -0.26283232 0 0 Z " fill="#727272" transform="translate(347,36)"/>
<path d="M0 0 C-0.33 0.99 -0.66 1.98 -1 3 C-3.60768262 4.18450668 -6.11819574 5.18682581 -8.8125 6.125 C-9.53759766 6.38925781 -10.26269531 6.65351562 -11.00976562 6.92578125 C-14.31654989 8.1177968 -17.57777889 9.18588661 -21 10 C-20 7 -20 7 -17.9609375 5.9375 C-16.68089844 5.4734375 -16.68089844 5.4734375 -15.375 5 C-12.22403947 3.8279689 -9.1238296 2.63972565 -6.0625 1.25 C-3 0 -3 0 0 0 Z " fill="#6D6D6D" transform="translate(304,49)"/>
<path d="M0 0 C2.70873873 0.79030017 5.41699416 1.58219566 8.125 2.375 C8.88554688 2.59671875 9.64609375 2.8184375 10.4296875 3.046875 C14.64987953 4.28382784 18.83764682 5.57708693 23 7 C23 7.66 23 8.32 23 9 C18.58529778 8.14134475 14.19443166 7.198715 9.8125 6.1875 C9.08869141 6.03474609 8.36488281 5.88199219 7.61914062 5.72460938 C2.33502917 4.48099989 2.33502917 4.48099989 0.51171875 1.86328125 C0.34285156 1.24839844 0.17398438 0.63351563 0 0 Z " fill="#6E6E6E" transform="translate(582,37)"/>
<path d="M0 0 C-8.98271694 1.79203512 -17.83808082 3.43708547 -27 4 C-27 3.34 -27 2.68 -27 2 C-23.06588676 1.2719061 -19.12741773 0.57093988 -15.1875 -0.125 C-14.06794922 -0.33253906 -12.94839844 -0.54007813 -11.79492188 -0.75390625 C-10.72177734 -0.94082031 -9.64863281 -1.12773437 -8.54296875 -1.3203125 C-7.55321045 -1.49836426 -6.56345215 -1.67641602 -5.54370117 -1.85986328 C-3 -2 -3 -2 0 0 Z " fill="#696969" transform="translate(404,26)"/>
<path d="M0 0 C0.33 0 0.66 0 1 0 C1.26305952 8.2425317 0.60614551 15.91191011 -1 24 C-1.99 23.67 -2.98 23.34 -4 23 C-3.52651786 19.54086334 -3.04525236 16.08285411 -2.5625 12.625 C-2.42779297 11.64015625 -2.29308594 10.6553125 -2.15429688 9.640625 C-2.02216797 8.69960938 -1.89003906 7.75859375 -1.75390625 6.7890625 C-1.63345947 5.91975098 -1.5130127 5.05043945 -1.38891602 4.15478516 C-1 2 -1 2 0 0 Z " fill="#6A6A6A" transform="translate(893,522)"/>
<path d="M0 0 C0.66 0 1.32 0 2 0 C2 5.28 2 10.56 2 16 C1.67 16 1.34 16 1 16 C0.67 18.64 0.34 21.28 0 24 C-0.33 24 -0.66 24 -1 24 C-1.02893932 20.37501666 -1.04677792 16.75006287 -1.0625 13.125 C-1.07087891 12.09246094 -1.07925781 11.05992187 -1.08789062 9.99609375 C-1.09111328 9.00996094 -1.09433594 8.02382813 -1.09765625 7.0078125 C-1.10289307 6.09660645 -1.10812988 5.18540039 -1.11352539 4.24658203 C-1 2 -1 2 0 0 Z " fill="#787878" transform="translate(22,435)"/>
<path d="M0 0 C2.07416667 3.11125001 2.32744094 4.2876968 2.6328125 7.88671875 C2.71660156 8.82451172 2.80039062 9.76230469 2.88671875 10.72851562 C2.96535156 11.70498047 3.04398438 12.68144531 3.125 13.6875 C3.21136719 14.67556641 3.29773438 15.66363281 3.38671875 16.68164062 C3.59879723 19.12054315 3.80291201 21.55984788 4 24 C3.34 24.33 2.68 24.66 2 25 C2 24.01 2 23.02 2 22 C1.34 21.34 0.68 20.68 0 20 C-0.22705078 17.93701172 -0.22705078 17.93701172 -0.1953125 15.4296875 C-0.18886719 14.53378906 -0.18242188 13.63789063 -0.17578125 12.71484375 C-0.15902344 11.77769531 -0.14226563 10.84054687 -0.125 9.875 C-0.11597656 8.93011719 -0.10695313 7.98523438 -0.09765625 7.01171875 C-0.07404522 4.67422708 -0.04111516 2.33723877 0 0 Z " fill="#707070" transform="translate(895,413)"/>
<path d="M0 0 C1.77550412 3.39337003 3.21726017 6.87698845 4.625 10.4375 C5.07101562 11.54996094 5.51703125 12.66242188 5.9765625 13.80859375 C6.93058584 16.78354438 7.21936287 18.9116017 7 22 C4.13042592 18.62403049 2.74490171 15.15055064 1.25 11 C0.80140625 9.783125 0.3528125 8.56625 -0.109375 7.3125 C-0.94239934 4.21423404 -1.19047957 2.90360871 0 0 Z " fill="#696969" transform="translate(868,295)"/>
<path d="M0 0 C0.33 0 0.66 0 1 0 C0.57477229 7.8667126 -0.02462968 15.36190145 -2 23 C-2.66 22.67 -3.32 22.34 -4 22 C-3.7161296 19.45724602 -3.42316578 16.91608446 -3.125 14.375 C-3.04636719 13.66214844 -2.96773437 12.94929687 -2.88671875 12.21484375 C-2.37424854 7.91797815 -1.53115573 4.078793 0 0 Z " fill="#707070" transform="translate(889,546)"/>
<path d="M0 0 C4.30510013 2.47613602 5.62347251 6.05519082 7.3125 10.5 C7.58900391 11.17675781 7.86550781 11.85351562 8.15039062 12.55078125 C10.13053784 17.60838648 10.13053784 17.60838648 9 21 C3.88409036 15.88409036 2.1653291 6.79125944 0 0 Z " fill="#707070" transform="translate(857,274)"/>
<path d="M0 0 C2.35153166 3.68995284 2.23576169 6.88343488 2.1875 11.1875 C2.18105469 11.85080322 2.17460938 12.51410645 2.16796875 13.19750977 C2.09013721 18.19271356 1.69379769 23.05669148 1 28 C0.67 28 0.34 28 0 28 C-0.19706355 24.08375299 -0.38099159 20.16699634 -0.5625 16.25 C-0.61857422 15.13882812 -0.67464844 14.02765625 -0.73242188 12.8828125 C-0.78076172 11.81289063 -0.82910156 10.74296875 -0.87890625 9.640625 C-0.9260376 8.65610352 -0.97316895 7.67158203 -1.02172852 6.65722656 C-1.00187518 4.2293192 -0.71119313 2.30838443 0 0 Z " fill="#727272" transform="translate(897,446)"/>
<path d="M0 0 C0.66 0 1.32 0 2 0 C2.94870788 6.85988773 2.94870788 13.14011227 2 20 C1.67 19.01 1.34 18.02 1 17 C0.34 16.67 -0.32 16.34 -1 16 C-0.67 10.72 -0.34 5.44 0 0 Z " fill="#747474" transform="translate(896,476)"/>
<path d="M0 0 C0.33 0 0.66 0 1 0 C0.54593375 7.95398808 -0.87111461 15.32797907 -3 23 C-3.33 23 -3.66 23 -4 23 C-4.67620721 14.67889465 -2.74493505 7.81816322 0 0 Z " fill="#6F6F6F" transform="translate(32,362)"/>
<path d="M0 0 C-2.78626782 2.00760786 -5.57986583 4.00475953 -8.375 6 C-9.1690625 6.57234375 -9.963125 7.1446875 -10.78125 7.734375 C-11.92207031 8.54648438 -11.92207031 8.54648438 -13.0859375 9.375 C-13.7876709 9.87773438 -14.4894043 10.38046875 -15.21240234 10.8984375 C-17 12 -17 12 -19 12 C-18.34 10.68 -17.68 9.36 -17 8 C-16.01 8 -15.02 8 -14 8 C-13.67 7.01 -13.34 6.02 -13 5 C-11 4.33333333 -9 3.66666667 -7 3 C-6.67 2.01 -6.34 1.02 -6 0 C-3 -1 -3 -1 0 0 Z " fill="#686868" transform="translate(224,92)"/>
<path d="M0 0 C0.66 0.66 1.32 1.32 2 2 C-3.60236281 4.67149708 -8.93139507 6.67594074 -15 8 C-15 7.34 -15 6.68 -15 6 C-10.05 4.02 -5.1 2.04 0 0 Z " fill="#6D6D6D" transform="translate(320,42)"/>
<path d="M0 0 C0.99 0.495 0.99 0.495 2 1 C2.88671875 4.0546875 2.88671875 4.0546875 3.6875 7.875 C3.95949219 9.13054688 4.23148438 10.38609375 4.51171875 11.6796875 C5 15 5 15 4 18 C3.34 17.67 2.68 17.34 2 17 C0.47749852 11.48328169 -0.30915555 5.71937774 0 0 Z " fill="#727272" transform="translate(30,546)"/>
<path d="M0 0 C4.67105792 1.55701931 8.08705685 4.08447373 12 7 C11.67 8.32 11.34 9.64 11 11 C9.16086305 9.5489926 7.3288247 8.08898341 5.5 6.625 C4.4790625 5.81289062 3.458125 5.00078125 2.40625 4.1640625 C1.6121875 3.44992188 0.818125 2.73578125 0 2 C0 1.34 0 0.68 0 0 Z " fill="#737373" transform="translate(716,104)"/>
<path d="M0 0 C3 3 3 3 3.09765625 5.94140625 C3.08605469 7.13636719 3.07445312 8.33132813 3.0625 9.5625 C3.05347656 10.76003906 3.04445313 11.95757812 3.03515625 13.19140625 C3.02355469 14.11824219 3.01195312 15.04507812 3 16 C1.51171875 14.91796875 1.51171875 14.91796875 0 13 C-0.29296875 9.86328125 -0.29296875 9.86328125 -0.1875 6.3125 C-0.16042969 5.13300781 -0.13335938 3.95351563 -0.10546875 2.73828125 C-0.07066406 1.83464844 -0.03585937 0.93101562 0 0 Z " fill="#7B7B7B" transform="translate(896,434)"/>
<path d="M0 0 C2.00993705 3.01490557 2.72623341 5.2149927 3.625 8.6875 C3.88539063 9.68136719 4.14578125 10.67523438 4.4140625 11.69921875 C4.60742188 12.45847656 4.80078125 13.21773438 5 14 C4.34 14.66 3.68 15.32 3 16 C2.32243118 14.44219668 1.65840543 12.87849904 1 11.3125 C0.62875 10.44238281 0.2575 9.57226562 -0.125 8.67578125 C-1.02480731 5.92413835 -1.24153265 3.87323215 -1 1 C-0.67 0.67 -0.34 0.34 0 0 Z " fill="#636363" transform="translate(879,327)"/>
<path d="M0 0 C5.9129304 0.64270983 11.34244531 2.19003784 17 4 C17 4.33 17 4.66 17 5 C10.7945858 4.51679152 5.00054754 3.66681876 -1 2 C-0.67 1.34 -0.34 0.68 0 0 Z " fill="#616161" transform="translate(333,880)"/>
<path d="M0 0 C5.52315952 0.38090755 10.66201374 1.57018225 16 3 C15.67 3.66 15.34 4.32 15 5 C9.27601207 4.25339288 3.65146223 3.17122859 -2 2 C-1.34 1.34 -0.68 0.68 0 0 Z " fill="#6C6C6C" transform="translate(564,33)"/>
<path d="M0 0 C3.25326479 3.16289633 6.36725392 6.29465367 9 10 C9 10.99 9 11.98 9 13 C8.34 13 7.68 13 7 13 C7 12.01 7 11.02 7 10 C6.01 9.67 5.02 9.34 4 9 C3.33333333 7.33333333 2.66666667 5.66666667 2 4 C1.01 3.67 0.02 3.34 -1 3 C-0.67 2.01 -0.34 1.02 0 0 Z " fill="#737373" transform="translate(808,193)"/>
<path d="M0 0 C5.28 0.66 10.56 1.32 16 2 C16 2.66 16 3.32 16 4 C10.36718401 4.2396943 5.45461169 3.38529821 0 2 C0 1.34 0 0.68 0 0 Z " fill="#6C6C6C" transform="translate(351,885)"/>
<path d="M0 0 C-3.37169992 2.83222793 -6.85888893 4.52103176 -11 6 C-13.4375 5.6875 -13.4375 5.6875 -15 5 C-12.03312999 3.35173889 -9.34373475 2.55728913 -6 2 C-6 1.34 -6 0.68 -6 0 C-3 -1 -3 -1 0 0 Z " fill="#707070" transform="translate(643,860)"/>
<path d="M0 0 C2.28684023 2.15232021 4.05036669 4.36056945 5.75 7 C6.19859375 7.680625 6.6471875 8.36125 7.109375 9.0625 C8 11 8 11 7 14 C3.42242307 9.80559946 0 5.69511947 0 0 Z " fill="#6C6C6C" transform="translate(76,672)"/>
<path d="M0 0 C2.20004472 0.41780398 4.38631928 0.9093008 6.5625 1.4375 C7.76003906 1.72496094 8.95757812 2.01242187 10.19140625 2.30859375 C11.11824219 2.53675781 12.04507812 2.76492188 13 3 C12.34 3.66 11.68 4.32 11 5 C8.6875 4.828125 8.6875 4.828125 6 4.25 C4.6696875 3.97929688 4.6696875 3.97929688 3.3125 3.703125 C1 3 1 3 -1 1 C-0.67 0.67 -0.34 0.34 0 0 Z " fill="#6F6F6F" transform="translate(322,876)"/>
<path d="M0 0 C0.99 0.33 1.98 0.66 3 1 C2.43224464 2.29858939 1.84508337 3.58870441 1.25 4.875 C0.92515625 5.59429688 0.6003125 6.31359375 0.265625 7.0546875 C-1.21929686 9.3370674 -2.50415408 10.00375898 -5 11 C-3.77472971 6.94718288 -2.30119506 3.55639236 0 0 Z " fill="#676767" transform="translate(849,660)"/>
<path d="M0 0 C0.33 0.99 0.66 1.98 1 3 C-0.26239712 3.86658615 -1.53527501 4.71792059 -2.8125 5.5625 C-3.87404297 6.27599609 -3.87404297 6.27599609 -4.95703125 7.00390625 C-7 8 -7 8 -10 7 C-6.76478258 4.51137122 -3.40739705 2.24578442 0 0 Z " fill="#717171" transform="translate(693,830)"/>
<path d="M0 0 C0.66 0 1.32 0 2 0 C2.50559908 1.43554025 3.0042749 2.8735202 3.5 4.3125 C3.7784375 5.11300781 4.056875 5.91351562 4.34375 6.73828125 C5 9 5 9 5 12 C4.34 12 3.68 12 3 12 C2.49166409 10.75336669 1.99368855 9.50250613 1.5 8.25 C1.2215625 7.55390625 0.943125 6.8578125 0.65625 6.140625 C0 4 0 4 0 0 Z " fill="#666666" transform="translate(43,598)"/>
<path d="M0 0 C0.33 0 0.66 0 1 0 C1.19294408 4.82360189 0.75747614 8.49646738 -1 13 C-1.66 12.01 -2.32 11.02 -3 10 C-2.1875 6.5 -2.1875 6.5 -1 3 C-0.67 2.01 -0.34 1.02 0 0 Z " fill="#727272" transform="translate(881,580)"/>
<path d="M0 0 C-3.09423168 3.09423168 -6.5523812 3.93706005 -10.875 4.125 C-11.57625 4.08375 -12.2775 4.0425 -13 4 C-13 3.34 -13 2.68 -13 2 C-8.49646738 0.24252386 -4.82360189 -0.19294408 0 0 Z " fill="#666666" transform="translate(347,36)"/>
<path d="M0 0 C4.2742558 1.5830577 6.26531794 4.50568404 9 8 C6 8 6 8 3.375 5.6875 C1 3 1 3 0 0 Z " fill="#676767" transform="translate(129,747)"/>
<path d="M0 0 C2.72957339 2.35735884 3.88893396 4.58133526 5 8 C5 8.99 5 9.98 5 11 C4.34 11 3.68 11 3 11 C0.84694043 7.14243493 -0.39253254 4.44870215 0 0 Z " fill="#686868" transform="translate(51,620)"/>
<path d="M0 0 C0.33 0 0.66 0 1 0 C1.17835515 4.54805635 0.99785435 7.8794254 -1 12 C-1.66 12 -2.32 12 -3 12 C-2.01 8.04 -1.02 4.08 0 0 Z " fill="#676767" transform="translate(878,590)"/>
<path d="M0 0 C0.33 0 0.66 0 1 0 C0.67 2.97 0.34 5.94 0 9 C-0.99 9 -1.98 9 -3 9 C-2.25 2.25 -2.25 2.25 0 0 Z " fill="#686868" transform="translate(35,349)"/>
<path d="M0 0 C1.1725131 0.95117134 2.33787015 1.91117009 3.5 2.875 C4.47453125 3.67550781 4.47453125 3.67550781 5.46875 4.4921875 C5.9740625 4.98976562 6.479375 5.48734375 7 6 C7 6.66 7 7.32 7 8 C4.04590299 6.62845496 1.55991624 5.01136276 -1 3 C-0.67 2.01 -0.34 1.02 0 0 Z " fill="#707070" transform="translate(777,157)"/>
<path d="M0 0 C4.43090471 1.20842856 6.98112756 2.51668565 10 6 C6.05879291 5.43697042 3.2491277 4.3208055 0 2 C0 1.34 0 0.68 0 0 Z " fill="#696969" transform="translate(223,829)"/>
<path d="M0 0 C0.99 0 1.98 0 3 0 C3 2.64 3 5.28 3 8 C2.01 8 1.02 8 0 8 C0 5.36 0 2.72 0 0 Z " fill="#767676" transform="translate(23,504)"/>
<path d="M0 0 C0.99 0.33 1.98 0.66 3 1 C3.73046875 3.06640625 3.73046875 3.06640625 4.1875 5.5625 C4.34605469 6.38878906 4.50460937 7.21507812 4.66796875 8.06640625 C4.77753906 8.70449219 4.88710938 9.34257812 5 10 C0.76169024 7.17446016 1.02284652 4.87819112 0 0 Z " fill="#666666" transform="translate(862,285)"/>
<path d="M0 0 C0.99 0.33 1.98 0.66 3 1 C-0.465 3.97 -0.465 3.97 -4 7 C-4 4 -4 4 -2 1.8125 C-1.34 1.214375 -0.68 0.61625 0 0 Z " fill="#6E6E6E" transform="translate(759,778)"/>
<path d="M0 0 C4.24822374 0.47202486 6.19989709 2.96655518 9 6 C8.67 6.66 8.34 7.32 8 8 C6.66372225 6.85760183 5.33104612 5.71098945 4 4.5625 C3.2575 3.92441406 2.515 3.28632813 1.75 2.62890625 C1.1725 2.09136719 0.595 1.55382812 0 1 C0 0.67 0 0.34 0 0 Z " fill="#646464" transform="translate(746,129)"/>
<path d="M0 0 C5.625 -0.25 5.625 -0.25 9 2 C9 2.66 9 3.32 9 4 C6.03 3.01 3.06 2.02 0 1 C0 0.67 0 0.34 0 0 Z " fill="#696969" transform="translate(606,46)"/>
<path d="M0 0 C0 0.66 0 1.32 0 2 C-3.96 3.98 -3.96 3.98 -8 6 C-5.82979469 1.65958937 -4.95602289 0 0 0 Z " fill="#626262" transform="translate(702,826)"/>
<path d="M0 0 C2.91517292 1.07401108 4.77810176 1.77810176 7 4 C6.67 4.99 6.34 5.98 6 7 C1.125 3.375 1.125 3.375 0 0 Z " fill="#656565" transform="translate(186,802)"/>
<path d="M0 0 C0.66 0.66 1.32 1.32 2 2 C0.02 4.97 0.02 4.97 -2 8 C-2.66 7.67 -3.32 7.34 -4 7 C-2.79618552 4.50638429 -1.54571278 2.31856917 0 0 Z " fill="#727272" transform="translate(114,189)"/>
<path d="M0 0 C0.625 1.875 0.625 1.875 1 4 C0.34 4.66 -0.32 5.32 -1 6 C-3.125 5.625 -3.125 5.625 -5 5 C-3.35 3.35 -1.7 1.7 0 0 Z " fill="#5E5E5E" transform="translate(149,149)"/>
<path d="M0 0 C0.66 0.99 1.32 1.98 2 3 C0.625 6.6875 0.625 6.6875 -1 10 C-1.33 10 -1.66 10 -2 10 C-1.125 2.25 -1.125 2.25 0 0 Z " fill="#696969" transform="translate(884,569)"/>
<path d="M0 0 C0.66 0 1.32 0 2 0 C3.25664978 2.90600261 4 4.79604584 4 8 C3.34 8 2.68 8 2 8 C0.74335022 5.09399739 0 3.20395416 0 0 Z " fill="#8C8C8C" transform="translate(151,536)"/>
<path d="M0 0 C1 2 1 2 0.0625 5.125 C-0.288125 6.07375 -0.63875 7.0225 -1 8 C-1.99 8 -2.98 8 -4 8 C-2.25 2.25 -2.25 2.25 0 0 Z " fill="#717171" transform="translate(60,278)"/>
</svg>
