<?xml version="1.0" encoding="UTF-8"?>
<svg version="1.1" xmlns="http://www.w3.org/2000/svg" width="413" height="353">
<path d="M0 0 C0.92181061 0.00060425 1.84362122 0.0012085 2.79336548 0.00183105 C39.19523557 0.06641038 74.21968113 3.79572954 107.125 20.4375 C108.15753906 20.95828125 109.19007813 21.4790625 110.25390625 22.015625 C111.39666016 22.59570312 111.39666016 22.59570312 112.5625 23.1875 C112.5625 23.8475 112.5625 24.5075 112.5625 25.1875 C113.8825 25.5175 115.2025 25.8475 116.5625 26.1875 C116.5625 26.8475 116.5625 27.5075 116.5625 28.1875 C117.15933594 28.38472656 117.75617188 28.58195312 118.37109375 28.78515625 C124.44633381 32.67287672 127.28149458 45.20303094 128.90625 51.9921875 C129.23109375 53.57386719 129.23109375 53.57386719 129.5625 55.1875 C129.69785156 55.80657227 129.83320313 56.42564453 129.97265625 57.06347656 C135.42575142 83.0884961 134.5504724 113.17232269 129.5625 139.1875 C129.41796387 139.97624512 129.27342773 140.76499023 129.12451172 141.57763672 C124.07773924 168.54405666 112.94626022 191.58928671 97.5625 214.1875 C96.9025 215.1775 96.2425 216.1675 95.5625 217.1875 C94.9025 217.1875 94.2425 217.1875 93.5625 217.1875 C93.19125 218.28191406 93.19125 218.28191406 92.8125 219.3984375 C91.4421708 222.45598452 89.84350121 224.37216414 87.5625 226.8125 C85.31811506 229.23016466 83.39807682 231.43413477 81.5625 234.1875 C80.9025 234.1875 80.2425 234.1875 79.5625 234.1875 C79.2325 235.1775 78.9025 236.1675 78.5625 237.1875 C76.625 239.375 76.625 239.375 74.5625 241.1875 C73.9025 241.1875 73.2425 241.1875 72.5625 241.1875 C72.2325 242.1775 71.9025 243.1675 71.5625 244.1875 C70.171875 245.625 70.171875 245.625 68.3125 247.1875 C67.58933594 247.79851562 66.86617187 248.40953125 66.12109375 249.0390625 C64.85458984 250.10253906 64.85458984 250.10253906 63.5625 251.1875 C62.09490234 252.46753906 62.09490234 252.46753906 60.59765625 253.7734375 C17.57839469 291.16679748 17.57839469 291.16679748 -0.3125 290 C-3.88399419 289.07141151 -7.11842277 287.76769812 -10.4375 286.1875 C-11.16710937 285.84847656 -11.89671875 285.50945312 -12.6484375 285.16015625 C-23.61838841 279.88818955 -33.68294966 273.10689282 -43.75 266.3125 C-44.6052124 265.74080078 -45.4604248 265.16910156 -46.34155273 264.58007812 C-47.13247314 264.04060547 -47.92339355 263.50113281 -48.73828125 262.9453125 C-49.45153564 262.4620752 -50.16479004 261.97883789 -50.8996582 261.48095703 C-51.407146 261.05411621 -51.91463379 260.62727539 -52.4375 260.1875 C-52.4375 259.5275 -52.4375 258.8675 -52.4375 258.1875 C-53.2109375 257.8471875 -53.2109375 257.8471875 -54 257.5 C-60.01149231 254.2630426 -64.19298903 250.49313871 -68.4375 245.1875 C-69.4275 244.5275 -70.4175 243.8675 -71.4375 243.1875 C-71.4375 242.5275 -71.4375 241.8675 -71.4375 241.1875 C-72.4275 240.8575 -73.4175 240.5275 -74.4375 240.1875 C-76.625 238.25 -76.625 238.25 -78.4375 236.1875 C-78.4375 235.5275 -78.4375 234.8675 -78.4375 234.1875 C-79.4275 233.8575 -80.4175 233.5275 -81.4375 233.1875 C-83.375 231.04296875 -83.375 231.04296875 -85.4375 228.375 C-86.118125 227.50230469 -86.79875 226.62960937 -87.5 225.73046875 C-88.4590625 224.47169922 -88.4590625 224.47169922 -89.4375 223.1875 C-90.30375 222.09888672 -90.30375 222.09888672 -91.1875 220.98828125 C-92.4375 219.1875 -92.4375 219.1875 -92.4375 217.1875 C-93.0975 217.1875 -93.7575 217.1875 -94.4375 217.1875 C-95.7265625 215.7265625 -95.7265625 215.7265625 -97.0625 213.8125 C-97.50851563 213.18601562 -97.95453125 212.55953125 -98.4140625 211.9140625 C-99.4375 210.1875 -99.4375 210.1875 -99.4375 208.1875 C-100.0975 208.1875 -100.7575 208.1875 -101.4375 208.1875 C-101.97375 207.07375 -102.51 205.96 -103.0625 204.8125 C-104.73333909 201.44695269 -106.5870419 198.25809399 -108.5625 195.0625 C-110.74370089 191.50571764 -112.20656633 188.18803443 -113.4375 184.1875 C-114.0975 183.8575 -114.7575 183.5275 -115.4375 183.1875 C-117.38873444 178.63461963 -118.87677601 173.88754712 -120.4375 169.1875 C-120.65873535 168.52637207 -120.8799707 167.86524414 -121.10791016 167.18408203 C-123.88370307 158.8239264 -126.16437703 150.53518586 -127.859375 141.8828125 C-128.3101929 139.23404224 -128.3101929 139.23404224 -129.4375 137.1875 C-129.62422529 135.00311055 -129.76123468 132.81440199 -129.875 130.625 C-130.15332048 125.6759449 -130.57658016 120.78485146 -131.22192383 115.86987305 C-133.1474389 101.19099034 -132.50689448 87.07419088 -130.70654297 72.43457031 C-130.45848719 70.36278685 -130.24520153 68.28691904 -130.03515625 66.2109375 C-128.67779492 53.93004931 -125.67537513 39.48396108 -118.4375 29.1875 C-117.4475 28.8575 -116.4575 28.5275 -115.4375 28.1875 C-115.4375 27.5275 -115.4375 26.8675 -115.4375 26.1875 C-114.1175 25.8575 -112.7975 25.5275 -111.4375 25.1875 C-111.4375 24.5275 -111.4375 23.8675 -111.4375 23.1875 C-102.59935796 18.61872394 -93.91803251 14.28690486 -84.4375 11.1875 C-83.695 10.92453125 -82.9525 10.6615625 -82.1875 10.390625 C-71.7635441 6.74224044 -61.09720565 4.63904706 -50.1875 3.0625 C-48.53814453 2.80919922 -48.53814453 2.80919922 -46.85546875 2.55078125 C-31.27146189 0.25742219 -15.71899184 -0.01912351 0 0 Z " fill="#412F1F" transform="translate(205.4375,53.8125)"/>
<path d="M0 0 C0.92181061 0.00060425 1.84362122 0.0012085 2.79336548 0.00183105 C39.19523557 0.06641038 74.21968113 3.79572954 107.125 20.4375 C108.15753906 20.95828125 109.19007813 21.4790625 110.25390625 22.015625 C111.39666016 22.59570312 111.39666016 22.59570312 112.5625 23.1875 C112.5625 23.8475 112.5625 24.5075 112.5625 25.1875 C113.8825 25.5175 115.2025 25.8475 116.5625 26.1875 C116.5625 26.8475 116.5625 27.5075 116.5625 28.1875 C117.15933594 28.38472656 117.75617188 28.58195312 118.37109375 28.78515625 C124.44633381 32.67287672 127.28149458 45.20303094 128.90625 51.9921875 C129.23109375 53.57386719 129.23109375 53.57386719 129.5625 55.1875 C129.69785156 55.80657227 129.83320313 56.42564453 129.97265625 57.06347656 C135.42575142 83.0884961 134.5504724 113.17232269 129.5625 139.1875 C129.41796387 139.97624512 129.27342773 140.76499023 129.12451172 141.57763672 C124.07773924 168.54405666 112.94626022 191.58928671 97.5625 214.1875 C96.9025 215.1775 96.2425 216.1675 95.5625 217.1875 C94.9025 217.1875 94.2425 217.1875 93.5625 217.1875 C93.19125 218.28191406 93.19125 218.28191406 92.8125 219.3984375 C91.4421708 222.45598452 89.84350121 224.37216414 87.5625 226.8125 C85.31811506 229.23016466 83.39807682 231.43413477 81.5625 234.1875 C80.9025 234.1875 80.2425 234.1875 79.5625 234.1875 C79.2325 235.1775 78.9025 236.1675 78.5625 237.1875 C76.625 239.375 76.625 239.375 74.5625 241.1875 C73.9025 241.1875 73.2425 241.1875 72.5625 241.1875 C72.2325 242.1775 71.9025 243.1675 71.5625 244.1875 C70.171875 245.625 70.171875 245.625 68.3125 247.1875 C67.58933594 247.79851562 66.86617187 248.40953125 66.12109375 249.0390625 C64.85458984 250.10253906 64.85458984 250.10253906 63.5625 251.1875 C62.09490234 252.46753906 62.09490234 252.46753906 60.59765625 253.7734375 C17.57839469 291.16679748 17.57839469 291.16679748 -0.3125 290 C-3.88399419 289.07141151 -7.11842277 287.76769812 -10.4375 286.1875 C-11.16710937 285.84847656 -11.89671875 285.50945312 -12.6484375 285.16015625 C-23.61838841 279.88818955 -33.68294966 273.10689282 -43.75 266.3125 C-44.6052124 265.74080078 -45.4604248 265.16910156 -46.34155273 264.58007812 C-47.13247314 264.04060547 -47.92339355 263.50113281 -48.73828125 262.9453125 C-49.45153564 262.4620752 -50.16479004 261.97883789 -50.8996582 261.48095703 C-51.407146 261.05411621 -51.91463379 260.62727539 -52.4375 260.1875 C-52.4375 259.5275 -52.4375 258.8675 -52.4375 258.1875 C-53.2109375 257.8471875 -53.2109375 257.8471875 -54 257.5 C-60.01149231 254.2630426 -64.19298903 250.49313871 -68.4375 245.1875 C-69.4275 244.5275 -70.4175 243.8675 -71.4375 243.1875 C-71.4375 242.5275 -71.4375 241.8675 -71.4375 241.1875 C-72.4275 240.8575 -73.4175 240.5275 -74.4375 240.1875 C-76.625 238.25 -76.625 238.25 -78.4375 236.1875 C-78.4375 235.5275 -78.4375 234.8675 -78.4375 234.1875 C-79.4275 233.8575 -80.4175 233.5275 -81.4375 233.1875 C-83.375 231.04296875 -83.375 231.04296875 -85.4375 228.375 C-86.118125 227.50230469 -86.79875 226.62960937 -87.5 225.73046875 C-88.4590625 224.47169922 -88.4590625 224.47169922 -89.4375 223.1875 C-90.30375 222.09888672 -90.30375 222.09888672 -91.1875 220.98828125 C-92.4375 219.1875 -92.4375 219.1875 -92.4375 217.1875 C-93.0975 217.1875 -93.7575 217.1875 -94.4375 217.1875 C-95.7265625 215.7265625 -95.7265625 215.7265625 -97.0625 213.8125 C-97.50851563 213.18601562 -97.95453125 212.55953125 -98.4140625 211.9140625 C-99.4375 210.1875 -99.4375 210.1875 -99.4375 208.1875 C-100.0975 208.1875 -100.7575 208.1875 -101.4375 208.1875 C-101.97375 207.07375 -102.51 205.96 -103.0625 204.8125 C-104.73333909 201.44695269 -106.5870419 198.25809399 -108.5625 195.0625 C-110.74370089 191.50571764 -112.20656633 188.18803443 -113.4375 184.1875 C-114.0975 183.8575 -114.7575 183.5275 -115.4375 183.1875 C-117.38873444 178.63461963 -118.87677601 173.88754712 -120.4375 169.1875 C-120.65873535 168.52637207 -120.8799707 167.86524414 -121.10791016 167.18408203 C-123.88370307 158.8239264 -126.16437703 150.53518586 -127.859375 141.8828125 C-128.3101929 139.23404224 -128.3101929 139.23404224 -129.4375 137.1875 C-129.62422529 135.00311055 -129.76123468 132.81440199 -129.875 130.625 C-130.15332048 125.6759449 -130.57658016 120.78485146 -131.22192383 115.86987305 C-133.1474389 101.19099034 -132.50689448 87.07419088 -130.70654297 72.43457031 C-130.45848719 70.36278685 -130.24520153 68.28691904 -130.03515625 66.2109375 C-128.67779492 53.93004931 -125.67537513 39.48396108 -118.4375 29.1875 C-117.4475 28.8575 -116.4575 28.5275 -115.4375 28.1875 C-115.4375 27.5275 -115.4375 26.8675 -115.4375 26.1875 C-114.1175 25.8575 -112.7975 25.5275 -111.4375 25.1875 C-111.4375 24.5275 -111.4375 23.8675 -111.4375 23.1875 C-102.59935796 18.61872394 -93.91803251 14.28690486 -84.4375 11.1875 C-83.695 10.92453125 -82.9525 10.6615625 -82.1875 10.390625 C-71.7635441 6.74224044 -61.09720565 4.63904706 -50.1875 3.0625 C-48.53814453 2.80919922 -48.53814453 2.80919922 -46.85546875 2.55078125 C-31.27146189 0.25742219 -15.71899184 -0.01912351 0 0 Z M-74.4375 30.1875 C-76.32855469 30.77337891 -76.32855469 30.77337891 -78.2578125 31.37109375 C-92.67851253 36.11120696 -92.67851253 36.11120696 -103.4375 46.1875 C-119.00201896 79.33416076 -111.60387498 129.47622733 -100.1875 162.6875 C-94.99000695 177.05543891 -87.5325752 189.94938545 -78.4375 202.1875 C-77.67566406 203.24710938 -76.91382813 204.30671875 -76.12890625 205.3984375 C-64.3453083 221.38289871 -49.54500715 235.61206855 -33.4375 247.1875 C-32.41011719 247.94804687 -31.38273437 248.70859375 -30.32421875 249.4921875 C-24.06652404 253.99648083 -17.59860387 257.92484192 -10.875 261.6875 C-10.1005957 262.1213501 -9.32619141 262.5552002 -8.52832031 263.00219727 C-3.71894156 265.72848531 -3.71894156 265.72848531 1.5625 267.1875 C4.28653155 266.0474868 6.74076093 264.85870897 9.3125 263.4375 C10.05967285 263.03208984 10.8068457 262.62667969 11.57666016 262.20898438 C23.76875037 255.45013058 35.02796814 247.30423884 45.5625 238.1875 C46.35527344 237.50558594 47.14804688 236.82367188 47.96484375 236.12109375 C50.54152981 233.85344298 53.05927349 231.53607314 55.5625 229.1875 C56.08714844 228.69685059 56.61179687 228.20620117 57.15234375 227.70068359 C74.5727127 211.2710227 89.52400367 191.48591071 98.5625 169.1875 C98.8095166 168.5898584 99.0565332 167.9922168 99.31103516 167.37646484 C113.71180388 131.96279484 117.33191623 85.83603808 105.5625 49.1875 C101.91871195 40.68869243 94.86446598 37.99583893 86.69140625 34.4375 C39.6195085 15.63224746 -26.12120112 14.20139703 -74.4375 30.1875 Z " fill="#85C669" transform="translate(205.4375,53.8125)"/>
<path d="M0 0 C1.99646676 2.53788148 3.50353521 4.96205412 4.875 7.875 C7.36601809 12.47322373 10.59336178 15.9493071 14.1875 19.6875 C36.72389389 43.29008396 49.7029406 74.66359671 49.21484375 107.42578125 C48.42130012 130.59626938 39.2945071 151.00253487 25 169 C24.56042969 169.59425781 24.12085938 170.18851563 23.66796875 170.80078125 C20.50148514 174.9518958 16.46024862 177.8844049 12.3046875 180.97265625 C9.1045371 183.78770381 7.2545835 186.42261728 6.56762695 190.67895508 C6.54144287 191.61634521 6.51525879 192.55373535 6.48828125 193.51953125 C6.45283203 194.54111328 6.41738281 195.56269531 6.38085938 196.61523438 C6.35830078 197.67033203 6.33574219 198.72542969 6.3125 199.8125 C6.27833984 200.88693359 6.24417969 201.96136719 6.20898438 203.06835938 C6.12673357 205.71213533 6.05750791 208.35558921 6 211 C1.125 210.125 1.125 210.125 0 209 C-0.20193854 207.64680745 -0.34662503 206.28493537 -0.46484375 204.921875 C-0.54283203 204.09042969 -0.62082031 203.25898438 -0.70117188 202.40234375 C-0.8573121 200.64996005 -1.01100377 198.89735626 -1.16210938 197.14453125 C-1.95211862 188.80768574 -3.68495623 184.83197597 -10.125 179.25 C-11.31255248 178.18263591 -12.49745246 177.1123133 -13.6796875 176.0390625 C-14.25299805 175.51860352 -14.82630859 174.99814453 -15.41699219 174.46191406 C-28.90729814 162.00356242 -37.67645965 145.37544419 -43 128 C-43.391875 126.7625 -43.78375 125.525 -44.1875 124.25 C-51.22060893 96.11756427 -44.23739167 62.74301497 -29.625 38.1875 C-23.32674498 27.97059138 -15.83803324 19.55289139 -7.10302734 11.3515625 C-3.41226803 7.79966717 -1.12727073 5.17591913 0 0 Z " fill="#66AE56" transform="translate(205,91)"/>
<path d="M0 0 C1.87819962 2.43155022 3.41917381 4.74369547 4.9375 7.4375 C7.3962252 11.44403715 10.45834624 14.73841297 13.6875 18.125 C35.91679044 41.66431018 48.69868943 72.9489455 48.21484375 105.42578125 C47.42130012 128.59626938 38.2945071 149.00253487 24 167 C23.56042969 167.59425781 23.12085938 168.18851563 22.66796875 168.80078125 C18.92247597 173.71095023 13.86574463 177.27746915 9 181 C5.56979713 179.57133819 5.08398771 179.16797542 3.3125 175.625 C1.64601723 171.02233331 0.87511157 167.47165444 0.88647461 162.57122803 C0.88658035 160.91586029 0.88658035 160.91586029 0.88668823 159.22705078 C0.89185455 158.02000488 0.89702087 156.81295898 0.90234375 155.56933594 C0.90458603 153.61050686 0.90682798 151.65167778 0.90905762 149.69284868 C0.91242954 147.58473091 0.91828639 145.47663282 0.92483521 143.36852264 C0.9384331 138.94036597 0.94427083 134.51221923 0.94897461 130.08404541 C0.96101213 119.84728574 0.98278741 109.61055122 1.00520325 99.37380981 C1.02556903 90.06141989 1.04364194 80.74904026 1.05341816 71.43663239 C1.05750424 67.7736549 1.06362504 64.11070846 1.07516479 60.44774628 C1.13807273 40.27624221 0.75693564 20.15632088 0 0 Z " fill="#4F9546" transform="translate(206,93)"/>
<path d="M0 0 C0.33 0 0.66 0 1 0 C1.25523437 1.53720703 1.25523437 1.53720703 1.515625 3.10546875 C1.75963369 4.46628646 2.00446928 5.82695608 2.25 7.1875 C2.35957031 7.86103516 2.46914062 8.53457031 2.58203125 9.22851562 C3.43278991 13.81813469 4.81053325 16.60624922 8 20 C7.67854004 20.71115967 7.35708008 21.42231934 7.02587891 22.1550293 C5.96125404 25.10745043 5.69067367 27.3949021 5.5859375 30.51953125 C5.52792969 32.0519043 5.52792969 32.0519043 5.46875 33.61523438 C5.42234375 35.19788086 5.42234375 35.19788086 5.375 36.8125 C5.31699219 38.42415039 5.31699219 38.42415039 5.2578125 40.06835938 C5.16381387 42.71207088 5.07815427 45.3557805 5 48 C0.125 47.125 0.125 47.125 -1 46 C-1.21394248 44.64725953 -1.37031775 43.28527541 -1.5 41.921875 C-1.5825 41.09042969 -1.665 40.25898438 -1.75 39.40234375 C-1.8325 38.52707031 -1.915 37.65179688 -2 36.75 C-2.56776928 30.39288845 -2.56776928 30.39288845 -3.61328125 24.10546875 C-4.11971663 21.34820946 -3.36568851 19.19161453 -2.61328125 16.53515625 C-1.30122721 11.11144242 -0.72969652 5.52706304 0 0 Z " fill="#B9B59A" transform="translate(206,254)"/>
<path d="M0 0 C0.33 0 0.66 0 1 0 C3.39018059 9.23265837 4.98997942 16.24998123 1.078125 25.3515625 C-0.09433017 28.23172411 -0.5854318 30.92678791 -1 34 C-1.33 34 -1.66 34 -2 34 C-4.56802932 22.147557 -4.56802932 22.147557 -2.6484375 16.2890625 C-1.1526387 11.00871254 -0.71716219 5.4321221 0 0 Z " fill="#A7A885" transform="translate(206,254)"/>
<path d="M0 0 C0.33 0 0.66 0 1 0 C1.33 6.27 1.66 12.54 2 19 C0.35 18.67 -1.3 18.34 -3 18 C-3.31985731 11.28299653 -2.4793824 6.24273068 0 0 Z " fill="#CAC7B0" transform="translate(209,283)"/>
<path d="M0 0 C0.66 0.99 1.32 1.98 2 3 C1.35546875 5.70703125 1.35546875 5.70703125 0.1875 8.8125 C-1.3268052 12.89027066 -2.40029487 16.68599211 -3 21 C-3.33 21 -3.66 21 -4 21 C-4.61187085 13.16465389 -3.06459719 7.1963309 0 0 Z " fill="#ADAB8C" transform="translate(208,267)"/>
<path d="M0 0 C2.4294516 3.6441774 2.16179575 5.71241272 2 10 C0.68 9.67 -0.64 9.34 -2 9 C-1.125 2.25 -1.125 2.25 0 0 Z " fill="#D5D2BF" transform="translate(209,292)"/>
<path d="M0 0 C0.33 0 0.66 0 1 0 C1.33 2.97 1.66 5.94 2 9 C1.34 9 0.68 9 0 9 C-0.33 9.99 -0.66 10.98 -1 12 C-1.14285714 3.42857143 -1.14285714 3.42857143 0 0 Z " fill="#99A57B" transform="translate(206,254)"/>
<path d="" fill="#FEFEFE" transform="translate(0,0)"/>
</svg>
