<?xml version="1.0" encoding="UTF-8"?>
<svg version="1.1" xmlns="http://www.w3.org/2000/svg" width="2048" height="2048">
<path d="M0 0 C4.95459926 0.00917218 9.90872634 0.00228471 14.86328125 -0.02050781 C43.49425826 -0.15162201 71.71308081 0.43303515 100.1706686 3.74220657 C106.54473753 4.48318164 112.92681576 5.02513083 119.32543945 5.50854492 C127.61479726 6.19639961 135.76237517 7.34243879 143.9621582 8.72729492 C148.17484854 9.43262437 152.39542226 9.95799517 156.63793945 10.44604492 C163.06646756 11.21516095 169.32874285 12.3941088 175.66137695 13.72729492 C179.45875473 14.45970321 183.2372249 14.97701667 187.07543945 15.44604492 C192.60347988 16.13991722 197.83304871 17.21485472 203.20825195 18.65698242 C208.30142415 19.92089002 213.45969202 20.79002522 218.6262207 21.69995117 C222.29039487 22.42669807 225.80145257 23.40939137 229.38793945 24.44604492 C231.1536891 24.78609657 232.92464359 25.10060324 234.70043945 25.38354492 C239.15462859 26.15818651 243.33454852 27.29148338 247.63793945 28.65698242 C252.09706372 29.93644706 256.6404459 30.79844542 261.1887207 31.69995117 C264.10004854 32.37890553 266.62841666 33.32414057 269.38793945 34.44604492 C270.98401403 34.79754585 272.58913518 35.1102219 274.20043945 35.38354492 C277.36872354 35.98080613 280.27098693 36.68426541 283.26293945 37.88354492 C286.39364627 39.13831234 289.47811369 39.99148396 292.76293945 40.75854492 C298.8580186 42.2225968 304.7330328 44.16393543 310.66259766 46.17700195 C315.23974304 47.73092033 319.82556539 49.22550364 324.45043945 50.63354492 C332.0897236 52.9597931 339.53339508 55.46992471 346.9309082 58.48120117 C349.17070362 59.36073928 351.41166035 60.1429345 353.70043945 60.88354492 C367.8819431 65.50308902 381.75024995 71.46428088 395.49731445 77.23510742 C397.44213502 78.04982955 399.39013531 78.85699825 401.34106445 79.65698242 C407.59630981 82.22785552 413.74580167 84.96928487 419.87231445 87.83276367 C424.52128247 89.96612344 429.21355628 91.99555055 433.92016602 93.99829102 C436.68660097 95.19038313 439.3344904 96.41395899 441.91918945 97.96557617 C444.36746096 99.4337643 446.85854293 100.55157938 449.49145508 101.64672852 C458.78569185 105.56399566 467.91515074 110.02416095 476.7121582 114.94995117 C479.7690495 116.65913273 482.85853613 118.30110916 485.95043945 119.94604492 C490.76845099 122.53201557 495.4598063 125.26607316 500.1262207 128.11401367 C502.79516466 129.68587876 505.53631091 131.03313412 508.3215332 132.38354492 C511.64975527 134.09484247 514.81897203 136.06100381 518.01293945 138.00854492 C519.97374279 139.19534694 521.94736956 140.33322831 523.95043945 141.44604492 C526.60781724 142.99215564 529.1048273 144.59045857 531.63793945 146.32104492 C534.88764745 148.51679357 538.17976299 150.47132263 541.63793945 152.32104492 C546.02072313 154.67096298 550.31952002 157.12548822 554.57543945 159.69604492 C555.68274414 160.36120117 556.79004883 161.02635742 557.9309082 161.71166992 C558.74172852 162.28401367 559.55254883 162.85635742 560.38793945 163.44604492 C560.38793945 164.10604492 560.38793945 164.76604492 560.38793945 165.44604492 C562.03793945 165.77604492 563.68793945 166.10604492 565.38793945 166.44604492 C565.38793945 167.10604492 565.38793945 167.76604492 565.38793945 168.44604492 C566.10336914 168.71416992 566.81879883 168.98229492 567.5559082 169.25854492 C570.42922884 170.46335799 573.02131572 171.85841604 575.70043945 173.44604492 C577.02495117 174.21948242 577.02495117 174.21948242 578.3762207 175.00854492 C579.37202148 175.72010742 579.37202148 175.72010742 580.38793945 176.44604492 C580.38793945 177.10604492 580.38793945 177.76604492 580.38793945 178.44604492 C581.47075195 178.84823242 581.47075195 178.84823242 582.57543945 179.25854492 C585.38560328 180.44505854 587.87210502 181.72090131 590.38793945 183.44604492 C590.38793945 184.10604492 590.38793945 184.76604492 590.38793945 185.44604492 C590.93708008 185.53370117 591.4862207 185.62135742 592.05200195 185.71166992 C595.11068142 186.67326146 597.19474935 188.28249151 599.76293945 190.19604492 C600.73231445 190.91663086 601.70168945 191.6372168 602.70043945 192.37963867 C604.76441434 193.96661936 606.78168876 195.57138613 608.76293945 197.25854492 C611.22480439 199.31009904 613.64659396 200.80203569 616.38793945 202.44604492 C618.25704313 203.73718462 620.11091857 205.05059586 621.95043945 206.38354492 C623.34456055 207.38708008 623.34456055 207.38708008 624.7668457 208.41088867 C627.38793945 210.44604492 627.38793945 210.44604492 629.4152832 212.51245117 C631.58488869 214.63909417 633.77289953 215.90268081 636.38793945 217.44604492 C638.87531375 219.23715335 641.28817764 221.11798752 643.70043945 223.00854492 C644.34561523 223.50290039 644.99079102 223.99725586 645.65551758 224.5065918 C647.27234726 225.77096972 648.83535741 227.10355517 650.38793945 228.44604492 C650.38793945 229.10604492 650.38793945 229.76604492 650.38793945 230.44604492 C651.34700195 230.60073242 651.34700195 230.60073242 652.32543945 230.75854492 C653.34637695 231.09885742 653.34637695 231.09885742 654.38793945 231.44604492 C654.71793945 232.43604492 655.04793945 233.42604492 655.38793945 234.44604492 C657.04902811 235.12649088 658.71669583 235.79093655 660.38793945 236.44604492 C662.7121582 238.32885742 662.7121582 238.32885742 665.07543945 240.57104492 C669.38906171 244.58628127 673.86495528 248.24777236 678.55200195 251.81713867 C679.15786133 252.35467773 679.7637207 252.8922168 680.38793945 253.44604492 C680.38793945 254.10604492 680.38793945 254.76604492 680.38793945 255.44604492 C681.47075195 255.78635742 681.47075195 255.78635742 682.57543945 256.13354492 C685.95226363 257.7093962 687.94560985 259.65481109 690.38793945 262.44604492 C690.38793945 263.10604492 690.38793945 263.76604492 690.38793945 264.44604492 C691.47075195 264.78635742 691.47075195 264.78635742 692.57543945 265.13354492 C696.01501495 266.73868015 697.79020292 268.66707095 700.38793945 271.44604492 C701.65277181 272.74358846 702.92414234 274.03477674 704.20043945 275.32104492 C704.80500977 275.9372168 705.40958008 276.55338867 706.0324707 277.18823242 C707.98985971 279.06446932 709.98189122 280.83125964 712.03686523 282.59716797 C716.31474992 286.33182392 720.35226609 290.26563506 724.3605957 294.28588867 C725.45071205 295.37456993 725.45071205 295.37456993 726.56285095 296.48524475 C728.08756241 298.00928048 729.61103096 299.53456061 731.13330078 301.06103516 C733.44427837 303.37736955 735.76054716 305.6883157 738.07739258 307.9987793 C739.56794766 309.48999526 741.05819246 310.98152145 742.5480957 312.47338867 C743.23057877 313.1538475 743.91306183 313.83430634 744.6162262 314.53538513 C750.04432775 319.98963494 755.13161589 325.68643946 760.01293945 331.63354492 C762.34379396 334.47368275 762.34379396 334.47368275 764.95043945 337.00854492 C767.38793945 339.44604492 767.38793945 339.44604492 769.45043945 342.07104492 C771.2662168 344.5053852 771.2662168 344.5053852 773.63793945 346.07104492 C774.21543945 346.52479492 774.79293945 346.97854492 775.38793945 347.44604492 C775.38793945 348.43604492 775.38793945 349.42604492 775.38793945 350.44604492 C775.94094727 350.65358398 776.49395508 350.86112305 777.0637207 351.07495117 C780.23621317 352.94645513 782.28155929 355.56448161 784.57543945 358.38354492 C785.05956299 358.96765137 785.54368652 359.55175781 786.04248047 360.15356445 C787.49753097 361.91243772 788.94318595 363.67871109 790.38793945 365.44604492 C791.1459082 366.36256836 791.90387695 367.2790918 792.68481445 368.22338867 C798.02804442 374.70741773 803.27143886 381.27196353 808.50512695 387.84448242 C810.28364123 390.07498179 812.07977864 392.28444194 813.89575195 394.48510742 C814.97469727 395.79608398 814.97469727 395.79608398 816.07543945 397.13354492 C817.00936523 398.2530957 817.00936523 398.2530957 817.9621582 399.39526367 C819.39619248 401.45791571 819.97189168 402.98858943 820.38793945 405.44604492 C821.04793945 405.44604492 821.70793945 405.44604492 822.38793945 405.44604492 C824.11303141 407.68600138 825.73348073 409.9268882 827.32543945 412.25854492 C828.20688518 413.53773181 829.09092337 414.81513692 829.9777832 416.09057617 C830.56354126 416.94679565 830.56354126 416.94679565 831.16113281 417.8203125 C832.35991476 419.49263671 832.35991476 419.49263671 833.91357422 420.94091797 C835.87558451 422.9438644 837.06335784 425.29180767 838.40356445 427.73510742 C839.43045413 429.60265743 839.43045413 429.60265743 841.13793945 431.75854492 C842.38793945 433.44604492 842.38793945 433.44604492 842.38793945 435.44604492 C843.04793945 435.44604492 843.70793945 435.44604492 844.38793945 435.44604492 C845.87202901 437.54371936 847.23536057 439.63368674 848.57543945 441.82104492 C849.3927562 443.12679408 850.2117758 444.43147887 851.0324707 445.73510742 C851.43546387 446.37609375 851.83845703 447.01708008 852.25366211 447.67749023 C853.68291073 449.9059614 855.20978725 452.05246925 856.76293945 454.19604492 C860.64601832 459.64326797 864.05593951 465.37330466 867.48120117 471.11499023 C869.89830886 475.1379905 872.43432474 478.78978081 875.38793945 482.44604492 C876.42952617 484.23497012 877.43004338 486.0484451 878.38793945 487.88354492 C880.52973787 491.90345301 882.82029546 495.68016706 885.38793945 499.44604492 C886.34851369 501.11104027 887.30811349 502.77671285 888.24731445 504.45385742 C890.09773859 507.68576259 892.06622836 510.84658601 894.02075195 514.01635742 C895.38793945 516.44604492 895.38793945 516.44604492 896.27856445 518.72729492 C897.86334483 522.61112289 899.94958414 526.17395013 902.01293945 529.82104492 C902.92011342 531.4403193 903.82635064 533.06011879 904.73168945 534.68041992 C905.18157227 535.48543945 905.63145508 536.29045898 906.0949707 537.11987305 C911.82499196 547.42871793 917.18129506 557.91660555 922.41333008 568.48510742 C923.38202159 570.43413803 924.35982324 572.37830577 925.34106445 574.32104492 C925.65422607 574.94229248 925.9673877 575.56354004 926.29003906 576.20361328 C927.14081312 577.8903316 927.99284463 579.57641549 928.8449707 581.26245117 C931.27171653 586.26953434 933.38573542 591.38199947 935.38793945 596.57104492 C936.42816069 599.19523942 937.43346535 601.52192142 938.88793945 603.94604492 C940.75307427 607.05460295 941.97778671 610.27560479 943.2902832 613.64916992 C944.42445358 616.53908447 945.61853695 619.39829948 946.82543945 622.25854492 C949.03716074 627.54097405 951.0989238 632.87085954 953.1340332 638.22338867 C954.34893207 641.3457923 955.63653572 644.42669733 956.95043945 647.50854492 C959.75582691 654.174638 961.9754474 660.99455481 964.16137695 667.88354492 C965.36258719 671.60342179 966.67227791 675.15171804 968.32543945 678.69604492 C970.44082514 683.32745752 971.88085948 688.07469598 973.3293457 692.94995117 C974.40327896 696.49670493 975.57055626 699.9999669 976.76293945 703.50854492 C979.60860208 711.93833696 982.1405954 720.45813421 984.66040039 728.98999023 C985.34705935 731.30804027 986.04188535 733.62346039 986.73950195 735.93823242 C989.57175154 745.3776345 992.09746223 754.86120559 994.38793945 764.44604492 C994.82879883 766.29069336 994.82879883 766.29069336 995.27856445 768.17260742 C996.10933377 771.67440708 996.92544528 775.17955132 997.74145508 778.68481445 C998.51795434 782.00135774 999.30476732 785.31540484 1000.09106445 788.62963867 C1003.14285881 801.51936728 1006.17291022 814.38027653 1008.38793945 827.44604492 C1009.01573233 831.09391427 1009.64499195 834.74152947 1010.27416992 838.38916016 C1010.71452775 840.94943553 1011.1524773 843.51012667 1011.58764648 846.07128906 C1012.48298882 851.3224754 1013.39183472 856.55954915 1014.48168945 861.77416992 C1015.40095729 866.27541242 1015.91437164 870.74890366 1016.32543945 875.32104492 C1016.96582436 881.94929115 1017.82716578 888.49781266 1018.88793945 895.07104492 C1020.1893074 903.34017051 1021.01138615 911.5911235 1021.59849548 919.94033813 C1022.01494847 925.86263562 1022.50773417 931.76591324 1023.12646484 937.6706543 C1025.72572767 963.4390261 1025.88445279 989.141688 1025.83398438 1015.02368164 C1025.82481697 1019.9577739 1025.83168986 1024.89139179 1025.85449219 1029.82543945 C1025.98836334 1058.92857892 1025.26092063 1087.59578622 1022.08485126 1116.53732586 C1021.43189321 1122.61628273 1021.00951424 1128.69160046 1020.71604252 1134.79810333 C1020.40282793 1141.15047729 1019.52380147 1147.36047855 1018.51293945 1153.63354492 C1018.14976737 1155.97580819 1017.78780439 1158.31825922 1017.42700195 1160.66088867 C1017.24943359 1161.80541504 1017.07186523 1162.94994141 1016.88891602 1164.12915039 C1016.15678374 1168.97649404 1015.52320402 1173.83525493 1014.88793945 1178.69604492 C1012.89994547 1193.61967238 1010.37053267 1208.46465076 1007.0949707 1223.16088867 C1006.32373715 1226.74435509 1005.66447374 1230.33894726 1005.01293945 1233.94604492 C1003.3024549 1243.30869721 1001.15068712 1252.5680538 998.9934082 1261.83618164 C998.45091209 1264.17460237 997.91745545 1266.5148149 997.38793945 1268.85620117 C994.94060007 1279.58996766 992.06638231 1290.19456428 989.1184082 1300.80053711 C988.44646499 1303.23408546 987.78895679 1305.67089246 987.13793945 1308.11010742 C984.4586701 1318.07892043 981.32178067 1327.84628351 978.0090332 1337.62182617 C976.73787537 1341.37873932 975.5326603 1345.14832298 974.38793945 1348.94604492 C972.63380123 1354.72260355 970.77659921 1360.4623289 968.88793945 1366.19604492 C968.60305664 1367.07196289 968.31817383 1367.94788086 968.0246582 1368.8503418 C966.36633108 1373.85182611 964.49953032 1378.65732347 962.27416992 1383.43481445 C961.38507457 1385.45254655 960.67805301 1387.46995066 960.01293945 1389.57104492 C956.52700249 1400.4267073 951.79847054 1410.94276096 947.38793945 1421.44604492 C946.53284466 1423.48732304 945.67867983 1425.52899097 944.82543945 1427.57104492 C944.40907227 1428.56749023 943.99270508 1429.56393555 943.5637207 1430.59057617 C942.51567231 1433.13583656 941.5095294 1435.69285591 940.51293945 1438.25854492 C938.07247381 1444.38401645 935.23867723 1450.3240042 932.41479492 1456.27905273 C931.30951425 1458.6115471 930.2098288 1460.94663234 929.1105957 1463.28198242 C925.29232054 1471.3829928 921.44468931 1479.46110418 917.38793945 1487.44604492 C916.5535501 1489.11218316 915.72024509 1490.7788648 914.88793945 1492.44604492 C914.47415039 1493.27104492 914.06036133 1494.09604492 913.6340332 1494.94604492 C912.80536652 1496.60857369 911.98499173 1498.27526211 911.1730957 1499.94604492 C908.62200006 1505.16234273 905.82147481 1510.12713984 902.7902832 1515.07885742 C901.55203169 1517.16905357 900.44549559 1519.26072144 899.38793945 1521.44604492 C897.43930779 1525.46509772 895.15625454 1529.2447924 892.8371582 1533.05932617 C890.42766049 1537.02752861 888.07666531 1541.00300026 886.07543945 1545.19604492 C882.61850773 1551.85383936 878.34118897 1558.05324888 874.13793945 1564.25854492 C872.54936513 1566.61847424 871.20475908 1568.82037003 869.95043945 1571.38354492 C868.00602469 1575.19459786 865.56718347 1578.52036135 863.08325195 1581.99682617 C861.70498784 1583.98800497 860.48142732 1585.94849577 859.32543945 1588.07104492 C857.3632806 1591.48899905 855.15154827 1594.49360126 852.7590332 1597.61401367 C851.12261081 1599.80057237 849.76733668 1602.08957465 848.38793945 1604.44604492 C847.37969026 1606.05815067 846.35767389 1607.66169068 845.32543945 1609.25854492 C844.81883789 1610.04874023 844.31223633 1610.83893555 843.7902832 1611.65307617 C843.32750977 1612.24475586 842.86473633 1612.83643555 842.38793945 1613.44604492 C841.72793945 1613.44604492 841.06793945 1613.44604492 840.38793945 1613.44604492 C840.20787354 1614.33247681 840.20787354 1614.33247681 840.02416992 1615.23681641 C838.9986109 1618.79793829 836.67786071 1621.55554326 834.51293945 1624.50854492 C833.84198242 1625.44537109 833.84198242 1625.44537109 833.1574707 1626.40112305 C829.8127381 1631.02356324 829.8127381 1631.02356324 827.82128906 1633.00415039 C825.91369979 1634.92311176 824.77497144 1637.12318412 823.38793945 1639.44604492 C821.76313098 1641.6133604 820.12516988 1643.75591563 818.45043945 1645.88354492 C815.89494198 1649.13634455 813.41220218 1652.35977496 811.1965332 1655.85620117 C810.59969727 1656.71084961 810.00286133 1657.56549805 809.38793945 1658.44604492 C808.72793945 1658.44604492 808.06793945 1658.44604492 807.38793945 1658.44604492 C806.72793945 1660.09604492 806.06793945 1661.74604492 805.38793945 1663.44604492 C804.72793945 1663.44604492 804.06793945 1663.44604492 803.38793945 1663.44604492 C803.13915039 1664.00420898 802.89036133 1664.56237305 802.6340332 1665.13745117 C801.17179547 1667.84648722 799.41949932 1670.01568812 797.45043945 1672.38354492 C796.2612793 1673.81827148 796.2612793 1673.81827148 795.0480957 1675.28198242 C793.16892782 1677.52392129 791.27844024 1679.75603598 789.3840332 1681.98510742 C788.88572998 1682.57171143 788.38742676 1683.15831543 787.87402344 1683.76269531 C786.89543519 1684.91233956 785.9145333 1686.06001905 784.93115234 1687.20556641 C782.39420539 1690.14289412 782.39420539 1690.14289412 780.38793945 1693.44604492 C779.72793945 1693.44604492 779.06793945 1693.44604492 778.38793945 1693.44604492 C778.15848633 1693.99389648 777.9290332 1694.54174805 777.69262695 1695.10620117 C776.0118974 1698.1204437 773.86840627 1700.36382449 771.51293945 1702.88354492 C768.9555213 1705.62799813 766.48365625 1708.32188559 764.19262695 1711.29370117 C763.59708008 1712.00397461 763.0015332 1712.71424805 762.38793945 1713.44604492 C761.72793945 1713.44604492 761.06793945 1713.44604492 760.38793945 1713.44604492 C760.16106445 1713.98229492 759.93418945 1714.51854492 759.70043945 1715.07104492 C757.20272445 1719.5907197 753.95783765 1723.05874709 750.01293945 1726.32104492 C746.70535717 1729.06426651 743.99212232 1732.09677495 741.2121582 1735.36401367 C738.11435999 1738.89961635 734.74217717 1742.15603728 731.38793945 1745.44604492 C730.56293945 1746.27104492 729.73793945 1747.09604492 728.88793945 1747.94604492 C728.06293945 1748.77104492 727.23793945 1749.59604492 726.38793945 1750.44604492 C725.78208008 1751.06350586 725.1762207 1751.6809668 724.55200195 1752.31713867 C721.40960228 1755.50167781 718.27854644 1758.59820163 714.82543945 1761.44604492 C711.46579404 1764.23040859 708.78094686 1767.4046872 706.0637207 1770.80932617 C704.16041216 1772.66826855 702.93565447 1772.90545833 700.38793945 1773.44604492 C699.68856413 1774.76251611 699.02064812 1776.09626643 698.38793945 1777.44604492 C697.39793945 1777.77604492 696.40793945 1778.10604492 695.38793945 1778.44604492 C695.1043457 1779.03514648 694.82075195 1779.62424805 694.52856445 1780.23120117 C692.96558717 1783.26616049 690.80897107 1784.7781006 688.13793945 1786.88354492 C686.65874023 1788.06303711 686.65874023 1788.06303711 685.1496582 1789.26635742 C684.23829102 1789.9856543 683.32692383 1790.70495117 682.38793945 1791.44604492 C679.51204703 1793.77721638 676.72375835 1796.10089772 674.13793945 1798.75854492 C672.38793945 1800.44604492 672.38793945 1800.44604492 670.38793945 1800.44604492 C670.05793945 1801.43604492 669.72793945 1802.42604492 669.38793945 1803.44604492 C668.74856445 1803.59041992 668.10918945 1803.73479492 667.45043945 1803.88354492 C666.76981445 1804.06916992 666.08918945 1804.25479492 665.38793945 1804.44604492 C665.14946289 1805.00936523 664.91098633 1805.57268555 664.6652832 1806.15307617 C662.79924404 1809.5028162 659.8993799 1811.43270718 656.88793945 1813.69604492 C655.61161139 1814.67614083 654.3355712 1815.65661173 653.05981445 1816.63745117 C652.43268555 1817.11585449 651.80555664 1817.59425781 651.15942383 1818.0871582 C648.79218468 1819.90304203 646.46290162 1821.76394955 644.13793945 1823.63354492 C642.96038086 1824.57713867 642.96038086 1824.57713867 641.7590332 1825.53979492 C640.10349178 1826.87077386 638.45000694 1828.20431314 636.7980957 1829.53979492 C623.26702061 1840.44604492 623.26702061 1840.44604492 620.38793945 1840.44604492 C620.38793945 1841.10604492 620.38793945 1841.76604492 620.38793945 1842.44604492 C619.08782892 1843.35963611 617.77723602 1844.2599071 616.43481445 1845.11010742 C613.83569547 1846.80647897 611.33576217 1848.62097246 608.82543945 1850.44604492 C607.91665039 1851.10604492 607.00786133 1851.76604492 606.0715332 1852.44604492 C604.24829833 1853.80484588 602.46960187 1855.22507651 600.7355957 1856.69604492 C598.38793945 1858.44604492 598.38793945 1858.44604492 595.38793945 1858.44604492 C595.38793945 1859.10604492 595.38793945 1859.76604492 595.38793945 1860.44604492 C593.23171058 1862.03645487 591.07751449 1863.50205277 588.82543945 1864.94604492 C587.45294024 1865.84302218 586.08054757 1866.74016247 584.70825195 1867.63745117 C583.99701172 1868.09909668 583.28577148 1868.56074219 582.55297852 1869.03637695 C579.08561784 1871.29399316 575.64319579 1873.58865946 572.20043945 1875.88354492 C571.5777417 1876.29604492 570.95504395 1876.70854492 570.31347656 1877.13354492 C567.85208261 1878.76930063 565.46710188 1880.37882081 563.2121582 1882.29370117 C561.38793945 1883.44604492 561.38793945 1883.44604492 559.3371582 1883.39526367 C556.7344208 1882.12779836 555.79496673 1880.67198991 554.20043945 1878.25854492 C553.29745117 1876.90696289 553.29745117 1876.90696289 552.3762207 1875.52807617 C547.18054219 1867.4742641 547.18054219 1867.4742641 544.73608398 1863.63867188 C541.93425323 1859.25249395 539.01547086 1854.96564453 535.9934082 1850.72729492 C532.93526027 1846.38189738 530.04640058 1841.93150904 527.19262695 1837.44995117 C524.17781137 1832.71690153 521.13829946 1828.02230937 517.88793945 1823.44604492 C514.24890056 1818.3225496 510.8757367 1813.0422501 507.5012207 1807.74291992 C503.83613002 1802.02510747 500.00012611 1796.4494172 496.0715332 1790.91088867 C494.96369415 1789.28897118 493.90162204 1787.63466939 492.8918457 1785.94995117 C491.33377873 1783.35587083 489.64357071 1780.91008879 487.88793945 1778.44604492 C485.56485679 1775.18557802 483.44690119 1771.87764781 481.38793945 1768.44604492 C480.23537852 1766.76959266 479.06846553 1765.10292363 477.88793945 1763.44604492 C475.5654319 1760.1863852 473.42588673 1756.89023076 471.38793945 1753.44604492 C470.05689756 1751.36512028 468.71980568 1749.28842261 467.3762207 1747.21557617 C466.38793945 1745.44604492 466.38793945 1745.44604492 466.38793945 1743.44604492 C465.72793945 1743.44604492 465.06793945 1743.44604492 464.38793945 1743.44604492 C464.05793945 1741.79604492 463.72793945 1740.14604492 463.38793945 1738.44604492 C462.72793945 1738.44604492 462.06793945 1738.44604492 461.38793945 1738.44604492 C459.91484834 1736.34585478 458.5748431 1734.26836764 457.26293945 1732.07104492 C456.70413086 1731.16612305 456.70413086 1731.16612305 456.1340332 1730.24291992 C453.38793945 1725.71639176 453.38793945 1725.71639176 453.38793945 1723.44604492 C452.72793945 1723.44604492 452.06793945 1723.44604492 451.38793945 1723.44604492 C449.91484834 1721.34585478 448.5748431 1719.26836764 447.26293945 1717.07104492 C446.70413086 1716.16612305 446.70413086 1716.16612305 446.1340332 1715.24291992 C443.38793945 1710.71639176 443.38793945 1710.71639176 443.38793945 1708.44604492 C442.72793945 1708.44604492 442.06793945 1708.44604492 441.38793945 1708.44604492 C439.91484834 1706.34585478 438.5748431 1704.26836764 437.26293945 1702.07104492 C436.70413086 1701.16612305 436.70413086 1701.16612305 436.1340332 1700.24291992 C433.38793945 1695.71639176 433.38793945 1695.71639176 433.38793945 1693.44604492 C432.72793945 1693.44604492 432.06793945 1693.44604492 431.38793945 1693.44604492 C429.91484834 1691.34585478 428.5748431 1689.26836764 427.26293945 1687.07104492 C426.70413086 1686.16612305 426.70413086 1686.16612305 426.1340332 1685.24291992 C423.38793945 1680.71639176 423.38793945 1680.71639176 423.38793945 1678.44604492 C422.72793945 1678.44604492 422.06793945 1678.44604492 421.38793945 1678.44604492 C420.02075195 1676.46948242 420.02075195 1676.46948242 418.51293945 1673.82104492 C414.70221337 1667.26475956 410.4568289 1661.09327659 406.0715332 1654.91088867 C404.96369415 1653.28897118 403.90162204 1651.63466939 402.8918457 1649.94995117 C401.33377873 1647.35587083 399.64357071 1644.91008879 397.88793945 1642.44604492 C395.56485679 1639.18557802 393.44690119 1635.87764781 391.38793945 1632.44604492 C390.23537852 1630.76959266 389.06846553 1629.10292363 387.88793945 1627.44604492 C386.13145897 1624.98080916 384.44107669 1622.53465299 382.8840332 1619.93823242 C381.35164233 1617.3855813 379.68534362 1614.98986454 377.95043945 1612.57104492 C375.9302903 1609.71409758 374.00197228 1606.89234035 372.32543945 1603.82104492 C370.38504273 1600.44099902 368.19547965 1597.49584718 365.82543945 1594.41479492 C364.14639346 1592.11523193 362.81139142 1589.72237353 361.45043945 1587.22729492 C360.22910013 1585.17975547 358.84134174 1583.3354679 357.38793945 1581.44604492 C355.10788619 1578.48197568 353.23746235 1575.50350356 351.45043945 1572.22729492 C350.22910013 1570.17975547 348.84134174 1568.3354679 347.38793945 1566.44604492 C345.10788619 1563.48197568 343.23746235 1560.50350356 341.45043945 1557.22729492 C340.22910013 1555.17975547 338.84134174 1553.3354679 337.38793945 1551.44604492 C334.68104 1547.92093908 332.52077054 1544.3439776 330.38793945 1540.44604492 C329.81043945 1539.51791992 329.23293945 1538.58979492 328.63793945 1537.63354492 C327.38793945 1535.44604492 327.38793945 1535.44604492 327.38793945 1533.44604492 C326.72793945 1533.44604492 326.06793945 1533.44604492 325.38793945 1533.44604492 C323.79917314 1531.12094653 322.33109961 1528.79736269 320.88793945 1526.38354492 C319.98356757 1524.90322921 319.07727045 1523.42408822 318.16918945 1521.94604492 C317.70641602 1521.19194336 317.24364258 1520.4378418 316.7668457 1519.66088867 C314.70892536 1516.35539056 312.55933692 1513.11526227 310.38793945 1509.88354492 C309.97608398 1509.26987061 309.56422852 1508.65619629 309.13989258 1508.02392578 C308.30655214 1506.7838281 307.47256954 1505.54416171 306.63793945 1504.30493164 C304.54463181 1501.19195422 302.46702462 1498.0685311 300.38793945 1494.94604492 C297.88015964 1491.18167656 295.37052147 1487.41860577 292.8527832 1483.66088867 C288.74309704 1477.52131704 284.67431045 1471.36205231 280.70043945 1465.13354492 C277.58135025 1460.2458368 274.35982807 1455.44859489 270.9934082 1450.72729492 C267.93481865 1446.38126987 265.04554885 1441.93023056 262.19140625 1437.44799805 C258.58234361 1431.7821408 254.89451961 1426.19848326 250.9934082 1420.72729492 C247.17895608 1415.30724616 243.61731525 1409.72116919 240.04443359 1404.14038086 C237.97806626 1400.91487302 235.90156996 1397.69693993 233.80200195 1394.49291992 C233.38716553 1393.85676758 232.9723291 1393.22061523 232.54492188 1392.56518555 C231.74399113 1391.33757278 230.939569 1390.11222947 230.13134766 1388.8894043 C227.38793945 1384.67085402 227.38793945 1384.67085402 227.38793945 1382.44604492 C226.72793945 1382.44604492 226.06793945 1382.44604492 225.38793945 1382.44604492 C223.91484834 1380.34585478 222.5748431 1378.26836764 221.26293945 1376.07104492 C220.70413086 1375.16612305 220.70413086 1375.16612305 220.1340332 1374.24291992 C217.38793945 1369.71639176 217.38793945 1369.71639176 217.38793945 1367.44604492 C216.72793945 1367.44604492 216.06793945 1367.44604492 215.38793945 1367.44604492 C213.91484834 1365.34585478 212.5748431 1363.26836764 211.26293945 1361.07104492 C210.70413086 1360.16612305 210.70413086 1360.16612305 210.1340332 1359.24291992 C207.38793945 1354.71639176 207.38793945 1354.71639176 207.38793945 1352.44604492 C206.72793945 1352.44604492 206.06793945 1352.44604492 205.38793945 1352.44604492 C203.91484834 1350.34585478 202.5748431 1348.26836764 201.26293945 1346.07104492 C200.70413086 1345.16612305 200.70413086 1345.16612305 200.1340332 1344.24291992 C197.38793945 1339.71639176 197.38793945 1339.71639176 197.38793945 1337.44604492 C196.72793945 1337.44604492 196.06793945 1337.44604492 195.38793945 1337.44604492 C193.7668457 1335.21557617 193.7668457 1335.21557617 191.95043945 1332.25854492 C191.35360352 1331.29561523 190.75676758 1330.33268555 190.1418457 1329.34057617 C189.04572167 1327.53160533 187.95828584 1325.71730776 186.8840332 1323.89526367 C185.3174263 1321.33060954 183.63163101 1318.89333131 181.88793945 1316.44604492 C179.56485679 1313.18557802 177.44690119 1309.87764781 175.38793945 1306.44604492 C174.23537852 1304.76959266 173.06846553 1303.10292363 171.88793945 1301.44604492 C169.56485679 1298.18557802 167.44690119 1294.87764781 165.38793945 1291.44604492 C164.23537852 1289.76959266 163.06846553 1288.10292363 161.88793945 1286.44604492 C159.56485679 1283.18557802 157.44690119 1279.87764781 155.38793945 1276.44604492 C154.23537852 1274.76959266 153.06846553 1273.10292363 151.88793945 1271.44604492 C149.56538636 1268.18632128 147.43139507 1264.88678236 145.38793945 1261.44604492 C144.52264488 1260.12712622 143.64746584 1258.81464382 142.76293945 1257.50854492 C140.10070577 1253.54492157 137.51833445 1249.53360124 134.95043945 1245.50854492 C131.77112057 1240.53256587 128.47306015 1235.66914985 125.0559082 1230.85229492 C122.7081432 1227.46535524 120.52948208 1223.97931214 118.33325195 1220.49291992 C116.08273534 1216.96801439 113.77371218 1213.48574647 111.45043945 1210.00854492 C111.02867432 1209.3756958 110.60690918 1208.74284668 110.17236328 1208.09082031 C108.12407129 1205.02250799 106.06230126 1201.96498632 103.9699707 1198.92651367 C103.24165039 1197.86045898 102.51333008 1196.7944043 101.76293945 1195.69604492 C101.11067383 1194.75245117 100.4584082 1193.80885742 99.78637695 1192.83666992 C98.38793945 1190.44604492 98.38793945 1190.44604492 98.38793945 1187.44604492 C97.72793945 1187.44604492 97.06793945 1187.44604492 96.38793945 1187.44604492 C95.09887695 1185.76635742 95.09887695 1185.76635742 93.76293945 1183.57104492 C93.09391602 1182.49209961 93.09391602 1182.49209961 92.41137695 1181.39135742 C91.38793945 1179.44604492 91.38793945 1179.44604492 91.38793945 1177.44604492 C90.72793945 1177.44604492 90.06793945 1177.44604492 89.38793945 1177.44604492 C89.05793945 1175.79604492 88.72793945 1174.14604492 88.38793945 1172.44604492 C87.72793945 1172.44604492 87.06793945 1172.44604492 86.38793945 1172.44604492 C85.09887695 1170.76635742 85.09887695 1170.76635742 83.76293945 1168.57104492 C83.09391602 1167.49209961 83.09391602 1167.49209961 82.41137695 1166.39135742 C81.38793945 1164.44604492 81.38793945 1164.44604492 81.38793945 1162.44604492 C80.72793945 1162.44604492 80.06793945 1162.44604492 79.38793945 1162.44604492 C79.05793945 1160.79604492 78.72793945 1159.14604492 78.38793945 1157.44604492 C77.72793945 1157.44604492 77.06793945 1157.44604492 76.38793945 1157.44604492 C74.6965332 1155.18041992 74.6965332 1155.18041992 72.82543945 1152.19604492 C72.20540039 1151.22151367 71.58536133 1150.24698242 70.9465332 1149.24291992 C69.62856761 1146.87784884 68.84646504 1145.08413735 68.38793945 1142.44604492 C67.72793945 1142.44604492 67.06793945 1142.44604492 66.38793945 1142.44604492 C64.6965332 1140.18041992 64.6965332 1140.18041992 62.82543945 1137.19604492 C62.20540039 1136.22151367 61.58536133 1135.24698242 60.9465332 1134.24291992 C59.62856761 1131.87784884 58.84646504 1130.08413735 58.38793945 1127.44604492 C57.72793945 1127.44604492 57.06793945 1127.44604492 56.38793945 1127.44604492 C55.1262207 1125.61010742 55.1262207 1125.61010742 53.70043945 1123.07104492 C51.04846573 1118.49331033 48.17411722 1114.17036874 45.09887695 1109.86791992 C41.99841494 1105.47913808 39.07725832 1100.98002808 36.19140625 1096.44799805 C32.58234361 1090.7821408 28.89451961 1085.19848326 24.9934082 1079.72729492 C21.9347514 1075.38117431 19.04553236 1070.92997705 16.19116211 1066.44775391 C12.55729938 1060.7425099 8.84039724 1055.12736894 4.89575195 1049.62963867 C3.84948164 1048.1144441 2.85762879 1046.56079087 1.91137695 1044.98120117 C0.34623813 1042.37664964 -1.34912691 1039.92033775 -3.11206055 1037.44604492 C-5.43514321 1034.18557802 -7.55309881 1030.87764781 -9.61206055 1027.44604492 C-10.76462148 1025.76959266 -11.93153447 1024.10292363 -13.11206055 1022.44604492 C-15.43514321 1019.18557802 -17.55309881 1015.87764781 -19.61206055 1012.44604492 C-20.76462148 1010.76959266 -21.93153447 1009.10292363 -23.11206055 1007.44604492 C-25.43528197 1004.18538328 -27.56718422 1000.8870424 -29.61206055 997.44604492 C-30.97999605 995.29525476 -32.35425536 993.14970163 -33.73706055 991.00854492 C-34.1230542 990.40816406 -34.50904785 989.8077832 -34.90673828 989.18920898 C-36.99215667 985.94718968 -39.08928144 982.7133754 -41.2019043 979.48901367 C-41.61617676 978.85342529 -42.03044922 978.21783691 -42.45727539 977.56298828 C-43.2572383 976.3360897 -44.0608472 975.11155924 -44.8684082 973.88964844 C-47.61206055 969.67105279 -47.61206055 969.67105279 -47.61206055 967.44604492 C-48.27206055 967.44604492 -48.93206055 967.44604492 -49.61206055 967.44604492 C-51.08515166 965.34585478 -52.4251569 963.26836764 -53.73706055 961.07104492 C-54.29586914 960.16612305 -54.29586914 960.16612305 -54.8659668 959.24291992 C-57.61206055 954.71639176 -57.61206055 954.71639176 -57.61206055 952.44604492 C-58.27206055 952.44604492 -58.93206055 952.44604492 -59.61206055 952.44604492 C-61.26099448 950.01635433 -62.79471351 947.58809075 -64.29956055 945.07104492 C-68.19136958 938.69354519 -72.26634303 932.52536403 -76.61206055 926.44604492 C-77.95476875 924.45232667 -79.28859549 922.45258872 -80.61206055 920.44604492 C-81.09674805 919.72416992 -81.58143555 919.00229492 -82.08081055 918.25854492 C-82.60674805 917.47479492 -83.13268555 916.69104492 -83.67456055 915.88354492 C-84.16053711 915.16038086 -84.64651367 914.4372168 -85.1472168 913.69213867 C-86.1573774 912.14322575 -87.13217376 910.57086776 -88.0769043 908.98120117 C-89.6511194 906.38154315 -91.34880322 903.92079204 -93.11206055 901.44604492 C-95.43514321 898.18557802 -97.55309881 894.87764781 -99.61206055 891.44604492 C-100.76462148 889.76959266 -101.93153447 888.10292363 -103.11206055 886.44604492 C-105.43514321 883.18557802 -107.55309881 879.87764781 -109.61206055 876.44604492 C-110.76462148 874.76959266 -111.93153447 873.10292363 -113.11206055 871.44604492 C-115.43514321 868.18557802 -117.55309881 864.87764781 -119.61206055 861.44604492 C-120.76462148 859.76959266 -121.93153447 858.10292363 -123.11206055 856.44604492 C-125.43461364 853.18632128 -127.56860493 849.88678236 -129.61206055 846.44604492 C-130.47735512 845.12712622 -131.35253416 843.81464382 -132.23706055 842.50854492 C-134.89929423 838.54492157 -137.48166555 834.53360124 -140.04956055 830.50854492 C-143.22887943 825.53256587 -146.52693985 820.66914985 -149.9440918 815.85229492 C-152.29885505 812.45525942 -154.48363856 808.95854524 -156.6862793 805.46166992 C-158.8246755 802.1131063 -161.02420872 798.80806506 -163.23706055 795.50854492 C-167.92014027 788.52508522 -172.50369605 781.47927901 -177.05786133 774.41113281 C-179.45068881 770.71052823 -181.86433454 767.07337707 -184.4987793 763.53979492 C-186.61206055 760.44604492 -186.61206055 760.44604492 -186.61206055 757.44604492 C-187.27206055 757.44604492 -187.93206055 757.44604492 -188.61206055 757.44604492 C-190.19799805 755.25073242 -190.19799805 755.25073242 -191.98706055 752.32104492 C-192.61354492 751.30913086 -193.2400293 750.2972168 -193.88549805 749.25463867 C-194.45526367 748.32780273 -195.0250293 747.4009668 -195.61206055 746.44604492 C-198.60938481 741.85639214 -201.75740551 737.38144947 -204.9284668 732.91088867 C-206.03630585 731.28897118 -207.09837796 729.63466939 -208.1081543 727.94995117 C-209.66622127 725.35587083 -211.35642929 722.91008879 -213.11206055 720.44604492 C-214.86854103 717.98080916 -216.55892331 715.53465299 -218.1159668 712.93823242 C-219.64835767 710.3855813 -221.31465638 707.98986454 -223.04956055 705.57104492 C-225.0697097 702.71409758 -226.99802772 699.89234035 -228.67456055 696.82104492 C-230.61495727 693.44099902 -232.80452035 690.49584718 -235.17456055 687.41479492 C-236.85360654 685.11523193 -238.18860858 682.72237353 -239.54956055 680.22729492 C-240.77089987 678.17975547 -242.15865826 676.3354679 -243.61206055 674.44604492 C-245.89211381 671.48197568 -247.76253765 668.50350356 -249.54956055 665.22729492 C-250.77089987 663.17975547 -252.15865826 661.3354679 -253.61206055 659.44604492 C-255.89583527 656.47713778 -257.76844773 653.49383043 -259.55737305 650.21166992 C-260.73299129 648.2435979 -262.07226915 646.49935416 -263.48706055 644.69604492 C-267.70795326 639.20781037 -271.41732049 633.0302651 -273.61206055 626.44604492 C-274.27206055 626.44604492 -274.93206055 626.44604492 -275.61206055 626.44604492 C-275.94206055 624.79604492 -276.27206055 623.14604492 -276.61206055 621.44604492 C-277.27206055 621.44604492 -277.93206055 621.44604492 -278.61206055 621.44604492 C-279.90112305 619.76635742 -279.90112305 619.76635742 -281.23706055 617.57104492 C-281.68307617 616.85174805 -282.1290918 616.13245117 -282.58862305 615.39135742 C-283.61206055 613.44604492 -283.61206055 613.44604492 -283.61206055 611.44604492 C-284.27206055 611.44604492 -284.93206055 611.44604492 -285.61206055 611.44604492 C-285.85956055 610.86854492 -286.10706055 610.29104492 -286.36206055 609.69604492 C-287.5519653 607.31154604 -287.5519653 607.31154604 -289.73706055 605.32104492 C-290.35581055 604.70229492 -290.97456055 604.08354492 -291.61206055 603.44604492 C-291.61206055 602.78604492 -291.61206055 602.12604492 -291.61206055 601.44604492 C-292.23081055 601.34291992 -292.84956055 601.23979492 -293.48706055 601.13354492 C-295.61206055 600.44604492 -295.61206055 600.44604492 -297.61206055 597.44604492 C-299.20335956 596.46417957 -300.80524085 595.49599207 -302.4519043 594.61010742 C-303.98369693 593.78465678 -305.49521884 592.92108055 -306.9909668 592.03198242 C-318.45269532 585.370173 -330.46580697 581.87604531 -343.61206055 580.44604492 C-344.62397461 580.31198242 -345.63588867 580.17791992 -346.6784668 580.03979492 C-356.15711438 578.99583874 -365.22990154 580.09349472 -374.61206055 581.44604492 C-375.58530273 581.58010742 -376.55854492 581.71416992 -377.5612793 581.85229492 C-386.78650539 583.39726032 -395.40016351 587.25645307 -403.08862305 592.52807617 C-404.61206055 593.44604492 -404.61206055 593.44604492 -406.61206055 593.44604492 C-406.94206055 594.43604492 -407.27206055 595.42604492 -407.61206055 596.44604492 C-410.04956055 599.13354492 -410.04956055 599.13354492 -412.61206055 601.44604492 C-413.27206055 601.44604492 -413.93206055 601.44604492 -414.61206055 601.44604492 C-414.85956055 602.25041992 -415.10706055 603.05479492 -415.36206055 603.88354492 C-416.61206055 607.44604492 -416.61206055 607.44604492 -417.59133625 609.21946367 C-421.49915234 616.48241205 -421.17027205 623.88255407 -421.11821842 631.89796734 C-421.12269823 633.474925 -421.12892847 635.05187848 -421.13674375 636.62882313 C-421.15315027 640.96554304 -421.14466646 645.3019117 -421.13213213 649.63863137 C-421.12289081 654.35545854 -421.13680916 659.07222668 -421.1477713 663.78904229 C-421.16376651 672.05713669 -421.16484514 680.32512932 -421.15617371 688.59323311 C-421.14331341 700.88833803 -421.15325639 713.18335077 -421.16767325 725.47845014 C-421.19262685 747.4374679 -421.19449192 769.39644257 -421.18639914 791.35547037 C-421.17933048 810.57512883 -421.1792649 829.79477055 -421.18626213 849.01442909 C-421.18717346 851.59104139 -421.18808422 854.16765368 -421.18899442 856.74426598 C-421.19037753 860.6268584 -421.19176862 864.50945083 -421.19318055 868.39204325 C-421.206165 904.49813914 -421.21131552 940.60422639 -421.19964695 976.71032238 C-421.19942839 977.39089531 -421.19920984 978.07146824 -421.19898466 978.7726646 C-421.19653949 986.3616905 -421.19396958 993.95071635 -421.19134928 1001.53974219 C-421.19111274 1002.22491264 -421.19087619 1002.91008308 -421.19063249 1003.61601627 C-421.18967511 1006.38689856 -421.18871756 1009.15778085 -421.18775234 1011.92866314 C-421.17250736 1055.74934121 -421.18049236 1099.5699539 -421.20898438 1143.390625 C-421.21614908 1154.43109979 -421.22325175 1165.4715746 -421.22996616 1176.51204967 C-421.23058749 1177.53178261 -421.23058749 1177.53178261 -421.23122137 1178.57211621 C-421.25344716 1215.28657298 -421.25291489 1252.0010248 -421.24518436 1288.7154873 C-421.24414757 1293.87985217 -421.24316034 1299.04421704 -421.24220085 1304.20858192 C-421.24195197 1305.48020109 -421.24170308 1306.75182026 -421.24144665 1308.06197334 C-421.23800507 1327.2664844 -421.24731863 1346.47096237 -421.26297188 1365.67546654 C-421.28073211 1387.51534641 -421.28088528 1409.35514572 -421.25762022 1431.19502213 C-421.24511038 1443.41867241 -421.24638505 1455.64213763 -421.26750109 1467.86577709 C-421.2802203 1476.03127842 -421.27475486 1484.19663715 -421.25451628 1492.36212296 C-421.24349305 1497.01434087 -421.24029834 1501.66619482 -421.25919158 1506.31839564 C-421.27623656 1510.55612645 -421.27000991 1514.79318049 -421.24572573 1519.03087018 C-421.24100798 1520.54910625 -421.24453771 1522.06739796 -421.25764475 1523.58558479 C-421.36883907 1537.43204475 -418.68539442 1549.2804823 -409.26049805 1559.91088867 C-392.48220037 1575.97153055 -370.03780408 1581.95529949 -347.2956543 1581.66870117 C-340.85879958 1581.46038448 -334.81737351 1580.10232157 -328.61206055 1578.44604492 C-327.63624023 1578.21788086 -326.66041992 1577.9897168 -325.6550293 1577.75463867 C-311.88539482 1574.38444841 -297.22671091 1566.06216312 -289.16547173 1554.0383774 C-281.18613592 1540.72246233 -281.88957835 1526.97427612 -281.96579038 1511.87083975 C-281.97790144 1508.36224627 -281.96078397 1504.85376868 -281.94750386 1501.34519613 C-281.92823221 1495.20665212 -281.92731515 1489.06832255 -281.93865776 1482.92976189 C-281.95543915 1473.8021078 -281.9434704 1464.6746468 -281.92574405 1455.54700253 C-281.8967283 1440.19032098 -281.89082996 1424.83371254 -281.89821434 1409.47700882 C-281.90544737 1394.27713464 -281.90233962 1379.07732017 -281.88549232 1363.87745285 C-281.88444968 1362.93154035 -281.88340703 1361.98562786 -281.88233278 1361.01105135 C-281.87698386 1356.20702592 -281.87145087 1351.40300072 -281.86584703 1346.59897558 C-281.82651023 1312.59291945 -281.8102514 1278.58688767 -281.80761719 1244.58081055 C-281.80500552 1211.54922102 -281.79190763 1178.51766277 -281.76464844 1145.48608398 C-281.76381201 1144.46748516 -281.76297559 1143.44888634 -281.76211382 1142.39942089 C-281.75370235 1132.17001325 -281.74507808 1121.9406058 -281.73629791 1111.71119848 C-281.71841735 1090.87365923 -281.70195694 1070.03611895 -281.68635559 1049.19857788 C-281.68527703 1047.76153757 -281.68527703 1047.76153757 -281.68417668 1046.29546614 C-281.63634245 982.34566972 -281.62161077 918.39585711 -281.61206055 854.44604492 C-278.45478071 855.93081745 -276.83117576 857.10218446 -274.8503418 860.00073242 C-274.37145508 860.69811523 -273.89256836 861.39549805 -273.39916992 862.11401367 C-272.91254883 862.84233398 -272.42592773 863.5706543 -271.92456055 864.32104492 C-271.42633789 865.04163086 -270.92811523 865.7622168 -270.41479492 866.50463867 C-268.16691035 869.81698961 -266.40624497 872.47567318 -265.61206055 876.44604492 C-264.95206055 876.44604492 -264.29206055 876.44604492 -263.61206055 876.44604492 C-262.32299805 878.12573242 -262.32299805 878.12573242 -260.98706055 880.32104492 C-260.54104492 881.0403418 -260.0950293 881.75963867 -259.63549805 882.50073242 C-258.61206055 884.44604492 -258.61206055 884.44604492 -258.61206055 886.44604492 C-257.95206055 886.44604492 -257.29206055 886.44604492 -256.61206055 886.44604492 C-255.20988086 888.41834162 -253.93357272 890.38419634 -252.67456055 892.44604492 C-248.74687157 898.72513102 -244.63732716 904.8512305 -240.41894531 910.93823242 C-237.77778385 914.7495164 -235.17838498 918.58364919 -232.61206055 922.44604492 C-231.55245117 924.0006543 -231.55245117 924.0006543 -230.47143555 925.58666992 C-229.7753418 926.61276367 -229.07924805 927.63885742 -228.36206055 928.69604492 C-227.30245117 930.2506543 -227.30245117 930.2506543 -226.22143555 931.83666992 C-224.61206055 934.44604492 -224.61206055 934.44604492 -224.61206055 936.44604492 C-223.95206055 936.44604492 -223.29206055 936.44604492 -222.61206055 936.44604492 C-221.13896944 938.54623506 -219.79896419 940.62372221 -218.48706055 942.82104492 C-217.92825195 943.7259668 -217.92825195 943.7259668 -217.3581543 944.64916992 C-214.61206055 949.17569808 -214.61206055 949.17569808 -214.61206055 951.44604492 C-213.62206055 951.77604492 -212.63206055 952.10604492 -211.61206055 952.44604492 C-209.8503418 955.00073242 -209.8503418 955.00073242 -207.92456055 958.32104492 C-204.74001499 963.70139496 -201.28151745 968.74034511 -197.54956055 973.76245117 C-194.98154886 977.31935445 -192.66987828 981.01318451 -190.3503418 984.73510742 C-188.0365739 988.34354544 -185.5324584 991.80101915 -182.99487305 995.25463867 C-181.65978861 997.37040808 -181.04645142 999.00120399 -180.61206055 1001.44604492 C-179.95206055 1001.44604492 -179.29206055 1001.44604492 -178.61206055 1001.44604492 C-177.32299805 1003.12573242 -177.32299805 1003.12573242 -175.98706055 1005.32104492 C-175.54104492 1006.0403418 -175.0950293 1006.75963867 -174.63549805 1007.50073242 C-173.61206055 1009.44604492 -173.61206055 1009.44604492 -173.61206055 1011.44604492 C-172.95206055 1011.44604492 -172.29206055 1011.44604492 -171.61206055 1011.44604492 C-171.28206055 1013.09604492 -170.95206055 1014.74604492 -170.61206055 1016.44604492 C-169.62206055 1016.77604492 -168.63206055 1017.10604492 -167.61206055 1017.44604492 C-166.11249218 1019.54603218 -164.75664456 1021.61904612 -163.42456055 1023.82104492 C-159.94893666 1029.40999146 -156.28647649 1034.77177342 -152.33862305 1040.04370117 C-150.61304958 1042.44466877 -149.12344929 1044.90570573 -147.61206055 1047.44604492 C-146.07414719 1049.81669439 -144.49897211 1052.1620255 -142.92456055 1054.50854492 C-142.48901855 1055.16105225 -142.05347656 1055.81355957 -141.60473633 1056.48583984 C-139.47554868 1059.67419169 -137.33677666 1062.85545523 -135.1784668 1066.02416992 C-134.45530273 1067.09151367 -133.73213867 1068.15885742 -132.98706055 1069.25854492 C-132.33479492 1070.21374023 -131.6825293 1071.16893555 -131.01049805 1072.15307617 C-129.61206055 1074.44604492 -129.61206055 1074.44604492 -129.61206055 1076.44604492 C-128.95206055 1076.44604492 -128.29206055 1076.44604492 -127.61206055 1076.44604492 C-126.12800068 1078.5436774 -124.76475155 1080.63381286 -123.42456055 1082.82104492 C-122.61105871 1084.11892563 -121.79594362 1085.41579651 -120.97924805 1086.71166992 C-120.57673828 1087.35168945 -120.17422852 1087.99170898 -119.75952148 1088.65112305 C-117.72997903 1091.82584563 -115.53860801 1094.8820866 -113.3581543 1097.95385742 C-110.70118875 1101.74612592 -108.16155727 1105.6148374 -105.6081543 1109.47729492 C-103.1430302 1113.14362431 -100.56834446 1116.72447237 -97.9597168 1120.28979492 C-96.64922859 1122.38657605 -96.04600624 1124.02913218 -95.61206055 1126.44604492 C-94.95206055 1126.44604492 -94.29206055 1126.44604492 -93.61206055 1126.44604492 C-91.9206543 1128.71166992 -91.9206543 1128.71166992 -90.04956055 1131.69604492 C-89.42952148 1132.67057617 -88.80948242 1133.64510742 -88.1706543 1134.64916992 C-86.85268871 1137.01424101 -86.07058614 1138.80795249 -85.61206055 1141.44604492 C-84.95206055 1141.44604492 -84.29206055 1141.44604492 -83.61206055 1141.44604492 C-81.9629064 1143.70722519 -80.43097625 1145.9671652 -78.92456055 1148.32104492 C-78.02314497 1149.70316114 -77.12079804 1151.08467036 -76.2175293 1152.46557617 C-75.7745752 1153.14571777 -75.33162109 1153.82585937 -74.87524414 1154.52661133 C-72.67742042 1157.86624992 -70.36304608 1161.12197472 -68.05737305 1164.38745117 C-66.1938406 1167.04172577 -64.41098911 1169.74765208 -62.61206055 1172.44604492 C-60.8462136 1174.96227487 -59.07414227 1177.47388962 -57.2956543 1179.98120117 C-56.18922584 1181.60105351 -55.12954841 1183.25403112 -54.1237793 1184.93823242 C-52.00157656 1188.4587858 -49.55864562 1191.72593161 -47.13549805 1195.04370117 C-45.72755946 1197.26391202 -45.05048589 1198.8806642 -44.61206055 1201.44604492 C-43.95206055 1201.44604492 -43.29206055 1201.44604492 -42.61206055 1201.44604492 C-41.12802057 1203.54364929 -39.76467017 1205.63379758 -38.42456055 1207.82104492 C-37.61629614 1209.11113098 -36.8063866 1210.40018773 -35.99487305 1211.68823242 C-35.59300781 1212.32728516 -35.19114258 1212.96633789 -34.77709961 1213.62475586 C-32.69554722 1216.87881722 -30.45959701 1220.02036415 -28.2175293 1223.16479492 C-26.29779683 1225.89258996 -24.45441501 1228.66539098 -22.61206055 1231.44604492 C-16.172992 1241.15625387 -9.68113447 1250.80896771 -2.86206055 1260.25854492 C-1.64351829 1261.98481312 -0.44497452 1263.73014388 0.6262207 1265.55151367 C3.20499427 1269.78847867 6.02208746 1273.85534358 8.82543945 1277.94604492 C9.39842773 1278.78780273 9.97141602 1279.62956055 10.56176758 1280.49682617 C13.37474893 1284.60785761 16.27294545 1288.55743702 19.38793945 1292.44604492 C20.40313166 1294.10350158 21.40338507 1295.77020768 22.38793945 1297.44604492 C23.54050038 1299.12249718 24.70741337 1300.78916621 25.88793945 1302.44604492 C28.21152171 1305.707213 30.33223439 1309.01138918 32.38793945 1312.44604492 C33.94674527 1314.8583113 35.54117455 1317.24628432 37.13793945 1319.63354492 C37.57750977 1320.29338379 38.01708008 1320.95322266 38.4699707 1321.63305664 C41.55967294 1326.25522416 44.73504466 1330.80626119 48.01293945 1335.29760742 C49.48589411 1337.59909907 50.45301387 1339.88398923 51.38793945 1342.44604492 C52.04793945 1342.44604492 52.70793945 1342.44604492 53.38793945 1342.44604492 C53.71793945 1344.09604492 54.04793945 1345.74604492 54.38793945 1347.44604492 C55.04793945 1347.44604492 55.70793945 1347.44604492 56.38793945 1347.44604492 C57.67700195 1349.12573242 57.67700195 1349.12573242 59.01293945 1351.32104492 C59.68196289 1352.39999023 59.68196289 1352.39999023 60.36450195 1353.50073242 C61.38793945 1355.44604492 61.38793945 1355.44604492 61.38793945 1357.44604492 C62.37793945 1357.77604492 63.36793945 1358.10604492 64.38793945 1358.44604492 C65.35799877 1360.08511067 66.31905968 1361.73072974 67.21606445 1363.41088867 C68.87261871 1366.28777122 70.88068581 1368.84260658 72.9230957 1371.45385742 C74.57548132 1373.70110186 75.95792675 1376.05177429 77.38793945 1378.44604492 C78.54050038 1380.12249718 79.70741337 1381.78916621 80.88793945 1383.44604492 C83.21128404 1386.70687944 85.33026851 1390.01312049 87.38793945 1393.44604492 C89.48953394 1396.57633576 91.61409144 1399.69002557 93.7434082 1402.80151367 C95.38793945 1405.44604492 95.38793945 1405.44604492 95.38793945 1407.44604492 C96.04793945 1407.44604492 96.70793945 1407.44604492 97.38793945 1407.44604492 C98.67700195 1409.12573242 98.67700195 1409.12573242 100.01293945 1411.32104492 C100.68196289 1412.39999023 100.68196289 1412.39999023 101.36450195 1413.50073242 C102.38793945 1415.44604492 102.38793945 1415.44604492 102.38793945 1417.44604492 C103.04793945 1417.44604492 103.70793945 1417.44604492 104.38793945 1417.44604492 C104.71793945 1419.09604492 105.04793945 1420.74604492 105.38793945 1422.44604492 C106.37793945 1422.77604492 107.36793945 1423.10604492 108.38793945 1423.44604492 C109.88793945 1425.33666992 109.88793945 1425.33666992 111.38793945 1427.69604492 C111.88293945 1428.46432617 112.37793945 1429.23260742 112.88793945 1430.02416992 C113.86680275 1431.60462629 114.83111516 1433.19421515 115.77856445 1434.79370117 C117.80714596 1438.13692167 119.96410015 1441.38352302 122.13793945 1444.63354492 C122.57750977 1445.29338379 123.01708008 1445.95322266 123.4699707 1446.63305664 C126.55967294 1451.25522416 129.73504466 1455.80626119 133.01293945 1460.29760742 C134.48589411 1462.59909907 135.45301387 1464.88398923 136.38793945 1467.44604492 C137.04793945 1467.44604492 137.70793945 1467.44604492 138.38793945 1467.44604492 C138.71793945 1469.09604492 139.04793945 1470.74604492 139.38793945 1472.44604492 C140.04793945 1472.44604492 140.70793945 1472.44604492 141.38793945 1472.44604492 C142.67700195 1474.12573242 142.67700195 1474.12573242 144.01293945 1476.32104492 C144.68196289 1477.39999023 144.68196289 1477.39999023 145.36450195 1478.50073242 C146.38793945 1480.44604492 146.38793945 1480.44604492 146.38793945 1482.44604492 C147.04793945 1482.44604492 147.70793945 1482.44604492 148.38793945 1482.44604492 C149.87197952 1484.54364942 151.23525167 1486.63384725 152.57543945 1488.82104492 C153.38505131 1490.11240524 154.19626204 1491.40276446 155.0090332 1492.69213867 C155.41105957 1493.33135254 155.81308594 1493.97056641 156.22729492 1494.62915039 C159.24588456 1499.35450675 162.54535903 1503.89246879 165.82543945 1508.43823242 C167.55505281 1510.83704142 169.25153987 1513.21729548 170.7668457 1515.75854492 C173.2565162 1519.88599867 176.02178569 1523.82451213 178.7434082 1527.80151367 C180.38793945 1530.44604492 180.38793945 1530.44604492 180.38793945 1532.44604492 C181.04793945 1532.44604492 181.70793945 1532.44604492 182.38793945 1532.44604492 C183.67700195 1534.12573242 183.67700195 1534.12573242 185.01293945 1536.32104492 C185.68196289 1537.39999023 185.68196289 1537.39999023 186.36450195 1538.50073242 C187.38793945 1540.44604492 187.38793945 1540.44604492 187.38793945 1542.44604492 C188.04793945 1542.44604492 188.70793945 1542.44604492 189.38793945 1542.44604492 C189.71793945 1544.09604492 190.04793945 1545.74604492 190.38793945 1547.44604492 C191.04793945 1547.44604492 191.70793945 1547.44604492 192.38793945 1547.44604492 C194.0090332 1549.45776367 194.0090332 1549.45776367 195.82543945 1552.13354492 C196.42227539 1553.00366211 197.01911133 1553.8737793 197.6340332 1554.77026367 C198.72585795 1556.43596512 199.79108958 1558.11980266 200.8137207 1559.82885742 C202.8213587 1563.16661787 204.97257959 1566.39661164 207.13793945 1569.63354492 C207.57750977 1570.29265869 208.01708008 1570.95177246 208.4699707 1571.63085938 C211.57592638 1576.27338023 214.75353798 1580.85874094 218.01293945 1585.39526367 C219.3261488 1587.35388557 220.33539575 1589.34095752 221.38793945 1591.44604492 C221.92418945 1591.96166992 222.46043945 1592.47729492 223.01293945 1593.00854492 C224.38793945 1594.44604492 224.38793945 1594.44604492 224.38793945 1597.44604492 C225.04793945 1597.44604492 225.70793945 1597.44604492 226.38793945 1597.44604492 C227.67700195 1599.12573242 227.67700195 1599.12573242 229.01293945 1601.32104492 C229.68196289 1602.39999023 229.68196289 1602.39999023 230.36450195 1603.50073242 C231.38793945 1605.44604492 231.38793945 1605.44604492 231.38793945 1607.44604492 C232.04793945 1607.44604492 232.70793945 1607.44604492 233.38793945 1607.44604492 C233.71793945 1609.09604492 234.04793945 1610.74604492 234.38793945 1612.44604492 C235.04793945 1612.44604492 235.70793945 1612.44604492 236.38793945 1612.44604492 C237.7980957 1614.14135742 237.7980957 1614.14135742 239.45043945 1616.57104492 C240.07047852 1617.48112305 240.69051758 1618.39120117 241.3293457 1619.32885742 C243.93870649 1623.28003372 246.49600706 1627.26284684 249.04150391 1631.25537109 C252.80423668 1637.14091831 256.77299193 1642.86912189 260.89575195 1648.50854492 C262.82134935 1651.14936421 264.34676841 1653.3225318 265.38793945 1656.44604492 C266.71847461 1657.78217057 268.05217081 1659.11515135 269.38793945 1660.44604492 C270.52442268 1662.1194904 271.60866969 1663.82960366 272.63793945 1665.57104492 C273.1587207 1666.43987305 273.67950195 1667.30870117 274.21606445 1668.20385742 C275.38793945 1670.44604492 275.38793945 1670.44604492 275.38793945 1672.44604492 C276.04793945 1672.44604492 276.70793945 1672.44604492 277.38793945 1672.44604492 C279.0090332 1674.45776367 279.0090332 1674.45776367 280.82543945 1677.13354492 C281.42227539 1678.00366211 282.01911133 1678.8737793 282.6340332 1679.77026367 C283.75460764 1681.47982601 284.8441763 1683.21038977 285.8918457 1684.96557617 C287.44998659 1687.54891681 289.13759306 1689.9894184 290.88793945 1692.44604492 C293.21097973 1695.70645233 295.33055373 1699.01348755 297.38793945 1702.44604492 C298.51904924 1704.10203165 299.66519787 1705.74783686 300.82543945 1707.38354492 C301.43516602 1708.25108398 302.04489258 1709.11862305 302.6730957 1710.01245117 C303.67820625 1711.43883812 304.68516342 1712.86393294 305.6965332 1714.28588867 C307.54656171 1716.94911653 308.89041237 1719.21211888 309.38793945 1722.44604492 C310.04793945 1722.44604492 310.70793945 1722.44604492 311.38793945 1722.44604492 C312.67700195 1724.12573242 312.67700195 1724.12573242 314.01293945 1726.32104492 C314.68196289 1727.39999023 314.68196289 1727.39999023 315.36450195 1728.50073242 C316.38793945 1730.44604492 316.38793945 1730.44604492 316.38793945 1732.44604492 C317.04793945 1732.44604492 317.70793945 1732.44604492 318.38793945 1732.44604492 C318.71793945 1734.09604492 319.04793945 1735.74604492 319.38793945 1737.44604492 C320.04793945 1737.44604492 320.70793945 1737.44604492 321.38793945 1737.44604492 C322.7980957 1739.14135742 322.7980957 1739.14135742 324.45043945 1741.57104492 C325.07047852 1742.48112305 325.69051758 1743.39120117 326.3293457 1744.32885742 C328.93870649 1748.28003372 331.49600706 1752.26284684 334.04150391 1756.25537109 C337.78713352 1762.11416608 341.7567562 1767.79956813 345.82543945 1773.43823242 C347.5711571 1775.85937654 349.27794059 1778.26068771 350.80200195 1780.82885742 C352.95570716 1784.38300148 355.41473022 1787.68947785 357.86450195 1791.04370117 C359.27244054 1793.26391202 359.94951411 1794.8806642 360.38793945 1797.44604492 C361.04793945 1797.44604492 361.70793945 1797.44604492 362.38793945 1797.44604492 C363.67700195 1799.12573242 363.67700195 1799.12573242 365.01293945 1801.32104492 C365.68196289 1802.39999023 365.68196289 1802.39999023 366.36450195 1803.50073242 C367.38793945 1805.44604492 367.38793945 1805.44604492 367.38793945 1807.44604492 C368.04793945 1807.44604492 368.70793945 1807.44604492 369.38793945 1807.44604492 C370.44447429 1809.07745901 371.42941274 1810.75518588 372.38793945 1812.44604492 C373.93976829 1814.86276918 375.5409156 1817.24650072 377.13793945 1819.63354492 C377.79947021 1820.62439087 377.79947021 1820.62439087 378.47436523 1821.63525391 C381.53007612 1826.19882649 384.63962769 1830.7204095 387.81762695 1835.19995117 C390.49099699 1839.02380135 393.04557308 1842.92666396 395.61450195 1846.82104492 C399.78520787 1853.13226727 404.01412487 1859.38051108 408.45043945 1865.50854492 C412.22054725 1870.71996956 415.75807865 1876.04178381 419.20239258 1881.47314453 C421.90216777 1885.72241326 424.73097433 1889.85424034 427.64575195 1893.95776367 C429.58981336 1896.73437155 431.458717 1899.5544072 433.32543945 1902.38354492 C436.61926186 1907.35631961 440.06735134 1912.18732297 443.6262207 1916.97338867 C445.38793945 1919.44604492 445.38793945 1919.44604492 446.8293457 1921.85229492 C449.09231799 1925.6182438 451.67622303 1929.1578695 454.24731445 1932.7175293 C456.25389786 1935.55797435 457.89346075 1937.9591175 458.38793945 1941.44604492 C456.36921673 1942.55406566 454.34785321 1943.65727565 452.32543945 1944.75854492 C451.20008789 1945.37342773 450.07473633 1945.98831055 448.9152832 1946.62182617 C445.46169097 1948.40790322 441.96483646 1949.92566364 438.38793945 1951.44604492 C436.10926499 1952.57620453 433.8384334 1953.72230574 431.57543945 1954.88354492 C426.78136495 1957.31574421 421.96734377 1959.49776708 416.9465332 1961.41870117 C413.87226592 1962.65310162 410.8884415 1964.04207605 407.88793945 1965.44604492 C403.27444037 1967.59901116 398.64524172 1969.60307371 393.90356445 1971.45385742 C391.10927224 1972.55595404 388.34339836 1973.71694444 385.57543945 1974.88354492 C376.60858543 1978.63123007 367.52723974 1982.06127138 358.3840332 1985.35229492 C355.47448445 1986.41445092 352.57808084 1987.50852711 349.68261719 1988.60839844 C341.98068175 1991.52823665 334.2288026 1994.22769515 326.39770508 1996.78540039 C324.22992513 1997.49798695 322.06645923 1998.2226755 319.90356445 1998.94995117 C308.32042337 2002.84357744 296.72592479 2006.58334367 284.9152832 2009.73510742 C282.63994765 2010.37515544 280.42939739 2011.09982814 278.20043945 2011.88354492 C272.12624722 2013.95478008 265.87591376 2015.37480625 259.64624023 2016.89135742 C257.36846663 2017.45082787 255.09466183 2018.0242584 252.8215332 2018.60229492 C234.95115551 2023.14021983 217.01989144 2027.61749092 198.8527832 2030.80541992 C196.22493246 2031.29129086 193.64292667 2031.8334626 191.0402832 2032.43041992 C186.39164751 2033.47908052 181.72378272 2034.23763657 177.01293945 2034.94604492 C171.91314126 2035.72817129 166.82803281 2036.52193931 161.76293945 2037.50854492 C156.62422667 2038.47156022 151.45346921 2039.0511025 146.26049805 2039.62597656 C141.59635497 2040.15329372 136.97038068 2040.80764183 132.33642578 2041.55371094 C123.16208789 2043.02376388 114.0248039 2044.00783675 104.75611877 2044.65646362 C99.02570771 2045.06042266 93.31949434 2045.542654 87.61083984 2046.18676758 C62.40043647 2048.92616691 37.22913319 2048.90779139 11.89404297 2048.8371582 C5.6979841 2048.82007713 -0.49768764 2048.83020878 -6.69373322 2048.8475008 C-32.32456964 2048.90793689 -57.6802034 2048.56967589 -83.17431641 2045.79679871 C-87.71245675 2045.33377126 -92.2550373 2045.00876179 -96.80625916 2044.70504761 C-108.28681812 2043.9353057 -119.51567712 2042.31263102 -130.85424805 2040.38745117 C-135.80332044 2039.55446317 -140.74735284 2038.91188736 -145.73706055 2038.38354492 C-152.24671362 2037.68627664 -158.58699181 2036.52013354 -164.9909668 2035.16479492 C-168.56582503 2034.4552222 -172.12470502 2033.92503129 -175.73706055 2033.44604492 C-181.31688676 2032.68914025 -186.70543738 2031.56217407 -192.17456055 2030.23510742 C-197.37945775 2029.04034693 -202.62810018 2028.12456294 -207.88549805 2027.19213867 C-211.53493106 2026.46148699 -215.03658405 2025.47176234 -218.61206055 2024.44604492 C-220.41908297 2024.12216893 -222.23203606 2023.82956074 -224.04956055 2023.57104492 C-235.12606659 2021.79880396 -245.8598244 2018.75218705 -256.54174805 2015.37963867 C-260.48380887 2014.18097132 -264.46183824 2013.19629604 -268.46362305 2012.21948242 C-285.41875238 2008.05432658 -301.92593515 2002.72668207 -318.46313477 1997.16479492 C-320.48030346 1996.49011364 -322.50032682 1995.82517236 -324.5222168 1995.16479492 C-333.6523357 1992.16942468 -342.64020671 1988.87899757 -351.61206055 1985.44604492 C-352.72452148 1985.02323242 -353.83698242 1984.60041992 -354.9831543 1984.16479492 C-362.05466496 1981.46429146 -369.08867778 1978.67495472 -376.11206055 1975.85229492 C-379.00546526 1974.68976624 -381.90182531 1973.53520892 -384.79956055 1972.38354492 C-393.28137315 1968.98520278 -401.67637511 1965.44574378 -409.9753418 1961.62182617 C-412.43525765 1960.52488592 -414.91014899 1959.53497105 -417.42456055 1958.57104492 C-424.03285295 1955.97605569 -430.29685808 1952.67252609 -436.61206055 1949.44604492 C-443.22882575 1946.07709736 -443.22882575 1946.07709736 -449.98706055 1943.00854492 C-455.30873694 1940.71471889 -460.44265538 1938.06139615 -465.61206055 1935.44604492 C-467.08739258 1934.71321289 -467.08739258 1934.71321289 -468.5925293 1933.96557617 C-476.69877583 1929.88623607 -484.60556057 1925.5047623 -492.3503418 1920.77807617 C-495.02430292 1919.20325623 -497.77094813 1917.85395916 -500.5612793 1916.50073242 C-503.80335171 1914.8333809 -506.88039146 1912.90317857 -509.9909668 1911.00463867 C-512.57804922 1909.46626924 -515.20297596 1908.04313308 -517.86206055 1906.63354492 C-522.9392035 1903.90025347 -527.76353362 1900.85836606 -532.57788086 1897.69287109 C-535.4219597 1895.82763629 -538.28465926 1894.03664186 -541.24487305 1892.36401367 C-543.99909852 1890.79519151 -546.62096387 1889.1672472 -549.23706055 1887.38354492 C-551.49020926 1885.85026502 -553.73805876 1884.37108396 -556.08081055 1882.97729492 C-558.64209596 1881.42787535 -561.05508511 1879.75288513 -563.48706055 1878.00854492 C-566.82910333 1875.6474262 -570.16306882 1873.51124565 -573.7487793 1871.55151367 C-577.12609923 1869.54777879 -580.28305247 1867.21732635 -583.4753418 1864.93432617 C-585.52969472 1863.42712847 -585.52969472 1863.42712847 -587.61206055 1862.44604492 C-587.61206055 1861.78604492 -587.61206055 1861.12604492 -587.61206055 1860.44604492 C-588.33393555 1860.19854492 -589.05581055 1859.95104492 -589.79956055 1859.69604492 C-592.88100789 1858.32651277 -595.01808505 1856.58607471 -597.61206055 1854.44604492 C-598.68520508 1853.81182617 -598.68520508 1853.81182617 -599.7800293 1853.16479492 C-603.47137305 1850.92453113 -606.93572525 1848.42421828 -610.42456055 1845.88354492 C-611.11743164 1845.38918945 -611.81030273 1844.89483398 -612.52416992 1844.38549805 C-614.25817451 1843.12300604 -615.9402456 1841.78980561 -617.61206055 1840.44604492 C-617.61206055 1839.78604492 -617.61206055 1839.12604492 -617.61206055 1838.44604492 C-618.4609082 1838.30875977 -618.4609082 1838.30875977 -619.3269043 1838.16870117 C-622.20329832 1837.25907229 -623.86833419 1835.82503037 -626.17456055 1833.88354492 C-630.73844201 1830.11868128 -635.43974509 1826.63014783 -640.2644043 1823.20776367 C-642.2560367 1821.71321091 -643.87422908 1820.2111009 -645.61206055 1818.44604492 C-647.26765139 1817.09898349 -648.93556333 1815.76699634 -650.61206055 1814.44604492 C-653.39406199 1812.18237854 -656.16898592 1809.91042246 -658.94018555 1807.63354492 C-660.50483432 1806.35254593 -662.07519604 1805.07836484 -663.65893555 1803.82104492 C-665.01188631 1802.73868431 -666.31901239 1801.59930409 -667.61206055 1800.44604492 C-667.61206055 1799.78604492 -667.61206055 1799.12604492 -667.61206055 1798.44604492 C-668.33393555 1798.21916992 -669.05581055 1797.99229492 -669.79956055 1797.75854492 C-673.17788382 1796.18199406 -675.05002793 1794.13617917 -677.61206055 1791.44604492 C-678.54018555 1790.72416992 -679.46831055 1790.00229492 -680.42456055 1789.25854492 C-681.14643555 1788.66041992 -681.86831055 1788.06229492 -682.61206055 1787.44604492 C-682.61206055 1786.78604492 -682.61206055 1786.12604492 -682.61206055 1785.44604492 C-683.20212891 1785.17816162 -683.79219727 1784.91027832 -684.40014648 1784.63427734 C-686.63390513 1783.43431009 -688.17479479 1782.1799248 -690.00268555 1780.43432617 C-690.63045898 1779.84071289 -691.25823242 1779.24709961 -691.9050293 1778.63549805 C-692.87375977 1777.70640625 -692.87375977 1777.70640625 -693.86206055 1776.75854492 C-695.13686487 1775.5450042 -696.41291051 1774.33276615 -697.69018555 1773.12182617 C-698.25125 1772.58468994 -698.81231445 1772.04755371 -699.39038086 1771.49414062 C-701.30697862 1769.72729023 -703.25938286 1768.02810187 -705.23583984 1766.3293457 C-710.22239871 1761.97859914 -714.88105323 1757.32064532 -719.5534668 1752.63745117 C-720.47997543 1751.71189926 -721.40648407 1750.78634735 -722.36106873 1749.83274841 C-724.30988415 1747.88539637 -726.25690792 1745.9362758 -728.20263672 1743.98583984 C-730.67569916 1741.50708098 -733.15322587 1739.03284061 -735.63212681 1736.55992222 C-738.02502255 1734.17154347 -740.41406372 1731.77932413 -742.8034668 1729.38745117 C-743.68281387 1728.51012833 -744.56216095 1727.63280548 -745.46815491 1726.72889709 C-750.38620702 1721.79226894 -755.08507407 1716.74232703 -759.61206055 1711.44604492 C-761.10776282 1709.77552031 -762.60710321 1708.10823661 -764.11206055 1706.44604492 C-767.40907434 1702.79138895 -770.67882495 1699.11648266 -773.9050293 1695.39916992 C-775.1249858 1694.00333868 -776.35831715 1692.61915155 -777.6003418 1691.24291992 C-778.24358398 1690.52620117 -778.88682617 1689.80948242 -779.54956055 1689.07104492 C-780.13608398 1688.42393555 -780.72260742 1687.77682617 -781.3269043 1687.11010742 C-782.61206055 1685.44604492 -782.61206055 1685.44604492 -782.61206055 1683.44604492 C-783.60206055 1683.11604492 -784.59206055 1682.78604492 -785.61206055 1682.44604492 C-787.36477118 1680.3972683 -788.99710429 1678.34884515 -790.61206055 1676.19604492 C-794.38603537 1671.26804997 -798.24518842 1666.45851317 -802.29956055 1661.75854492 C-807.06338302 1656.20946772 -811.38605855 1650.41626944 -815.61206055 1644.44604492 C-816.17924805 1643.72545898 -816.74643555 1643.00487305 -817.33081055 1642.26245117 C-818.61206055 1640.44604492 -818.61206055 1640.44604492 -818.61206055 1638.44604492 C-819.60206055 1638.11604492 -820.59206055 1637.78604492 -821.61206055 1637.44604492 C-822.56035652 1636.09133639 -823.49826756 1634.72779816 -824.3737793 1633.32495117 C-825.85659334 1631.07500305 -827.50043945 1628.99469974 -829.17456055 1626.88354492 C-831.57613879 1623.83206812 -833.61470021 1620.77497882 -835.61206055 1617.44604492 C-837.3433375 1615.18206737 -839.10908574 1612.94975039 -840.89331055 1610.72729492 C-842.65836882 1608.38458122 -844.11985908 1605.96950603 -845.61206055 1603.44604492 C-846.72169656 1601.81051506 -847.84708779 1600.18557647 -848.98706055 1598.57104492 C-849.90551758 1597.26586914 -849.90551758 1597.26586914 -850.8425293 1595.93432617 C-852.31420114 1593.86488916 -853.80354929 1591.81034983 -855.29956055 1589.75854492 C-857.2620025 1587.0315152 -858.8974683 1584.18964372 -860.5222168 1581.24682617 C-861.71664042 1579.27324448 -863.06388611 1577.5110544 -864.48706055 1575.69604492 C-867.49592544 1571.78225825 -869.75376039 1567.63855559 -872.05737305 1563.28198242 C-873.57170082 1560.51966593 -875.20511304 1557.89714409 -876.92456055 1555.25854492 C-881.11283375 1548.78998964 -884.81758695 1542.06844835 -888.55834961 1535.3359375 C-891.82923227 1529.42892508 -891.82923227 1529.42892508 -895.48706055 1523.75854492 C-898.05980159 1519.74809565 -900.06979057 1515.5538055 -902.1628418 1511.27807617 C-903.75761036 1508.16161469 -905.6564063 1505.34580811 -907.61206055 1502.44604492 C-908.34295806 1500.75571575 -909.07196655 1499.06449723 -909.78417969 1497.36621094 C-911.14579564 1494.20811319 -912.69110403 1491.14163175 -914.23706055 1488.07104492 C-914.57825928 1487.38985596 -914.91945801 1486.70866699 -915.27099609 1486.00683594 C-918.27039697 1480.05213304 -921.38349361 1474.15947464 -924.55395508 1468.29418945 C-926.80868711 1464.09223529 -928.76952852 1459.84989893 -930.61206055 1455.44604492 C-931.58413313 1453.33859157 -932.5632453 1451.23437023 -933.54956055 1449.13354492 C-935.72883103 1444.4368413 -937.74045635 1439.71806437 -939.61987305 1434.89526367 C-940.68461505 1432.26694384 -941.85466191 1429.70517459 -943.04956055 1427.13354492 C-945.38147034 1422.07037688 -947.38990206 1416.92147256 -949.3581543 1411.70776367 C-950.57172688 1408.55096272 -951.8569877 1405.4356743 -953.17456055 1402.32104492 C-955.17871088 1397.56511451 -956.97816464 1392.76393945 -958.7097168 1387.90307617 C-959.46383022 1385.84966775 -960.30868232 1383.82988242 -961.17456055 1381.82104492 C-962.90294127 1377.76310757 -964.25715341 1373.64042252 -965.61206055 1369.44604492 C-968.13529799 1361.46276352 -968.13529799 1361.46276352 -971.23706055 1353.69604492 C-972.50959757 1350.68823013 -973.29438412 1347.7732512 -974.06323242 1344.60864258 C-974.92815506 1341.20050879 -975.98519639 1337.85876169 -977.04956055 1334.50854492 C-977.2712793 1333.8039917 -977.49299805 1333.09943848 -977.72143555 1332.37353516 C-978.81658461 1328.90596339 -979.93591039 1325.44962425 -981.11206055 1322.00854492 C-984.5733333 1311.72305828 -987.52191068 1301.29064882 -989.8659668 1290.69604492 C-991.50498425 1283.55645056 -993.46840361 1276.48556714 -995.46362305 1269.43823242 C-996.64733373 1265.24143999 -997.720945 1261.09506628 -998.44799805 1256.79370117 C-999.35561355 1251.68825685 -1000.40078799 1246.62115441 -1001.48706055 1241.55151367 C-1001.74366959 1240.35049515 -1001.74366959 1240.35049515 -1002.00546265 1239.12521362 C-1002.71816878 1235.7938876 -1003.43258889 1232.46295341 -1004.15307617 1229.13330078 C-1006.14962244 1219.89201413 -1007.97525202 1210.71688249 -1009.21801758 1201.34033203 C-1009.68700259 1197.8955877 -1010.3417485 1194.53664126 -1011.04956055 1191.13354492 C-1012.67101772 1182.95761494 -1013.60710751 1174.71374294 -1014.55493164 1166.43701172 C-1015.15035495 1161.24770486 -1015.78280629 1156.0945324 -1016.67456055 1150.94604492 C-1017.78089922 1144.07223579 -1018.27187277 1137.15558978 -1018.77441406 1130.21607971 C-1019.20717111 1124.28820511 -1019.70839293 1118.38006172 -1020.35668945 1112.47167969 C-1023.10007911 1086.42643342 -1023.10712595 1060.40202655 -1023.05810547 1034.23486328 C-1023.04894029 1029.0999314 -1023.05580282 1023.96545539 -1023.07861328 1018.83056641 C-1023.21392464 988.23325093 -1022.44395758 958.0994114 -1019.06596375 927.67706299 C-1018.43426191 921.92264988 -1017.98692227 916.15544939 -1017.54956055 910.38354492 C-1016.92871046 902.95706496 -1015.96047841 895.64797258 -1014.71728516 888.30029297 C-1013.81560776 882.94434065 -1013.15647879 877.59928067 -1012.61206055 872.19604492 C-1011.91264429 865.35525016 -1010.76569929 858.76161061 -1009.33081055 852.03198242 C-1008.61665906 848.46898753 -1008.0891165 844.92281735 -1007.61206055 841.32104492 C-1006.85246257 835.72136396 -1005.71717573 830.31439425 -1004.3894043 824.82495117 C-1003.5631884 821.23361071 -1002.89009118 817.63526305 -1002.23706055 814.00854492 C-997.13358215 785.97882944 -989.96755249 757.91739709 -981.29345703 730.78442383 C-980.15934076 727.23290958 -979.11335666 723.67886022 -978.17456055 720.07104492 C-976.25141837 712.83481505 -973.76973507 705.77648388 -971.36743164 698.6887207 C-970.66370976 696.59939 -969.97252359 694.50652445 -969.2878418 692.41088867 C-966.98164377 685.37589343 -964.49995873 678.45457519 -961.7956543 671.56323242 C-960.6426146 668.52651401 -959.6113942 665.47385379 -958.61206055 662.38354492 C-956.93387261 657.24747782 -954.95550752 652.29682592 -952.8347168 647.32885742 C-951.69185428 644.63418477 -950.61278587 641.92290517 -949.54956055 639.19604492 C-948.08993436 635.51473871 -946.42118136 632.02003775 -944.61206055 628.50073242 C-942.33950292 623.83133667 -940.55204629 618.93351811 -938.7175293 614.07885742 C-936.52733605 608.39367496 -933.93291911 602.9696379 -931.17700195 597.54199219 C-929.60084185 594.43478946 -928.067201 591.32733369 -926.67456055 588.13354492 C-920.61239415 574.24427761 -913.78061611 560.79253446 -906.61206055 547.44604492 C-906.04358398 546.38256836 -905.47510742 545.3190918 -904.8894043 544.22338867 C-902.3906806 539.59242075 -899.79100556 535.03765457 -897.11206055 530.50854492 C-894.15872224 525.50156077 -891.55029306 520.39302157 -889.0690918 515.13745117 C-887.5208618 512.27758397 -885.67442639 509.95215752 -883.61206055 507.44604492 C-883.17893555 506.57979492 -882.74581055 505.71354492 -882.29956055 504.82104492 C-880.25293609 500.72779601 -877.81437902 496.96936624 -875.33081055 493.12963867 C-873.15206063 489.72781777 -871.08710734 486.27405269 -869.0769043 482.77026367 C-868.57288086 481.90014648 -868.06885742 481.0300293 -867.54956055 480.13354492 C-867.04295898 479.25053711 -866.53635742 478.3675293 -866.0144043 477.45776367 C-865.32024414 476.46196289 -865.32024414 476.46196289 -864.61206055 475.44604492 C-863.95206055 475.44604492 -863.29206055 475.44604492 -862.61206055 475.44604492 C-862.52182617 474.72674805 -862.4315918 474.00745117 -862.33862305 473.26635742 C-861.4770011 469.9217819 -860.09501315 468.04754732 -857.98706055 465.32104492 C-854.43000849 460.5996341 -851.18951711 455.76997543 -848.05737305 450.75854492 C-846.93874134 448.96873418 -845.78282747 447.20219531 -844.61206055 445.44604492 C-843.95206055 445.44604492 -843.29206055 445.44604492 -842.61206055 445.44604492 C-842.5244043 444.8969043 -842.43674805 444.34776367 -842.34643555 443.78198242 C-841.38484401 440.72330295 -839.77561396 438.63923502 -837.86206055 436.07104492 C-837.14147461 435.10166992 -836.42088867 434.13229492 -835.6784668 433.13354492 C-834.09148611 431.06957003 -832.48671934 429.05229562 -830.79956055 427.07104492 C-828.62928427 424.60527765 -828.62928427 424.60527765 -827.29174805 422.23510742 C-825.2034257 418.76752102 -822.89774704 415.49102568 -820.54956055 412.19604492 C-820.10290039 411.55924805 -819.65624023 410.92245117 -819.19604492 410.26635742 C-815.85013858 405.56508394 -815.85013858 405.56508394 -813.61206055 404.44604492 C-812.60391159 402.7842948 -811.60608759 401.11628084 -810.61206055 399.44604492 C-808.82153721 396.95822672 -806.94013025 394.54582243 -805.04956055 392.13354492 C-804.55520508 391.48836914 -804.06084961 390.84319336 -803.55151367 390.1784668 C-802.28713575 388.56163711 -800.9545503 386.99862697 -799.61206055 385.44604492 C-798.95206055 385.44604492 -798.29206055 385.44604492 -797.61206055 385.44604492 C-797.50893555 384.82729492 -797.40581055 384.20854492 -797.29956055 383.57104492 C-796.61206055 381.44604492 -796.61206055 381.44604492 -793.61206055 379.44604492 C-792.41973442 377.39600538 -792.41973442 377.39600538 -791.61206055 375.44604492 C-790.95206055 375.44604492 -790.29206055 375.44604492 -789.61206055 375.44604492 C-789.27174805 374.36323242 -789.27174805 374.36323242 -788.92456055 373.25854492 C-787.65683538 370.541991 -786.35133565 369.05832189 -784.1784668 367.04760742 C-781.29287382 364.09725051 -778.88307026 360.73407868 -776.3815918 357.45776367 C-775.50567383 356.46196289 -775.50567383 356.46196289 -774.61206055 355.44604492 C-773.95206055 355.44604492 -773.29206055 355.44604492 -772.61206055 355.44604492 C-772.27174805 354.64166992 -772.27174805 354.64166992 -771.92456055 353.82104492 C-769.04750671 348.6149475 -764.78186099 344.61584536 -760.61206055 340.44604492 C-759.95206055 339.62104492 -759.29206055 338.79604492 -758.61206055 337.94604492 C-756.43928274 335.23007266 -754.10026677 332.877701 -751.61206055 330.44604492 C-747.25231512 326.17656337 -743.00720667 321.90297509 -739.1315918 317.18432617 C-737.0680341 314.82370104 -734.84036349 312.65140945 -732.61206055 310.44604492 C-731.31848633 309.13506836 -731.31848633 309.13506836 -729.9987793 307.79760742 C-725.24378945 302.99444836 -720.44886806 298.32030003 -715.3112793 293.92260742 C-712.95741955 291.87718447 -710.78841579 289.67820414 -708.61206055 287.44604492 C-703.01365167 281.70906157 -697.21662466 276.29616538 -690.92456055 271.32104492 C-687.4798017 268.52799721 -684.46868816 265.35162269 -681.42456055 262.13354492 C-679.61206055 260.44604492 -679.61206055 260.44604492 -677.61206055 260.44604492 C-677.28206055 259.45604492 -676.95206055 258.46604492 -676.61206055 257.44604492 C-674.8797978 255.83791827 -673.07755965 254.30407176 -671.23706055 252.82104492 C-670.25995117 252.0244043 -669.2828418 251.22776367 -668.27612305 250.40698242 C-665.61206055 248.44604492 -665.61206055 248.44604492 -662.61206055 247.44604492 C-662.61206055 246.78604492 -662.61206055 246.12604492 -662.61206055 245.44604492 C-660.93237305 243.93823242 -660.93237305 243.93823242 -658.73706055 242.32104492 C-658.01776367 241.7822168 -657.2984668 241.24338867 -656.55737305 240.68823242 C-654.61206055 239.44604492 -654.61206055 239.44604492 -652.61206055 239.44604492 C-651.95206055 238.12604492 -651.29206055 236.80604492 -650.61206055 235.44604492 C-649.62206055 235.44604492 -648.63206055 235.44604492 -647.61206055 235.44604492 C-647.40323242 234.88014648 -647.1944043 234.31424805 -646.97924805 233.73120117 C-645.10323959 230.59558704 -642.68937774 229.01657605 -639.73706055 226.88354492 C-638.68776367 226.11913086 -637.6384668 225.3547168 -636.55737305 224.56713867 C-635.58541992 223.86717773 -634.6134668 223.1672168 -633.61206055 222.44604492 C-632.86698242 221.85952148 -632.1219043 221.27299805 -631.35424805 220.66870117 C-629.61206055 219.44604492 -629.61206055 219.44604492 -627.61206055 219.44604492 C-626.95206055 218.12604492 -626.29206055 216.80604492 -625.61206055 215.44604492 C-624.62206055 215.44604492 -623.63206055 215.44604492 -622.61206055 215.44604492 C-622.61206055 214.78604492 -622.61206055 214.12604492 -622.61206055 213.44604492 C-620.37210409 211.72095296 -618.13121727 210.10050365 -615.79956055 208.50854492 C-614.52037366 207.6270992 -613.24296855 206.743061 -611.9675293 205.85620117 C-611.11130981 205.27044312 -611.11130981 205.27044312 -610.23779297 204.67285156 C-608.53567979 203.38840664 -607.11553461 201.95414902 -605.61206055 200.44604492 C-603.94539388 199.44604492 -602.27872721 198.44604492 -600.61206055 197.44604492 C-598.64328358 196.00607169 -596.70479786 194.53182827 -594.7722168 193.04370117 C-592.11393912 191.07763324 -589.37243209 189.26607012 -586.61206055 187.44604492 C-585.43987042 186.66917645 -584.26800716 185.89181459 -583.09643555 185.11401367 C-582.18752563 184.51061157 -582.18752563 184.51061157 -581.26025391 183.89501953 C-576.31781791 180.61044503 -571.38929052 177.31870981 -566.54956055 173.88354492 C-549.5748139 161.91453081 -531.58717788 150.80044393 -513.3190918 140.93823242 C-510.7753602 139.53606003 -508.28388836 138.07546602 -505.79956055 136.57104492 C-496.10797761 130.70710138 -486.33858919 125.22233994 -476.1706543 120.22338867 C-472.48774068 118.38395322 -468.86037841 116.46156242 -465.23706055 114.50854492 C-450.51757128 106.61309871 -435.4665394 99.56061944 -420.25952148 92.65454102 C-418.07148724 91.65576109 -415.88980112 90.64608381 -413.71362305 89.62182617 C-407.75570244 86.81939685 -401.7500279 84.24743632 -395.62207031 81.83764648 C-390.37383834 79.77018143 -385.17898495 77.58815862 -379.98706055 75.38354492 C-360.23208344 67.03240056 -340.00748133 59.75609051 -319.61889648 53.10571289 C-317.24087754 52.32403319 -314.86782574 51.5281272 -312.49487305 50.73120117 C-299.27739074 46.29351585 -286.07583748 42.04163693 -272.5847168 38.50073242 C-269.21939463 37.61428977 -265.86803037 36.6837127 -262.51831055 35.74023438 C-227.70110037 25.94395185 -227.70110037 25.94395185 -211.62768555 23.05151367 C-208.50773302 22.46880228 -208.50773302 22.46880228 -205.10424805 21.43041992 C-201.87376446 20.51981381 -198.80831913 19.95449396 -195.48706055 19.50854492 C-191.0848825 18.86822811 -186.80735165 18.0665754 -182.48706055 17.00854492 C-176.25838017 15.51184745 -170.00407372 14.4869025 -163.67407227 13.53613281 C-159.52227861 12.91207934 -155.39434479 12.2278767 -151.26831055 11.44995117 C-145.4494464 10.37714574 -139.61139031 9.64061442 -133.73706055 8.94604492 C-127.52784542 8.19679492 -121.33902952 7.44869806 -115.17456055 6.38354492 C-108.28067793 5.28412835 -101.34487043 4.78832309 -94.38659668 4.28369141 C-88.4357302 3.84885017 -82.50379941 3.3457459 -76.57177734 2.70141602 C-51.07235517 0.03677023 -25.6185773 -0.04977599 0 0 Z M295.13793945 576.50854492 C294.56043945 577.14791992 293.98293945 577.78729492 293.38793945 578.44604492 C292.72793945 579.10604492 292.06793945 579.76604492 291.38793945 580.44604492 C283.49734981 592.28192939 284.81953728 605.97885276 284.86654663 619.6068573 C284.86050192 622.08568463 284.8527221 624.56450822 284.8433615 627.04332525 C284.82709306 632.42249485 284.8231939 637.8014596 284.83036804 643.18063354 C284.84100793 651.17960979 284.82876587 659.17843927 284.81220218 667.17739956 C284.78175785 682.29450878 284.7783081 697.41155088 284.78324823 712.52868434 C284.78691584 724.20024088 284.78339069 735.87177545 284.77479935 747.54332924 C284.77359454 749.2210993 284.77239215 750.89886936 284.77119214 752.57663942 C284.76937762 755.10493845 284.76756028 757.63323747 284.76572744 760.16153649 C284.74887463 783.65974832 284.74019297 807.15795191 284.74854088 830.65616894 C284.74885363 831.54156594 284.74916638 832.42696294 284.74948861 833.33919015 C284.75110014 837.82659815 284.75279169 842.31400613 284.75451522 846.80141409 C284.75485739 847.69260904 284.75519957 848.58380399 284.75555211 849.50200484 C284.75624542 851.30421413 284.75694248 853.10642343 284.75764328 854.90863272 C284.76836313 882.9653426 284.75247895 911.02192683 284.71557617 939.07861328 C284.67415388 970.60826501 284.65268681 1002.13783892 284.66072714 1033.66751939 C284.66151783 1037.02841555 284.66224093 1040.38931172 284.66292191 1043.7502079 C284.66310337 1044.57773338 284.66328483 1045.40525885 284.66347179 1046.25786086 C284.66580429 1058.7531746 284.65250344 1071.24840974 284.63129807 1083.74370384 C284.6072145 1097.94938134 284.60405292 1112.1548856 284.6288784 1126.36056563 C284.64214972 1134.31065208 284.63884153 1142.26032445 284.61170137 1150.2103779 C284.59330089 1156.14394399 284.6062118 1162.07717176 284.63139696 1168.0107222 C284.63671919 1170.41293 284.63186942 1172.8151859 284.61592524 1175.21734669 C284.59577208 1178.47955821 284.61250078 1181.73958845 284.63847923 1185.00171185 C284.6165512 1186.4050128 284.6165512 1186.4050128 284.59418017 1187.83666328 C284.71164424 1194.9386028 287.16581861 1198.8883584 291.38793945 1204.44604492 C292.78793449 1206.74764436 294.08359937 1209.08819939 295.38793945 1211.44604492 C296.04793945 1211.44604492 296.70793945 1211.44604492 297.38793945 1211.44604492 C297.6405957 1212.32647461 297.89325195 1213.2069043 298.15356445 1214.11401367 C299.42477481 1217.54547708 300.92396119 1219.86235242 303.13793945 1222.75854492 C307.90982549 1229.12394644 312.29603404 1235.62620256 316.38793945 1242.44604492 C317.25768513 1243.76203266 318.13350848 1245.07400973 319.01293945 1246.38354492 C321.68980046 1250.37220101 324.29771144 1254.40094243 326.88793945 1258.44604492 C330.33079094 1263.8187523 333.82539826 1269.15171287 337.38793945 1274.44604492 C340.49010312 1279.06127372 343.52669365 1283.67730191 346.38793945 1288.44604492 C347.25768513 1289.76203266 348.13350848 1291.07400973 349.01293945 1292.38354492 C352.06154475 1296.92611849 355.02190374 1301.5217427 357.96459961 1306.13330078 C360.53688632 1310.15460744 363.17279689 1314.1300234 365.82592773 1318.09838867 C368.44011817 1322.02743763 371.00703363 1325.9869758 373.57543945 1329.94604492 C374.13569824 1330.8082666 374.69595703 1331.67048828 375.27319336 1332.55883789 C378.0005895 1336.75821104 380.72207271 1340.96123559 383.4309082 1345.17260742 C387.72922946 1351.85117792 392.05887721 1358.4725974 396.6574707 1364.94995117 C398.73675008 1367.9491826 400.7277877 1371.00119874 402.70043945 1374.07104492 C403.07193115 1374.64894775 403.44342285 1375.22685059 403.82617188 1375.82226562 C405.95910139 1379.15936339 408.0509407 1382.51872117 410.11450195 1385.89916992 C410.56656006 1386.63570801 411.01861816 1387.37224609 411.484375 1388.13110352 C412.36725373 1389.5728334 413.2439007 1391.01840103 414.11376953 1392.46801758 C415.15175712 1394.1612781 416.26330422 1395.80905224 417.38793945 1397.44604492 C418.04793945 1397.44604492 418.70793945 1397.44604492 419.38793945 1397.44604492 C419.71793945 1399.09604492 420.04793945 1400.74604492 420.38793945 1402.44604492 C421.04793945 1402.44604492 421.70793945 1402.44604492 422.38793945 1402.44604492 C422.65606445 1403.20916992 422.92418945 1403.97229492 423.20043945 1404.75854492 C424.34918786 1407.35834394 425.35652705 1408.54820485 427.38793945 1410.44604492 C427.43935053 1332.90172297 427.48704999 1255.35739896 427.51496887 1177.81306458 C427.51538304 1176.66564711 427.51579721 1175.51822964 427.51622394 1174.33604194 C427.52520236 1149.40043259 427.53351295 1124.46482306 427.54113544 1099.52921326 C427.5448775 1087.30105099 427.54876715 1075.07288876 427.55273438 1062.84472656 C427.55332279 1061.01943889 427.55332279 1061.01943889 427.55392309 1059.15727673 C427.56671041 1019.70518272 427.58924679 980.2531016 427.61683112 940.8010154 C427.64512275 900.26374046 427.66359436 859.72647264 427.66968442 819.18918799 C427.67054891 813.4654687 427.67152582 807.74174943 427.67257118 802.01803017 C427.67277345 800.89150418 427.67297572 799.76497819 427.67318412 798.60431505 C427.67673125 780.45985376 427.69065078 762.31541449 427.70843555 744.17096218 C427.72608815 725.93603032 427.73284567 707.70112033 427.72844359 689.46618023 C427.72615938 678.62837289 427.73226714 667.79064549 427.75033208 656.95285256 C427.76157428 649.71463921 427.76193566 642.47647825 427.75343489 635.23826129 C427.74890211 631.11309913 427.74911424 626.98808824 427.762589 622.86294224 C427.77476472 619.1069357 427.77301478 615.35119792 427.76035938 611.59519532 C427.7572204 609.61447017 427.76875672 607.63373814 427.78096488 605.65304813 C427.73287221 597.14319543 427.22372467 588.69972275 422.38793945 581.44604492 C421.72793945 581.44604492 421.06793945 581.44604492 420.38793945 581.44604492 C420.18168945 580.72416992 419.97543945 580.00229492 419.76293945 579.25854492 C416.90888132 573.42069873 411.00062344 570.32322662 405.38793945 567.44604492 C404.25291992 566.84276367 404.25291992 566.84276367 403.0949707 566.22729492 C371.54420136 550.57123994 321.89999967 551.97665639 295.13793945 576.50854492 Z " fill="#000000" transform="translate(1022.612060546875,-0.446044921875)"/>
</svg>
