<?xml version="1.0" encoding="UTF-8"?>
<svg version="1.1" xmlns="http://www.w3.org/2000/svg" width="300" height="300">
<path d="M0 0 C3.81883489 1.77303048 5.49439614 3.29867851 7.9375 6.6875 C9.38595769 11.20327985 9.39897465 14.47408428 8 19 C6.71538931 20.83998358 6.71538931 20.83998358 5.06346989 22.64608192 C4.42908941 23.34025254 3.79470894 24.03442317 3.14110482 24.74962926 C-0.89302451 28.98963028 -5.00185098 33.14984008 -9.14051819 37.28768921 C-10.15718851 38.30766566 -11.17364801 39.32785228 -12.18991655 40.34822905 C-14.96506616 43.1333196 -17.74328939 45.91532573 -20.52208054 48.69678235 C-23.52520504 51.70383294 -26.5255005 54.71370419 -29.52622986 57.72314453 C-36.75916518 64.9757673 -43.99688058 72.22361062 -51.23520842 79.47085088 C-54.64620301 82.88623626 -58.05671046 86.30210801 -61.46728325 89.71791458 C-72.80524771 101.07287457 -84.14446077 112.42658549 -95.48729801 123.77667809 C-98.42521659 126.71650641 -101.36312986 129.65634005 -104.30102539 132.59619141 C-105.03118425 133.32683401 -105.76134311 134.05747661 -106.513628 134.81025989 C-118.36267981 146.66762651 -130.20317952 158.53349501 -142.04016215 170.40290885 C-154.19865292 182.59443981 -166.36463163 194.77845723 -178.53805441 206.95507872 C-185.37083887 213.79002981 -192.20028372 220.62824701 -199.02137947 227.47486496 C-204.82455615 233.29970604 -210.63446255 239.11772601 -216.45335276 244.92687146 C-219.42221673 247.89118001 -222.38772374 250.85865672 -225.34462357 253.83490372 C-228.05068988 256.55852329 -230.76579673 259.2727747 -233.48843878 261.97982164 C-234.472315 262.96131002 -235.4528105 263.94620137 -236.42956544 264.93477695 C-237.75691757 266.27719393 -239.09784619 267.60614611 -240.43939304 268.93437767 C-241.18060982 269.67657126 -241.9218266 270.41876485 -242.6855045 271.18344915 C-246.44230451 274.13200457 -249.76309082 275.04417533 -254.5 274.875 C-259.72845822 273.56788545 -263.0088945 271.48665826 -266 267 C-266.44140625 264.36328125 -266.44140625 264.36328125 -266.5625 261.3125 C-266.62566406 260.31863281 -266.68882812 259.32476562 -266.75390625 258.30078125 C-264.80674189 249.77563159 -254.8513265 242.70942513 -248.83256531 236.70558167 C-247.81303747 235.68489969 -246.79372741 234.66400014 -245.77461463 233.64290375 C-242.99174201 230.85587846 -240.20578592 228.0719539 -237.41928327 225.2885586 C-234.40799758 222.27954323 -231.3996004 219.26764222 -228.39082336 216.25611877 C-222.505035 210.36589216 -216.61655666 204.47836191 -210.72709765 198.5918057 C-205.9428349 193.80980333 -201.15955151 189.02682337 -196.37696266 184.2431469 C-195.69574967 183.56178067 -195.01453668 182.88041445 -194.31268087 182.17840077 C-192.92879884 180.794199 -191.54491905 179.409995 -190.16104148 178.02578878 C-177.19757338 165.05947192 -164.23104657 152.09621731 -151.26346592 139.13401359 C-140.129552 128.0045732 -128.998271 116.87250509 -117.86889648 105.73852539 C-104.94306948 92.80735236 -92.01562904 79.87779586 -79.08559161 66.95083278 C-77.70837848 65.5739382 -76.33116744 64.19704153 -74.95395851 62.82014275 C-74.27633372 62.14267223 -73.59870894 61.46520172 -72.90055006 60.7672018 C-68.11800961 55.98552597 -63.33663297 51.20268829 -58.5557003 46.41940498 C-52.73662543 40.59753188 -46.9157852 34.77743089 -41.09264173 28.95962716 C-38.12001804 25.98963923 -35.1482137 23.0188432 -32.17855453 20.04589081 C-29.46383309 17.32820424 -26.74684069 14.61281043 -24.02796564 11.89927947 C-23.0414036 10.9138406 -22.05569623 9.92754524 -21.07090183 8.94033987 C-19.7390332 7.60545922 -18.40382232 6.27391571 -17.06841564 4.9425745 C-16.32567998 4.20000119 -15.58294432 3.45742788 -14.81770152 2.69235235 C-10.63235802 -1.20436878 -5.42013974 -0.54354509 0 0 Z " fill="#000000" transform="translate(266,0)"/>
<path d="M0 0 C3.85544798 1.99657127 5.59805092 3.39707638 8 7 C8.51171875 9.78515625 8.51171875 9.78515625 8.6875 13.0625 C8.77386719 14.12597656 8.86023438 15.18945312 8.94921875 16.28515625 C6.39888988 26.26607292 -6.04452552 35.19341165 -13.32519531 42.47045898 C-14.54026654 43.68852935 -15.75513498 44.90680203 -16.96981812 46.1252594 C-20.23983481 49.40403521 -23.51301685 52.67963257 -26.78709507 55.95435214 C-28.83521366 58.00318488 -30.8826172 60.05272942 -32.92977142 62.10252571 C-40.07826728 69.26024219 -47.22930998 76.41540255 -54.3828125 83.56811523 C-61.04319339 90.22789348 -67.69795448 96.89325129 -74.35015416 103.56120056 C-80.07503732 109.29915293 -85.80376279 115.03324981 -91.5355041 120.76435143 C-94.95338126 124.18197379 -98.36969173 127.60112686 -101.78214264 131.02416801 C-104.98545837 134.23715635 -108.1935285 137.44531977 -111.40532303 140.64983177 C-112.58214769 141.82561016 -113.75726847 143.00309682 -114.93054581 144.18241501 C-116.53303256 145.79261711 -118.14157356 147.39652106 -119.75177002 148.99900818 C-121.09895048 150.34700579 -121.09895048 150.34700579 -122.47334671 151.72223568 C-127.64153368 156.38132837 -131.40410247 157.65372332 -138.265625 157.49609375 C-142.62492488 156.7051922 -145.23410904 154.35733934 -148 151 C-149.20033249 148.59933502 -149.23537492 146.9290818 -149.3125 144.25 C-149.34988281 143.40953125 -149.38726562 142.5690625 -149.42578125 141.703125 C-148.48497353 135.73029065 -143.72315832 131.43180752 -139.57263184 127.31866455 C-139.03709104 126.78000377 -138.50155025 126.241343 -137.94978094 125.68635917 C-136.1658934 123.89453632 -134.37499338 122.10989776 -132.58398438 120.32519531 C-131.29884582 119.03734498 -130.01413276 117.74906994 -128.72981262 116.46040344 C-125.24902261 112.97051126 -121.76195467 109.48695634 -118.27343941 106.0047884 C-114.62212597 102.35854399 -110.97570095 98.70741618 -107.32849121 95.05706787 C-101.20549789 88.93043848 -95.07830504 82.80803275 -88.94873047 76.68798828 C-81.86037299 69.61052436 -74.77926235 62.52587113 -67.70185423 55.43745923 C-61.62391219 49.35044572 -55.54208691 43.26733279 -49.45698977 37.18747211 C-45.82302497 33.55662652 -42.19042784 29.92444032 -38.56132507 26.28873444 C-35.15133538 22.87297365 -31.73650217 19.46213073 -28.3178463 16.05504417 C-27.06320952 14.80305481 -25.81027697 13.54935497 -24.55916786 12.29384041 C-22.85314553 10.5823648 -21.14110146 8.87715022 -19.42736816 7.17340088 C-18.93203378 6.67360505 -18.4366994 6.17380923 -17.92635489 5.65886807 C-12.32644975 0.12220432 -7.75036846 -1.01463814 0 0 Z " fill="#000000" transform="translate(292,143)"/>
</svg>
